<svg id="Group_3550" data-name="Group 3550" xmlns="http://www.w3.org/2000/svg" width="40" height="40" viewBox="0 0 40 40">
  <path id="Path_1007" data-name="Path 1007" d="M24.989,22.574l5.438,5.438a1.709,1.709,0,0,1-2.416,2.416l-5.438-5.438-5.438,5.438a1.709,1.709,0,0,1-2.416-2.416l5.438-5.438L14.72,17.136a1.709,1.709,0,0,1,2.416-2.416l5.438,5.438,5.438-5.438a1.709,1.709,0,0,1,2.416,2.416Z" transform="translate(-2.574 -2.574)" fill="#e81d26"/>
  <path id="Path_1008" data-name="Path 1008" d="M20,40A20,20,0,1,1,40,20,20,20,0,0,1,20,40Zm0-3.333A16.667,16.667,0,1,0,3.333,20,16.666,16.666,0,0,0,20,36.667Z" fill="#4a4949"/>
</svg>
