<svg xmlns="http://www.w3.org/2000/svg" width="22" height="26.889" viewBox="0 0 22 26.889">
  <g id="Group_3553" data-name="Group 3553" transform="translate(-32 -28)">
    <g id="Group_3552" data-name="Group 3552" transform="translate(32 28)">
      <path id="Path_1009" data-name="Path 1009" d="M54,53.667a1.222,1.222,0,0,1-2.444,0,8.556,8.556,0,0,0-17.111,0,1.222,1.222,0,0,1-2.444,0,11,11,0,0,1,22,0ZM43,41.444a6.722,6.722,0,1,1,6.722-6.722A6.722,6.722,0,0,1,43,41.444ZM43,39a4.278,4.278,0,1,0-4.278-4.278A4.278,4.278,0,0,0,43,39Z" transform="translate(-32 -28)" fill="#97948c"/>
    </g>
  </g>
</svg>
