<svg xmlns="http://www.w3.org/2000/svg" width="42.333" height="42.321" viewBox="0 0 42.333 42.321">
  <g id="Group_3563" data-name="Group 3563" transform="translate(-0.48 -0.5)">
    <path id="Path_1025" data-name="Path 1025" d="M36.942.5H6.352A5.884,5.884,0,0,0,.48,6.372v23.5a5.884,5.884,0,0,0,5.872,5.872H7.56v5.872a1.209,1.209,0,0,0,1.208,1.208h12.7a1.209,1.209,0,0,0,1.208-1.208V35.742H36.942a5.884,5.884,0,0,0,5.872-5.872V6.372A5.884,5.884,0,0,0,36.942.5ZM20.294,40.441H9.928V24.965A10.559,10.559,0,0,1,20.294,35.536ZM40.457,29.87a3.527,3.527,0,0,1-3.516,3.516h-14.5a12.738,12.738,0,0,0-3.129-6.476l8.989-9a1.208,1.208,0,1,0-1.655-1.655L17.6,25.267a12.794,12.794,0,0,0-7.877-2.682H8.744a1.209,1.209,0,0,0-1.208,1.208v9.593H6.327A3.527,3.527,0,0,1,2.812,29.87V6.372a3.541,3.541,0,0,1,3.54-3.528h30.59a3.54,3.54,0,0,1,3.516,3.528Z" fill="#97948c"/>
    <path id="Path_1026" data-name="Path 1026" d="M11.97,8.28a5.63,5.63,0,1,0,5.63,5.63V13.9A5.63,5.63,0,0,0,11.97,8.28Zm0,8.9a3.286,3.286,0,1,1,3.274-3.3V13.9a3.274,3.274,0,0,1-3.262,3.286Z" transform="translate(1.22 1.619)" fill="#97948c"/>
  </g>
</svg>
