<svg xmlns="http://www.w3.org/2000/svg" width="24" height="37" viewBox="0 0 24 37">
  <path id="Path_1015" data-name="Path 1015" d="M29.823,16.188H16.177A5.219,5.219,0,0,0,11,21.425V35.844A1.149,1.149,0,0,0,12.143,37H33.857A1.149,1.149,0,0,0,35,35.844V21.425A5.219,5.219,0,0,0,29.823,16.188ZM24.714,18.5c0,.619-.8,1.156-1.714,1.156s-1.714-.538-1.714-1.156Zm.349,10.441L23,30.82l-2.063-1.879L23,23.853Zm7.651,5.747H13.286V21.425A2.915,2.915,0,0,1,16.177,18.5H19a3.492,3.492,0,0,0,2.411,3.18l-2.9,7.134a1.166,1.166,0,0,0,.291,1.3l3.429,3.122a1.133,1.133,0,0,0,1.531,0l3.429-3.122a1.166,1.166,0,0,0,.291-1.3l-2.9-7.134A3.492,3.492,0,0,0,27,18.5h2.823a2.915,2.915,0,0,1,2.891,2.925ZM23,15.031a7.472,7.472,0,0,0,7.429-7.516,7.429,7.429,0,1,0-14.857,0A7.472,7.472,0,0,0,23,15.031ZM23,2.313a5.2,5.2,0,1,1-5.143,5.2A5.173,5.173,0,0,1,23,2.313Z" transform="translate(-11)" fill="#97948c"/>
</svg>
