<svg xmlns="http://www.w3.org/2000/svg" width="38" height="35.804" viewBox="0 0 38 35.804">
  <path id="Path_1024" data-name="Path 1024" d="M37.132,15.137h-.751v-6.8a1.251,1.251,0,0,0-1.873-1.085c-3.045,1.756-11.892,6.315-16.026,6.315H7.553a3.108,3.108,0,0,0-3.1,3.1v9.26A3.1,3.1,0,0,0,7.061,28.99L10.936,41.04a2.444,2.444,0,0,0,2.319,1.848,2.351,2.351,0,0,0,.334-.025,11.014,11.014,0,0,0,4.73-1.452,3.036,3.036,0,0,0,.834-.571,1.272,1.272,0,0,0,.133-.159,3.046,3.046,0,0,0-.008-3.55,18.764,18.764,0,0,1-1.814-8.1H18.47c5.331,0,15.922,6.257,16.03,6.307a1.251,1.251,0,0,0,1.881-1.072V25.774h.751a5.318,5.318,0,0,0,0-10.637ZM6.953,25.928v-9.26a.609.609,0,0,1,.6-.6h9.677V26.529H7.553A.609.609,0,0,1,6.953,25.928Zm10.34,13.2-.159.083L17,39.288a8.173,8.173,0,0,1-3.65,1.089v-.058L9.706,29.031h5.268A20.563,20.563,0,0,0,17.193,38.5l.038.054A.546.546,0,0,1,17.293,39.126ZM33.878,15.137V32.118c-3.158-1.723-9.594-4.96-14.182-5.51V15.98c4.451-.588,11.008-3.829,14.182-5.531Zm3.233,8.134h-.73V17.64h.751a2.816,2.816,0,0,1,0,5.631Z" transform="translate(-4.45 -7.084)" fill="#97948c"/>
</svg>
