<svg xmlns="http://www.w3.org/2000/svg" width="40" height="28.571" viewBox="0 0 40 28.571">
  <g id="Group_3564" data-name="Group 3564" transform="translate(-2 -6)">
    <path id="Path_1027" data-name="Path 1027" d="M9.143,6A1.429,1.429,0,0,0,7.714,7.429v4.286H3.429A1.429,1.429,0,0,0,2,13.143V30.286a4.308,4.308,0,0,0,4.286,4.286H37.714A4.308,4.308,0,0,0,42,30.286V7.429A1.429,1.429,0,0,0,40.571,6Zm1.429,2.857H39.143V30.286a1.4,1.4,0,0,1-1.429,1.429H10.3a4.212,4.212,0,0,0,.267-1.429V8.857ZM4.857,14.571H7.714V30.286a1.4,1.4,0,0,1-1.429,1.429,1.4,1.4,0,0,1-1.429-1.429Z" fill="#97948c"/>
    <path id="Path_1028" data-name="Path 1028" d="M12.45,13.857h2.817a1.429,1.429,0,1,0,0-2.857H12.45a1.429,1.429,0,1,0,0,2.857Z" transform="translate(3.858 2.143)" fill="#97948c"/>
    <path id="Path_1029" data-name="Path 1029" d="M26.981,13.856H18.45a1.428,1.428,0,1,1,0-2.856h8.531a1.428,1.428,0,1,1,0,2.856Z" transform="translate(6.429 2.143)" fill="#97948c"/>
    <path id="Path_1030" data-name="Path 1030" d="M29.54,17.856H12.462a1.428,1.428,0,1,1,0-2.856H29.54a1.428,1.428,0,1,1,0,2.856Z" transform="translate(3.858 3.857)" fill="#97948c"/>
    <path id="Path_1031" data-name="Path 1031" d="M29.54,21.856H12.462a1.428,1.428,0,1,1,0-2.856H29.54a1.428,1.428,0,1,1,0,2.856Z" transform="translate(3.858 5.571)" fill="#97948c"/>
  </g>
</svg>
