<svg xmlns="http://www.w3.org/2000/svg" width="35" height="42.002" viewBox="0 0 35 42.002">
  <g id="Group_3561" data-name="Group 3561" transform="translate(-5 0.003)">
    <path id="Path_1016" data-name="Path 1016" d="M38.7,22H6.3A1.3,1.3,0,0,0,5,23.313V48.25a1.3,1.3,0,0,0,1.3,1.313H38.7A1.3,1.3,0,0,0,40,48.25V23.313A1.3,1.3,0,0,0,38.7,22ZM7.593,46.938V24.625H37.407v6.563H32.87a4.594,4.594,0,0,0,0,9.188h4.537v6.563ZM37.407,37.75H32.87a1.969,1.969,0,0,1,0-3.938h4.537Z" transform="translate(0 -7.563)" fill="#97948c"/>
    <path id="Path_1017" data-name="Path 1017" d="M25.232,14.557a1.312,1.312,0,0,0,.781.256,1.364,1.364,0,0,0,.591-.138,1.313,1.313,0,0,0,.722-1.175V4.313a1.313,1.313,0,1,0-2.625,0v6.563L23.1,9.694a1.313,1.313,0,0,0-1.656,2.037c.03.025.062.048.094.07Z" transform="translate(-5.643 -1.032)" fill="#97948c"/>
    <path id="Path_1018" data-name="Path 1018" d="M35.965,10.5V3.937l1.6,1.181a1.313,1.313,0,0,0,1.656-2.037c-.03-.025-.062-.048-.094-.07L35.433.255A1.313,1.313,0,0,0,33.34,1.312V10.5a1.313,1.313,0,0,0,2.625,0Z" transform="translate(-10.022 0)" fill="#97948c"/>
  </g>
</svg>
