<svg xmlns="http://www.w3.org/2000/svg" width="30" height="29.529" viewBox="0 0 30 29.529">
  <path id="Path_1023" data-name="Path 1023" d="M23.4,47.481a1.387,1.387,0,0,1-1.158-1.57l0-.028,1.316-8.915L17.409,30.56a1.424,1.424,0,0,1,0-1.971,1.339,1.339,0,0,1,.735-.387l8.637-1.467,4.021-8.005a1.335,1.335,0,0,1,1.818-.617,1.376,1.376,0,0,1,.6.617l4,8.005L45.881,28.2A1.39,1.39,0,0,1,47,29.8a1.41,1.41,0,0,1-.376.757l-6.167,6.408,1.334,8.915a1.388,1.388,0,0,1-1.141,1.583,1.321,1.321,0,0,1-.807-.134l-7.826-4.049-7.826,4.049A1.322,1.322,0,0,1,23.4,47.481Zm1.911-3.845L31.4,40.478a1.317,1.317,0,0,1,1.226,0L38.7,43.636l-1.028-6.947a1.42,1.42,0,0,1,.379-1.189l4.8-5-6.726-1.133a1.355,1.355,0,0,1-.992-.724l-3.12-6.241-3.12,6.241a1.355,1.355,0,0,1-.992.724L21.177,30.5l4.8,5a1.42,1.42,0,0,1,.379,1.189l-1.046,6.947Z" transform="translate(-17.015 -17.962)" fill="#97948c"/>
</svg>
