<svg xmlns="http://www.w3.org/2000/svg" width="47.13" height="47.13" viewBox="0 0 47.13 47.13">
  <g id="Group_3565" data-name="Group 3565" transform="translate(-0.5 -0.5)">
    <path id="Path_1032" data-name="Path 1032" d="M40.688,12.675A6.088,6.088,0,1,0,34.6,6.588,6.118,6.118,0,0,0,40.688,12.675Zm0-9.557a3.469,3.469,0,1,1-3.469,3.469A3.492,3.492,0,0,1,40.688,3.118Z" transform="translate(-11.779)" fill="#97948c"/>
    <path id="Path_1033" data-name="Path 1033" d="M43.7,31.738H41.084A12.274,12.274,0,0,0,32.9,21.461a1.249,1.249,0,0,0-1.506.524l-2.487,3.731-2.487-3.731a1.277,1.277,0,0,0-1.506-.524h0a12.241,12.241,0,0,0-8.248,10.277H11.955L11.89,27.09l3.273-3.011a1.3,1.3,0,0,0-1.767-1.9l-3.731,3.4a1.392,1.392,0,0,0-.458.982l.065,5.171H4.428A3.939,3.939,0,0,0,.5,35.665V49.084a3.939,3.939,0,0,0,3.928,3.927H8.879v.524a1.309,1.309,0,0,0,2.618,0v-.524H36.633v.524a1.309,1.309,0,0,0,2.618,0v-.524H43.7a3.939,3.939,0,0,0,3.928-3.927V35.665A3.939,3.939,0,0,0,43.7,31.738ZM24.851,24.275l3.011,4.451a1.285,1.285,0,0,0,2.16,0l3.011-4.451a9.6,9.6,0,0,1,5.5,7.462H19.352A9.562,9.562,0,0,1,24.851,24.275ZM45.012,49.084A1.313,1.313,0,0,1,43.7,50.393H4.428a1.313,1.313,0,0,1-1.309-1.309V45.811H6a1.309,1.309,0,1,0,0-2.618H3.118V40.836H9.73a1.309,1.309,0,0,0,0-2.618H3.118V35.665a1.313,1.313,0,0,1,1.309-1.309H43.7a1.313,1.313,0,0,1,1.309,1.309Z" transform="translate(0 -7.214)" fill="#97948c"/>
  </g>
</svg>
