<svg xmlns="http://www.w3.org/2000/svg" width="35" height="35.046" viewBox="0 0 35 35.046">
  <g id="Group_3560" data-name="Group 3560" transform="translate(-0.5 -0.5)">
    <path id="Path_1010" data-name="Path 1010" d="M17.975,2.463a15.333,15.333,0,0,1,9.747,3.473H25.605a1.007,1.007,0,0,0,0,2.013h4.578a1,1,0,0,0,.985-1.007V2.262a.985.985,0,1,0-1.969,0l.049,2.466A17.258,17.258,0,0,0,17.975.5,17.678,17.678,0,0,0,.5,18.367a1,1,0,0,0,.985,1.007,1,1,0,0,0,.985-1.007A15.693,15.693,0,0,1,17.975,2.463Z" fill="#ea343c"/>
    <path id="Path_1011" data-name="Path 1011" d="M38.634,34a1,1,0,0,0-.985,1.007,15.767,15.767,0,0,1-15.558,15.9,15.4,15.4,0,0,1-9.945-3.674h2.117a1.007,1.007,0,0,0,0-2.013H9.685A1,1,0,0,0,8.7,46.23v4.681a.985.985,0,1,0,1.969,0V48.545a17.13,17.13,0,0,0,11.422,4.328A17.68,17.68,0,0,0,39.569,35.007.929.929,0,0,0,38.634,34Z" transform="translate(-4.073 -17.328)" fill="#ea343c"/>
    <g id="Group_3555" data-name="Group 3555" transform="translate(10.456 10.208)">
      <g id="Group_3554" data-name="Group 3554">
        <path id="Path_1012" data-name="Path 1012" d="M28.831,21.892v3.241a11.774,11.774,0,0,1-.048,1.554l.043-.323a5.37,5.37,0,0,1-.369,1.346l.123-.29a5.409,5.409,0,0,1-.69,1.178l.19-.246a5.436,5.436,0,0,1-.959.959l.246-.19a5.407,5.407,0,0,1-1.178.689l.29-.122a5.37,5.37,0,0,1-1.346.369l.323-.043a12.947,12.947,0,0,1-1.7.048H22.047a1.225,1.225,0,0,0-1.213,1.214v.181a1.23,1.23,0,0,0,.358.871l.038.039.206.209.845.856,2.733,2.77,2.823,2.861,1.349,1.368,0,0A1.214,1.214,0,0,0,30.9,38.717l-1.281-1.3-2.8-2.84-2.759-2.8L22.906,30.61l.356.858v-.191l-1.214,1.214h1.5c.537,0,1.081.024,1.616-.017a6.52,6.52,0,0,0,5.448-3.67,6.417,6.417,0,0,0,.539-1.647,7.583,7.583,0,0,0,.114-1.248V21.892a1.214,1.214,0,1,0-2.428,0Z" transform="translate(-20.834 -20.678)" fill="#ea343c"/>
      </g>
    </g>
    <g id="Group_3557" data-name="Group 3557" transform="translate(10.403 10.446)">
      <g id="Group_3556" data-name="Group 3556">
        <path id="Path_1013" data-name="Path 1013" d="M22.047,23.105H34.077a1.214,1.214,0,1,0,0-2.427H22.047a1.214,1.214,0,0,0,0,2.427Z" transform="translate(-20.834 -20.678)" fill="#ea343c"/>
      </g>
    </g>
    <g id="Group_3559" data-name="Group 3559" transform="translate(10.403 14.988)">
      <g id="Group_3558" data-name="Group 3558">
        <path id="Path_1014" data-name="Path 1014" d="M34.077,29.894H22.047a1.214,1.214,0,0,0,0,2.427H34.077a1.214,1.214,0,1,0,0-2.427Z" transform="translate(-20.834 -29.894)" fill="#ea343c"/>
      </g>
    </g>
  </g>
</svg>
