<svg xmlns="http://www.w3.org/2000/svg" width="407.565" height="320.285" viewBox="0 0 407.565 320.285">
  <g id="Group_1399" data-name="Group 1399" transform="translate(-1300.913 -123.259)">
    <g id="Group_1391" data-name="Group 1391">
      <g id="Group_1390" data-name="Group 1390">
        <path id="Path_954" data-name="Path 954" d="M1439.686,378.614,1406.159,417.9a12.708,12.708,0,0,0,1.068,17.606h0a12.7,12.7,0,0,0,14.117,2.09c17.075-8.241,56.286-27.347,55.5-28.647-.591-.982-9.4-16.191-16.5-28.458A12.7,12.7,0,0,0,1439.686,378.614Z" fill="#fa513c"/>
        <path id="Path_955" data-name="Path 955" d="M1500.089,415.771l-76.342,24.9a13.32,13.32,0,0,1-16.794-8.531h0a13.32,13.32,0,0,1,8.532-16.794l76.341-24.906a13.32,13.32,0,0,1,16.794,8.532h0A13.319,13.319,0,0,1,1500.089,415.771Z" fill="#fbc39d"/>
        <path id="Path_956" data-name="Path 956" d="M1578.78,378.614l33.527,39.289a12.708,12.708,0,0,1-1.068,17.606h0a12.7,12.7,0,0,1-14.117,2.09c-17.075-8.241-56.285-27.347-55.5-28.647.591-.982,9.4-16.191,16.5-28.458A12.7,12.7,0,0,1,1578.78,378.614Z" fill="#fa513c"/>
        <path id="Path_957" data-name="Path 957" d="M1518.377,415.771l76.342,24.9a13.32,13.32,0,0,0,16.794-8.531h0a13.32,13.32,0,0,0-8.532-16.794l-76.341-24.906a13.32,13.32,0,0,0-16.794,8.532h0A13.319,13.319,0,0,0,1518.377,415.771Z" fill="#fbc39d"/>
        <path id="Path_958" data-name="Path 958" d="M1560.545,384.774l-97.153-1.978V370.3c0-20.4,20.744-39.423,41.141-39.423h15.315c18.12,0,40.7,19.159,40.7,37.278Z" fill="#fa513c"/>
        <g id="Group_1388" data-name="Group 1388">
          <path id="Path_959" data-name="Path 959" d="M1518.818,307.88h-14.276a5.222,5.222,0,0,0-5.222,5.222v22.383a12.36,12.36,0,0,0,24.72,0V313.1A5.222,5.222,0,0,0,1518.818,307.88Z" fill="#fbc39d"/>
          <path id="Path_960" data-name="Path 960" d="M1499.32,330.88s1,7.279,12.36,7.279,12.361-7.279,12.361-7.279Z" fill="#f9ac7f"/>
          <path id="Path_961" data-name="Path 961" d="M1476.847,272.322a9.62,9.62,0,1,0,9.246,9.612A9.435,9.435,0,0,0,1476.847,272.322Z" fill="#f9ac7f"/>
          <path id="Path_962" data-name="Path 962" d="M1546.634,272.322a9.62,9.62,0,1,0,9.246,9.612A9.435,9.435,0,0,0,1546.634,272.322Z" fill="#f9ac7f"/>
          <path id="Path_963" data-name="Path 963" d="M1508.839,333.324l-.061.062c.958.083,1.924.135,2.9.135h0a33.616,33.616,0,0,0,8.524-1.1c.012-.024.022-.05.034-.075,15.1-3.966,26.275-18.18,26.275-35.11V254.807c0-20-15.6-16.815-34.833-16.815h0c-19.238,0-34.834-3.186-34.834,16.815v42.432C1476.847,316.244,1490.932,331.819,1508.839,333.324Z" fill="#fbc39d"/>
          <path id="Path_964" data-name="Path 964" d="M1539.488,283.288v11.454h-12.352s-3.063-8.266-15.455-8.266-15.456,8.266-15.456,8.266h-12.352V283.288c0-4.514-4.231-6-7.026-6.494v20.445c0,19,14.084,34.58,31.992,36.085l-.061.062c.958.083,1.924.135,2.9.135s1.944-.052,2.9-.135l-.061-.062c17.907-1.505,31.992-17.08,31.992-36.085V276.794C1543.719,277.286,1539.488,278.774,1539.488,283.288Z" fill="#0270e3"/>
          <g id="Group_1385" data-name="Group 1385">
            <path id="Path_965" data-name="Path 965" d="M1527.755,272.322a2.444,2.444,0,1,1-2.443-2.538A2.491,2.491,0,0,1,1527.755,272.322Z" fill="#60412b"/>
            <rect id="Rectangle_149" data-name="Rectangle 149" width="10.37" height="4.072" rx="0.925" transform="translate(1520.496 264.234)" fill="#60412b"/>
          </g>
          <path id="Path_966" data-name="Path 966" d="M1498.9,300.7h24.114s-2.128,8.227-12.057,8.227S1498.9,300.7,1498.9,300.7Z" fill="#e6e6e6"/>
          <g id="Group_1386" data-name="Group 1386">
            <path id="Path_967" data-name="Path 967" d="M1514.522,326.667l.061.063c-.958.082-1.924.134-2.9.134s-1.945-.052-2.9-.134l.061-.063c-17.908-1.505-31.992-17.08-31.992-36.085v6.657c0,19,14.084,34.58,31.992,36.085l-.061.062c.958.083,1.924.135,2.9.135s1.944-.052,2.9-.135l-.061-.062c17.907-1.505,31.992-17.08,31.992-36.085v-6.657C1546.514,309.587,1532.429,325.162,1514.522,326.667Z" fill="#0270e3"/>
          </g>
          <g id="Group_1387" data-name="Group 1387">
            <path id="Path_968" data-name="Path 968" d="M1499.107,272.322a2.445,2.445,0,1,1-2.443-2.538A2.492,2.492,0,0,1,1499.107,272.322Z" fill="#60412b"/>
            <rect id="Rectangle_150" data-name="Rectangle 150" width="10.37" height="4.072" rx="0.925" transform="translate(1491.848 264.234)" fill="#60412b"/>
          </g>
          <path id="Path_969" data-name="Path 969" d="M1537.312,224.052c-9.528-1.34-24.37-1.492-35.2,7.408a7.926,7.926,0,0,0-.691.668h-8.571c-8.835,0-16,6.254-16,13.969v48a3.015,3.015,0,0,0,2.954-3.071v-30.94s.546-9.824,9.45-9.824h43.573c9.487,0,10.641,8.6,10.75,9.706v31.058a3.015,3.015,0,0,0,2.954,3.071V246.988l.1-12.087A10.852,10.852,0,0,0,1537.312,224.052Z" fill="#0270e3"/>
          <path id="Path_970" data-name="Path 970" d="M1515.054,280.328h-8.186a3.07,3.07,0,0,0,0,6.139h8.186a3.07,3.07,0,0,0,0-6.139Z" fill="#f9ac7f"/>
        </g>
        <g id="Group_1389" data-name="Group 1389">
          <path id="Rectangle_151" data-name="Rectangle 151" d="M5.813,0H163.9a5.812,5.812,0,0,1,5.812,5.812v0a5.813,5.813,0,0,1-5.813,5.813H5.812A5.812,5.812,0,0,1,0,5.813v0A5.813,5.813,0,0,1,5.813,0Z" transform="translate(1425.915 430.036)" fill="#93c2e5"/>
          <rect id="Rectangle_152" data-name="Rectangle 152" width="140.332" height="86.774" rx="9.174" transform="translate(1441.535 354.888)" fill="#daeeff"/>
          <path id="Path_971" data-name="Path 971" d="M1510.773,408.925a10.65,10.65,0,1,1,10.651-10.651A10.663,10.663,0,0,1,1510.773,408.925Zm0-19.446a8.8,8.8,0,1,0,8.8,8.795A8.8,8.8,0,0,0,1510.773,389.479Z" fill="#fff"/>
        </g>
      </g>
      <path id="Path_972" data-name="Path 972" d="M1649.688,443.544H1382.394a1.883,1.883,0,1,1,0-3.766h267.294a1.883,1.883,0,1,1,0,3.766Z" fill="#739ee2"/>
      <path id="Path_973" data-name="Path 973" d="M1373,443.544h-29.947a1.883,1.883,0,1,1,0-3.766H1373a1.883,1.883,0,1,1,0,3.766Z" fill="#739ee2"/>
      <path id="Path_974" data-name="Path 974" d="M1689.874,443.544h-29.947a1.883,1.883,0,1,1,0-3.766h29.947a1.883,1.883,0,0,1,0,3.766Z" fill="#739ee2"/>
      <path id="Path_975" data-name="Path 975" d="M1706.595,443.544h-6.411a1.883,1.883,0,0,1,0-3.766h6.411a1.883,1.883,0,1,1,0,3.766Z" fill="#739ee2"/>
      <path id="Path_976" data-name="Path 976" d="M1332.254,443.544h-10.177a1.883,1.883,0,1,1,0-3.766h10.177a1.883,1.883,0,0,1,0,3.766Z" fill="#40bcdf"/>
      <path id="Path_977" data-name="Path 977" d="M1305.442,443.544H1302.8a1.883,1.883,0,1,1,0-3.766h2.646a1.883,1.883,0,0,1,0,3.766Z" fill="#40bcdf"/>
    </g>
    <g id="Group_1398" data-name="Group 1398">
      <path id="Path_978" data-name="Path 978" d="M1417.3,219.786h-14.361a27.617,27.617,0,0,0-27.617,27.616h0a27.616,27.616,0,0,0,27.531,27.615h0c3.086,2.886,7.266,6.9,7.267,6.906h0l7.18-6.9h0a27.617,27.617,0,0,0,27.617-27.617h0A27.617,27.617,0,0,0,1417.3,219.786Z" fill="#4b84da"/>
      <circle id="Ellipse_56" data-name="Ellipse 56" cx="23.514" cy="23.514" r="23.514" transform="translate(1499.057 169.002) rotate(-76.58)" fill="#b1ccf1"/>
      <circle id="Ellipse_57" data-name="Ellipse 57" cx="6.03" cy="6.03" r="6.03" transform="translate(1380.944 378.744)" fill="#40bcdf"/>
      <circle id="Ellipse_58" data-name="Ellipse 58" cx="6.226" cy="6.226" r="6.226" transform="translate(1618.054 151.581)" fill="#40bcdf"/>
      <path id="Path_979" data-name="Path 979" d="M1588.488,188.077a18.937,18.937,0,1,0,0,37.873h26.042a.921.921,0,0,1,.666.285l2.855,3,2.382-2.943a.92.92,0,0,1,.715-.341h3.131a18.937,18.937,0,1,0,0-37.873Z" fill="#ff8fa6"/>
      <g id="Group_1392" data-name="Group 1392">
        <path id="Path_980" data-name="Path 980" d="M1378.27,185.154h-25.6a11.369,11.369,0,1,0,0,22.738h25.6a11.369,11.369,0,1,0,0-22.738Z" fill="#40bcdf"/>
        <path id="Path_981" data-name="Path 981" d="M1359.276,207.224l-3.073,4.168-2.612-4.168Z" fill="#40bcdf"/>
      </g>
      <path id="Path_982" data-name="Path 982" d="M1645.072,247.413h-24.041a20.4,20.4,0,1,0,0,40.8h2.507l5.166,7.255,4.732-7.255h11.636a20.4,20.4,0,1,0,0-40.8Z" fill="#7daef3"/>
      <g id="Group_1393" data-name="Group 1393">
        <path id="Path_983" data-name="Path 983" d="M1480.747,208.563a1.406,1.406,0,0,1-1-.414l-7.776-7.776a1.412,1.412,0,0,1,2-2l7.776,7.776a1.413,1.413,0,0,1-1,2.412Z" fill="#fcd203"/>
        <path id="Path_984" data-name="Path 984" d="M1472.971,208.563a1.413,1.413,0,0,1-1-2.412l7.776-7.776a1.412,1.412,0,0,1,2,2l-7.776,7.776A1.405,1.405,0,0,1,1472.971,208.563Z" fill="#fcd203"/>
      </g>
      <path id="Path_985" data-name="Path 985" d="M1372.657,197.866h-9.322a1.342,1.342,0,0,1,0-2.685h9.322a1.342,1.342,0,1,1,0,2.685Z" fill="#fff"/>
      <path id="Path_986" data-name="Path 986" d="M1615.985,204.827h-18.007a.913.913,0,0,1,0-1.827h18.007a.913.913,0,0,1,0,1.827Z" fill="#fff"/>
      <path id="Path_987" data-name="Path 987" d="M1607.328,207.947h-9.35a.914.914,0,0,1,0-1.827h9.35a.914.914,0,0,1,0,1.827Z" fill="#fff"/>
      <path id="Path_988" data-name="Path 988" d="M1612.511,211.067h-14.533a.913.913,0,0,1,0-1.827h14.533a.913.913,0,1,1,0,1.827Z" fill="#fff"/>
      <path id="Path_989" data-name="Path 989" d="M1359.008,197.866h-1.627a1.342,1.342,0,0,1,0-2.685h1.627a1.342,1.342,0,1,1,0,2.685Z" fill="#fff"/>
      <path id="Path_990" data-name="Path 990" d="M1417.42,244.836a.4.4,0,0,0,0-.048,1.87,1.87,0,0,0-1.657-1.834,3.456,3.456,0,0,0-.444-.012H1415v-2.375a8.594,8.594,0,0,0-.1-1.617,4.827,4.827,0,0,0-1.694-2.81,5.223,5.223,0,0,0-1.648-.907,4.836,4.836,0,0,0-1.7-.228,4.9,4.9,0,0,0-2.743.97,5.438,5.438,0,0,0-1.143,1.178,4.86,4.86,0,0,0-.639,1.3,5.746,5.746,0,0,0-.23,1.8v2.686h-.077l-.465,0a1.876,1.876,0,0,0-1.6.872,3.377,3.377,0,0,0-.279,1.877v7.758a1.961,1.961,0,0,0,.5,1.362,1.892,1.892,0,0,0,1.406.593h10.8a2.34,2.34,0,0,0,.748-.093,1.882,1.882,0,0,0,1.288-1.771v-8.7Zm-5.871,4.284a1.549,1.549,0,0,1-.8,1.294v1.255a.7.7,0,1,1-1.394,0V250.4a1.489,1.489,0,0,1-.593-.555,1.525,1.525,0,0,1,.158-1.748,1.489,1.489,0,0,1,1.62-.432,1.521,1.521,0,0,1,1.006,1.387v.028A.06.06,0,0,1,1411.549,249.12Zm1.594-8.176v2h-6.182v-2.749a6.692,6.692,0,0,1,.023-.679,4.072,4.072,0,0,1,.214-.774,4.169,4.169,0,0,1,.4-.685c-.023.028-.044.056-.067.083l.146-.188c-.025.035-.053.07-.079.1a4.037,4.037,0,0,1,.558-.558c-.035.026-.07.051-.1.079l.189-.146c-.028.02-.056.044-.084.067a3.094,3.094,0,0,1,1.478-.618,4.131,4.131,0,0,1,.832,0,4.209,4.209,0,0,1,.795.216,4.1,4.1,0,0,1,.686.4c-.028-.023-.054-.044-.082-.065l.188.146-.1-.079a4.361,4.361,0,0,1,.56.56c-.026-.035-.051-.069-.079-.1l.146.188c-.021-.028-.044-.056-.067-.084a4.118,4.118,0,0,1,.4.688,4.272,4.272,0,0,1,.212.765C1413.171,239.984,1413.143,240.472,1413.143,240.944Z" fill="#fff"/>
      <g id="Group_1394" data-name="Group 1394">
        <path id="Path_991" data-name="Path 991" d="M1532.29,156.1a4.569,4.569,0,0,0-4.569-4.568h-1.3a4.569,4.569,0,0,0-4.569,4.568V157.4h10.443Z" fill="#fff"/>
        <path id="Path_992" data-name="Path 992" d="M1527.069,145a2.61,2.61,0,1,1-2.611,2.611A2.611,2.611,0,0,1,1527.069,145Z" fill="#fff"/>
      </g>
      <g id="Group_1395" data-name="Group 1395">
        <path id="Path_993" data-name="Path 993" d="M1628.582,263a4.564,4.564,0,0,1,4.011,2.388h9.235l2.172,1.955-2.823,2.388-1.3-1.3-1.3,1.3-1.3-1.3-1.3,1.3h-3.372a4.56,4.56,0,1,1-4.011-6.731Zm-1.52,3.257a1.3,1.3,0,1,0,1.3,1.3A1.3,1.3,0,0,0,1627.062,266.257Z" fill="#fff"/>
      </g>
      <path id="Path_994" data-name="Path 994" d="M1622.774,356.555a15.523,15.523,0,0,0-15.523-15.523h-1.195a15.519,15.519,0,0,0-2.886,30.768l3.169,5.057,3.72-5.045A15.518,15.518,0,0,0,1622.774,356.555Z" fill="#fcd203"/>
      <g id="Group_1396" data-name="Group 1396">
        <path id="Path_995" data-name="Path 995" d="M1605.913,359.135h1.482a.456.456,0,0,0,.456-.456l.912-10.263a.456.456,0,0,0-.456-.456H1605a.456.456,0,0,0-.456.456l.912,10.263A.456.456,0,0,0,1605.913,359.135Z" fill="none" stroke="#fff" stroke-miterlimit="10" stroke-width="1"/>
        <path id="Path_996" data-name="Path 996" d="M1606.654,360.7a2.223,2.223,0,1,0,2.223,2.224A2.224,2.224,0,0,0,1606.654,360.7Z" fill="none" stroke="#fff" stroke-miterlimit="10" stroke-width="1"/>
      </g>
      <g id="Group_1397" data-name="Group 1397">
        <path id="Path_997" data-name="Path 997" d="M1653.324,414.226a1.408,1.408,0,0,1-1-.414l-7.776-7.776a1.413,1.413,0,1,1,2-2l7.776,7.776a1.413,1.413,0,0,1-1,2.412Z" fill="#ececec"/>
        <path id="Path_998" data-name="Path 998" d="M1645.548,414.226a1.413,1.413,0,0,1-1-2.412l7.776-7.776a1.413,1.413,0,0,1,2,2l-7.776,7.776A1.409,1.409,0,0,1,1645.548,414.226Z" fill="#ececec"/>
      </g>
    </g>
  </g>
</svg>
