<svg xmlns="http://www.w3.org/2000/svg" xmlns:xlink="http://www.w3.org/1999/xlink" width="266" height="390.726" viewBox="0 0 266 390.726">
  <defs>
    <clipPath id="clip-path">
      <path id="Path_910" data-name="Path 910" d="M1677.523,705.939l15.682-9.113,9.774,5.643-15.682,9.114Z" transform="translate(-1677.523 -696.825)" fill="none"/>
    </clipPath>
    <clipPath id="clip-path-2">
      <path id="Path_920" data-name="Path 920" d="M1615.2,725.671l15.682-9.113,9.774,5.643-15.682,9.113Z" transform="translate(-1615.197 -716.558)" fill="none"/>
    </clipPath>
    <clipPath id="clip-path-3">
      <path id="Path_929" data-name="Path 929" d="M1553.843,735.538l15.682-9.114,9.774,5.643-15.682,9.114Z" transform="translate(-1553.843 -726.424)" fill="none"/>
    </clipPath>
  </defs>
  <g id="Group_1410" data-name="Group 1410" transform="translate(-1377.713 -627)">
    <ellipse id="Ellipse_60" data-name="Ellipse 60" cx="133" cy="132.5" rx="133" ry="132.5" transform="translate(1377.713 627)" fill="#f9f8f1"/>
    <g id="Group_1409" data-name="Group 1409" transform="translate(1403.583 710.146)">
      <g id="Group_1347" data-name="Group 1347" transform="translate(98.88 251.164)">
        <g id="Group_1328" data-name="Group 1328" transform="translate(0 37.004)" style="mix-blend-mode: multiply;isolation: isolate">
          <path id="Path_895" data-name="Path 895" d="M1694.392,744.84c-8.772-3.787-22.98-3.787-31.695,0-8.733,3.8-8.669,9.942.1,13.729s22.963,3.794,31.7,0c8.714-3.787,8.668-9.942-.1-13.729" transform="translate(-1656.185 -741.999)" fill="#d9e4f4"/>
        </g>
        <g id="Group_1346" data-name="Group 1346" transform="translate(14.758)">
          <g id="Group_1342" data-name="Group 1342">
            <g id="Group_1330" data-name="Group 1330" transform="translate(0 31.551)">
              <path id="Path_896" data-name="Path 896" d="M1704.7,746.094c0,.146-.024.293-.037.439s-.026.317-.054.474c-.024.129-.063.256-.1.384-.039.15-.075.3-.129.449-.043.123-.1.245-.154.367-.068.156-.136.312-.219.466-.061.113-.134.224-.2.335-.109.177-.224.352-.352.524-.076.1-.159.2-.242.3a8.686,8.686,0,0,1-.636.684c-.084.082-.161.165-.25.245-.143.13-.3.254-.459.38-.139.111-.273.225-.423.333-.17.123-.356.241-.539.36s-.369.249-.572.367a15.691,15.691,0,0,1-1.417.717c-.141.064-.285.123-.429.183q-.576.241-1.181.448c-.144.049-.285.1-.431.148-.255.08-.516.15-.778.221-.2.054-.388.11-.585.158-.275.066-.555.122-.835.178-.188.038-.374.081-.564.114-.563.1-1.133.177-1.708.238-.178.018-.356.03-.533.044-.338.029-.676.053-1.016.068-.217.01-.434.014-.652.018-.274.006-.548.008-.823,0q-.344,0-.688-.018-.381-.016-.761-.042c-.233-.016-.464-.035-.695-.058q-.377-.036-.75-.084c-.225-.029-.449-.06-.672-.1-.267-.041-.532-.088-.8-.138-.209-.039-.417-.081-.624-.126-.315-.069-.624-.147-.932-.229-.173-.046-.346-.089-.516-.138-.552-.161-1.091-.341-1.613-.544-.073-.028-.141-.061-.213-.09a16.339,16.339,0,0,1-2.037-.976,8.675,8.675,0,0,1-4.155-4.518,5.229,5.229,0,0,1-.274-1.672l-.016,5.651c-.006,2.24,1.471,4.483,4.428,6.19a16.212,16.212,0,0,0,2.036.975c.046.019.086.046.132.064.027.01.056.018.083.028.521.2,1.06.383,1.612.544.045.014.085.031.13.044.125.036.257.061.385.094.308.082.617.16.932.229.084.018.165.044.249.062.123.026.25.042.375.065q.395.076.795.138c.107.017.212.041.32.056s.236.025.353.039c.249.032.5.059.749.084.121.011.239.03.359.04s.225.01.337.018q.38.026.761.041c.128.006.254.018.382.021.1,0,.2,0,.306,0,.275,0,.548,0,.823,0,.137,0,.273,0,.41,0,.081,0,.161-.013.241-.016.341-.015.678-.04,1.016-.068.136-.011.273-.014.409-.027.042,0,.082-.013.125-.017q.863-.091,1.708-.238l.083-.012c.164-.03.321-.07.484-.1.279-.057.557-.111.831-.177.2-.048.393-.106.59-.159.26-.07.52-.141.776-.221.054-.017.11-.03.165-.046.091-.03.174-.07.265-.1q.606-.206,1.182-.448c.144-.061.288-.119.428-.183a15.5,15.5,0,0,0,1.418-.717c.062-.035.122-.072.183-.108.138-.083.257-.173.388-.259.183-.119.37-.237.54-.361.149-.108.281-.221.42-.332.157-.125.318-.251.462-.381.029-.026.065-.05.093-.077.059-.054.1-.113.156-.167a8.52,8.52,0,0,0,.636-.684c.042-.051.1-.1.14-.15s.066-.1.1-.154c.13-.173.244-.348.353-.524.046-.074.106-.146.148-.221.021-.038.034-.076.054-.114.083-.154.151-.31.219-.467.039-.092.094-.182.128-.273.011-.031.016-.063.026-.094.053-.149.089-.3.129-.448.027-.1.067-.2.087-.3.006-.027,0-.054.01-.081.029-.158.04-.316.054-.474.009-.1.032-.2.035-.307,0-.044,0-.088,0-.132h0Z" transform="translate(-1674.644 -737.352)" fill="#fdb502"/>
              <g id="Group_1329" data-name="Group 1329" transform="translate(0.016)">
                <path id="Path_897" data-name="Path 897" d="M1700.271,737.724c5.887,3.4,5.919,8.909.07,12.308s-15.362,3.4-21.249,0-5.91-8.9-.061-12.3S1694.393,734.33,1700.271,737.724Z" transform="translate(-1674.664 -735.179)" fill="#fcd203"/>
              </g>
            </g>
            <g id="Group_1332" data-name="Group 1332" transform="translate(0 23.664)">
              <path id="Path_898" data-name="Path 898" d="M1704.7,736.227c0,.147-.024.293-.037.44s-.026.316-.054.473c-.024.129-.063.257-.1.385-.039.15-.075.3-.129.449-.043.123-.1.245-.154.368-.068.156-.136.312-.219.466-.061.113-.134.224-.2.335-.109.176-.224.351-.352.524-.076.1-.159.2-.242.3a8.687,8.687,0,0,1-.636.684c-.084.081-.161.165-.25.245-.143.129-.3.253-.459.379-.139.112-.273.225-.423.333-.17.124-.356.241-.539.36s-.369.249-.572.368a15.692,15.692,0,0,1-1.417.717c-.141.063-.285.122-.429.183q-.576.241-1.181.447c-.144.05-.285.1-.431.148-.255.081-.516.151-.778.222-.2.053-.388.11-.585.158-.275.066-.555.122-.835.178-.188.038-.374.082-.564.115q-.844.149-1.708.237c-.178.018-.356.03-.533.045-.338.028-.676.053-1.016.068-.217.009-.434.014-.652.018-.274,0-.548.007-.823,0q-.344,0-.688-.019-.381-.014-.761-.041c-.233-.016-.464-.035-.695-.058q-.377-.037-.75-.084-.337-.043-.672-.1-.4-.062-.8-.138c-.209-.04-.417-.081-.624-.126-.315-.069-.624-.147-.932-.229-.173-.046-.346-.089-.516-.138-.552-.161-1.091-.341-1.613-.544-.073-.028-.141-.062-.213-.09a16.325,16.325,0,0,1-2.037-.977,8.672,8.672,0,0,1-4.155-4.518,5.225,5.225,0,0,1-.274-1.672l-.016,5.652c-.006,2.24,1.471,4.483,4.428,6.19a16.224,16.224,0,0,0,2.036.976c.046.019.086.045.132.063.027.01.056.018.083.028.521.2,1.06.383,1.612.544.045.013.085.031.13.044.125.036.257.061.385.094.308.082.617.16.932.229.084.018.165.044.249.061.123.026.25.042.375.066q.395.076.795.138c.107.017.212.04.32.055s.236.025.353.04q.374.047.749.084c.121.011.239.03.359.04s.225.01.337.018q.38.026.761.041c.128.006.254.018.382.021.1,0,.2,0,.306,0,.275,0,.548,0,.823,0,.137,0,.273,0,.41,0,.081,0,.161-.013.241-.016.341-.015.678-.04,1.016-.068.136-.011.273-.014.409-.027.042,0,.082-.013.125-.018q.863-.09,1.708-.237c.027-.006.056-.007.083-.012.164-.03.321-.07.484-.1.279-.057.557-.112.831-.177.2-.049.393-.106.59-.159.26-.071.52-.141.776-.221.054-.017.11-.03.165-.047.091-.03.174-.07.265-.1q.606-.206,1.182-.448c.144-.06.288-.119.428-.182a15.705,15.705,0,0,0,1.418-.717l.183-.109c.138-.082.257-.173.388-.258.183-.119.37-.237.54-.361.149-.108.281-.221.42-.332.157-.126.318-.251.462-.381.029-.026.065-.05.093-.077.059-.054.1-.113.156-.168a8.53,8.53,0,0,0,.636-.684c.042-.05.1-.1.14-.149s.066-.1.1-.154c.13-.173.244-.348.353-.524.046-.074.106-.146.148-.22.021-.038.034-.077.054-.114.083-.154.151-.31.219-.466.039-.092.094-.182.128-.274.011-.03.016-.062.026-.094.053-.149.089-.3.129-.448.027-.1.067-.2.087-.3.006-.027,0-.054.01-.082.029-.157.04-.315.054-.473.009-.1.032-.2.035-.308,0-.044,0-.088,0-.132h0Z" transform="translate(-1674.644 -727.486)" fill="#fdb502"/>
              <g id="Group_1331" data-name="Group 1331" transform="translate(0.016)">
                <path id="Path_899" data-name="Path 899" d="M1700.271,727.858c5.887,3.4,5.919,8.909.07,12.308s-15.362,3.4-21.249,0-5.91-8.9-.061-12.3S1694.393,724.464,1700.271,727.858Z" transform="translate(-1674.664 -725.313)" fill="#fcd203"/>
              </g>
            </g>
            <g id="Group_1334" data-name="Group 1334" transform="translate(0 15.776)">
              <path id="Path_900" data-name="Path 900" d="M1704.7,726.361c0,.146-.024.293-.037.44s-.026.316-.054.473c-.024.129-.063.257-.1.385-.039.15-.075.3-.129.448-.043.123-.1.245-.154.367-.068.157-.136.313-.219.467-.061.113-.134.223-.2.335-.109.176-.224.351-.352.524-.076.1-.159.2-.242.3a8.81,8.81,0,0,1-.636.684c-.084.082-.161.166-.25.245-.143.13-.3.254-.459.38-.139.112-.273.225-.423.333-.17.123-.356.241-.539.36s-.369.249-.572.368a15.514,15.514,0,0,1-1.417.716c-.141.064-.285.123-.429.183q-.576.242-1.181.448c-.144.049-.285.1-.431.148-.255.08-.516.151-.778.222-.2.053-.388.11-.585.158-.275.066-.555.121-.835.178-.188.038-.374.081-.564.114-.563.1-1.133.178-1.708.238-.178.018-.356.03-.533.045-.338.028-.676.053-1.016.067-.217.01-.434.014-.652.018-.274,0-.548.007-.823,0-.229,0-.459-.01-.688-.019-.254-.01-.508-.023-.761-.041-.233-.016-.464-.036-.695-.058q-.377-.036-.75-.084c-.225-.028-.449-.06-.672-.094-.267-.042-.532-.089-.8-.138-.209-.04-.417-.082-.624-.126-.315-.069-.624-.147-.932-.229-.173-.046-.346-.089-.516-.138-.552-.161-1.091-.341-1.613-.544-.073-.029-.141-.062-.213-.09a16.343,16.343,0,0,1-2.037-.977,8.676,8.676,0,0,1-4.155-4.518,5.226,5.226,0,0,1-.274-1.673l-.016,5.652c-.006,2.239,1.471,4.483,4.428,6.19a16.335,16.335,0,0,0,2.036.976c.046.018.086.045.132.063.027.01.056.018.083.028.521.2,1.06.383,1.612.544.045.013.085.031.13.044.125.035.257.06.385.094.308.081.617.159.932.229.084.018.165.043.249.061.123.026.25.042.375.066.263.05.528.1.795.138.107.016.212.04.32.055s.236.025.353.039q.374.048.749.084c.121.012.239.03.359.04s.225.01.337.018c.253.018.507.03.761.041.128,0,.254.017.382.02.1,0,.2,0,.306,0,.275,0,.548,0,.823,0,.137,0,.273,0,.41,0,.081,0,.161-.012.241-.016.341-.014.678-.039,1.016-.067.136-.012.273-.014.409-.027.042,0,.082-.014.125-.018q.863-.091,1.708-.238c.027,0,.056-.006.083-.011.164-.03.321-.071.484-.1.279-.056.557-.111.831-.177.2-.048.393-.1.59-.158.26-.071.52-.141.776-.221.054-.018.11-.03.165-.047.091-.03.174-.07.265-.1q.606-.206,1.182-.448c.144-.06.288-.119.428-.182a15.722,15.722,0,0,0,1.418-.717l.183-.109c.138-.083.257-.173.388-.258.183-.12.37-.237.54-.361.149-.109.281-.221.42-.332.157-.126.318-.252.462-.381.029-.026.065-.05.093-.077.059-.054.1-.113.156-.168a8.529,8.529,0,0,0,.636-.684c.042-.051.1-.1.14-.15s.066-.1.1-.154c.13-.173.244-.348.353-.524.046-.074.106-.146.148-.221.021-.037.034-.076.054-.113.083-.154.151-.31.219-.467.039-.091.094-.182.128-.273.011-.031.016-.062.026-.094.053-.149.089-.3.129-.448.027-.1.067-.2.087-.3.006-.026,0-.054.01-.081.029-.157.04-.316.054-.474.009-.1.032-.2.035-.307,0-.044,0-.088,0-.132h0Z" transform="translate(-1674.644 -717.62)" fill="#fdb502"/>
              <g id="Group_1333" data-name="Group 1333" transform="translate(0.016)">
                <path id="Path_901" data-name="Path 901" d="M1700.271,717.992c5.887,3.4,5.919,8.909.07,12.308s-15.362,3.4-21.249,0-5.91-8.9-.061-12.3S1694.393,714.6,1700.271,717.992Z" transform="translate(-1674.664 -715.447)" fill="#fcd203"/>
              </g>
            </g>
            <g id="Group_1336" data-name="Group 1336" transform="translate(0 7.888)">
              <path id="Path_902" data-name="Path 902" d="M1704.7,716.5c0,.146-.024.293-.037.439s-.026.317-.054.474c-.024.129-.063.256-.1.385-.039.149-.075.3-.129.448-.043.123-.1.245-.154.367-.068.156-.136.312-.219.466-.061.113-.134.224-.2.335-.109.177-.224.352-.352.524-.076.1-.159.2-.242.3a8.676,8.676,0,0,1-.636.684c-.084.082-.161.166-.25.245-.143.129-.3.254-.459.38-.139.111-.273.225-.423.333-.17.123-.356.241-.539.36s-.369.249-.572.367a15.707,15.707,0,0,1-1.417.717c-.141.064-.285.123-.429.183q-.576.241-1.181.448c-.144.049-.285.1-.431.148-.255.08-.516.15-.778.221-.2.054-.388.11-.585.158-.275.066-.555.122-.835.178-.188.038-.374.081-.564.114q-.844.149-1.708.238c-.178.018-.356.03-.533.044-.338.029-.676.054-1.016.068-.217.01-.434.014-.652.018-.274.006-.548.008-.823,0q-.344,0-.688-.018-.381-.016-.761-.041c-.233-.017-.464-.036-.695-.058q-.377-.036-.75-.084c-.225-.029-.449-.06-.672-.1-.267-.041-.532-.088-.8-.138-.209-.039-.417-.081-.624-.126-.315-.069-.624-.147-.932-.229-.173-.046-.346-.089-.516-.138-.552-.161-1.091-.341-1.613-.544-.073-.028-.141-.061-.213-.09a16.211,16.211,0,0,1-2.037-.976,8.675,8.675,0,0,1-4.155-4.518,5.229,5.229,0,0,1-.274-1.672l-.016,5.651c-.006,2.24,1.471,4.483,4.428,6.19a16.327,16.327,0,0,0,2.036.976c.046.018.086.045.132.063.027.01.056.018.083.028.521.2,1.06.383,1.612.544.045.014.085.031.13.044.125.036.257.061.385.094.308.082.617.16.932.229.084.018.165.044.249.062.123.026.25.042.375.065q.395.076.795.138c.107.017.212.041.32.056s.236.025.353.039c.249.032.5.059.749.084.121.011.239.03.359.04s.225.01.337.018c.253.018.507.031.761.042.128,0,.254.017.382.02.1,0,.2,0,.306,0,.275,0,.548,0,.823,0,.137,0,.273,0,.41,0,.081,0,.161-.013.241-.016.341-.015.678-.04,1.016-.068.136-.011.273-.014.409-.027.042,0,.082-.013.125-.017q.863-.091,1.708-.238c.027,0,.056-.006.083-.012.164-.03.321-.07.484-.1.279-.056.557-.111.831-.177.2-.048.393-.106.59-.159.26-.07.52-.141.776-.221.054-.017.11-.03.165-.046.091-.03.174-.07.265-.1q.606-.206,1.182-.448c.144-.061.288-.119.428-.183a15.517,15.517,0,0,0,1.418-.717c.062-.035.122-.072.183-.108.138-.083.257-.173.388-.259.183-.119.37-.237.54-.361.149-.108.281-.22.42-.331.157-.126.318-.252.462-.382.029-.026.065-.05.093-.077.059-.054.1-.113.156-.167a8.52,8.52,0,0,0,.636-.684c.042-.051.1-.1.14-.15s.066-.1.1-.154c.13-.173.244-.348.353-.524.046-.074.106-.146.148-.221.021-.038.034-.076.054-.114.083-.154.151-.31.219-.467.039-.092.094-.181.128-.273.011-.031.016-.063.026-.094.053-.149.089-.3.129-.448.027-.1.067-.2.087-.3.006-.027,0-.054.01-.081.029-.158.04-.316.054-.474.009-.1.032-.2.035-.307,0-.044,0-.088,0-.132h0Z" transform="translate(-1674.644 -707.753)" fill="#fdb502"/>
              <g id="Group_1335" data-name="Group 1335" transform="translate(0.016)">
                <path id="Path_903" data-name="Path 903" d="M1700.271,708.125c5.887,3.4,5.919,8.909.07,12.308s-15.362,3.4-21.249,0-5.91-8.9-.061-12.3S1694.393,704.731,1700.271,708.125Z" transform="translate(-1674.664 -705.58)" fill="#fcd203"/>
              </g>
            </g>
            <g id="Group_1338" data-name="Group 1338">
              <path id="Path_904" data-name="Path 904" d="M1704.7,706.628c0,.147-.024.293-.037.44s-.026.316-.054.473c-.024.129-.063.257-.1.385-.039.15-.075.3-.129.448-.043.123-.1.245-.154.368-.068.156-.136.312-.219.466-.061.113-.134.224-.2.335-.109.176-.224.351-.352.524-.076.1-.159.2-.242.3a8.687,8.687,0,0,1-.636.684c-.084.082-.161.165-.25.245-.143.129-.3.253-.459.379-.139.112-.273.225-.423.333-.17.124-.356.241-.539.36s-.369.249-.572.368a15.692,15.692,0,0,1-1.417.717c-.141.063-.285.122-.429.183q-.576.241-1.181.447c-.144.05-.285.1-.431.148-.255.081-.516.151-.778.222-.2.053-.388.11-.585.158-.275.066-.555.122-.835.178-.188.038-.374.082-.564.115q-.844.149-1.708.237c-.178.018-.356.03-.533.045-.338.028-.676.053-1.016.068-.217.009-.434.014-.652.018q-.411.008-.823,0-.344,0-.688-.019-.381-.014-.761-.041c-.233-.016-.464-.035-.695-.058q-.377-.037-.75-.084-.337-.043-.672-.1-.4-.062-.8-.138c-.209-.04-.417-.081-.624-.126-.315-.069-.624-.147-.932-.229-.173-.046-.346-.089-.516-.138-.552-.161-1.091-.341-1.613-.544-.073-.028-.141-.062-.213-.09a16.223,16.223,0,0,1-2.037-.977,8.672,8.672,0,0,1-4.155-4.518,5.224,5.224,0,0,1-.274-1.672l-.016,5.652c-.006,2.24,1.471,4.483,4.428,6.19a16.224,16.224,0,0,0,2.036.976c.046.019.086.045.132.063.027.01.056.018.083.028.521.2,1.06.383,1.612.544.045.013.085.031.13.044.125.036.257.061.385.094.308.082.617.16.932.229.084.018.165.044.249.061.123.026.25.042.375.066q.395.076.795.138c.107.017.212.04.32.056s.236.024.353.039q.374.047.749.084c.121.011.239.03.359.04s.225.01.337.018q.38.026.761.041c.128.006.254.018.382.021.1,0,.2,0,.306,0,.275,0,.548,0,.823,0,.137,0,.273,0,.41,0,.081,0,.161-.013.241-.016.341-.015.678-.04,1.016-.068.136-.011.273-.014.409-.027.042,0,.082-.013.125-.018q.863-.09,1.708-.237l.083-.012c.164-.03.321-.07.484-.1.279-.057.557-.112.831-.177.2-.049.393-.106.59-.159.26-.071.52-.141.776-.221.054-.017.11-.03.165-.047.091-.03.174-.07.265-.1q.606-.206,1.182-.448c.144-.06.288-.119.428-.182a15.705,15.705,0,0,0,1.418-.717l.183-.108c.138-.083.257-.174.388-.259.183-.119.37-.237.54-.361.149-.108.281-.221.42-.332.157-.126.318-.251.462-.381.029-.026.065-.05.093-.077.059-.054.1-.113.156-.168a8.648,8.648,0,0,0,.636-.684c.042-.051.1-.1.14-.15s.066-.1.1-.154c.13-.173.244-.348.353-.524.046-.074.106-.146.148-.22.021-.038.034-.076.054-.113.083-.155.151-.311.219-.467.039-.092.094-.182.128-.274.011-.03.016-.062.026-.094.053-.149.089-.3.129-.448.027-.1.067-.2.087-.3.006-.027,0-.054.01-.082.029-.158.04-.315.054-.473.009-.1.032-.2.035-.308,0-.044,0-.088,0-.132h0Z" transform="translate(-1674.644 -697.887)" fill="#f2ab66"/>
              <g id="Group_1337" data-name="Group 1337" transform="translate(0.016)">
                <path id="Path_905" data-name="Path 905" d="M1700.271,698.259c5.887,3.4,5.919,8.909.07,12.308s-15.362,3.4-21.249,0-5.91-8.9-.061-12.3S1694.393,694.865,1700.271,698.259Z" transform="translate(-1674.664 -695.714)" fill="#ffbf82"/>
              </g>
            </g>
            <g id="Group_1341" data-name="Group 1341">
              <path id="Path_906" data-name="Path 906" d="M1704.7,706.628c0,.147-.024.293-.037.44s-.026.316-.054.473c-.024.129-.063.257-.1.385-.039.15-.075.3-.129.448-.043.123-.1.245-.154.368-.068.156-.136.312-.219.466-.061.113-.134.224-.2.335-.109.176-.224.351-.352.524-.076.1-.159.2-.242.3a8.687,8.687,0,0,1-.636.684c-.084.082-.161.165-.25.245-.143.129-.3.253-.459.379-.139.112-.273.225-.423.333-.17.124-.356.241-.539.36s-.369.249-.572.368a15.692,15.692,0,0,1-1.417.717c-.141.063-.285.122-.429.183q-.576.241-1.181.447c-.144.05-.285.1-.431.148-.255.081-.516.151-.778.222-.2.053-.388.11-.585.158-.275.066-.555.122-.835.178-.188.038-.374.082-.564.115q-.844.149-1.708.237c-.178.018-.356.03-.533.045-.338.028-.676.053-1.016.068-.217.009-.434.014-.652.018q-.411.008-.823,0-.344,0-.688-.019-.381-.014-.761-.041c-.233-.016-.464-.035-.695-.058q-.377-.037-.75-.084-.337-.043-.672-.1-.4-.062-.8-.138c-.209-.04-.417-.081-.624-.126-.315-.069-.624-.147-.932-.229-.173-.046-.346-.089-.516-.138-.552-.161-1.091-.341-1.613-.544-.073-.028-.141-.062-.213-.09a16.223,16.223,0,0,1-2.037-.977,8.672,8.672,0,0,1-4.155-4.518,5.224,5.224,0,0,1-.274-1.672l-.016,5.652c-.006,2.24,1.471,4.483,4.428,6.19a16.224,16.224,0,0,0,2.036.976c.046.019.086.045.132.063.027.01.056.018.083.028.521.2,1.06.383,1.612.544.045.013.085.031.13.044.125.036.257.061.385.094.308.082.617.16.932.229.084.018.165.044.249.061.123.026.25.042.375.066q.395.076.795.138c.107.017.212.04.32.056s.236.024.353.039q.374.047.749.084c.121.011.239.03.359.04s.225.01.337.018q.38.026.761.041c.128.006.254.018.382.021.1,0,.2,0,.306,0,.275,0,.548,0,.823,0,.137,0,.273,0,.41,0,.081,0,.161-.013.241-.016.341-.015.678-.04,1.016-.068.136-.011.273-.014.409-.027.042,0,.082-.013.125-.018q.863-.09,1.708-.237l.083-.012c.164-.03.321-.07.484-.1.279-.057.557-.112.831-.177.2-.049.393-.106.59-.159.26-.071.52-.141.776-.221.054-.017.11-.03.165-.047.091-.03.174-.07.265-.1q.606-.206,1.182-.448c.144-.06.288-.119.428-.182a15.705,15.705,0,0,0,1.418-.717l.183-.108c.138-.083.257-.174.388-.259.183-.119.37-.237.54-.361.149-.108.281-.221.42-.332.157-.126.318-.251.462-.381.029-.026.065-.05.093-.077.059-.054.1-.113.156-.168a8.648,8.648,0,0,0,.636-.684c.042-.051.1-.1.14-.15s.066-.1.1-.154c.13-.173.244-.348.353-.524.046-.074.106-.146.148-.22.021-.038.034-.076.054-.113.083-.155.151-.311.219-.467.039-.092.094-.182.128-.274.011-.03.016-.062.026-.094.053-.149.089-.3.129-.448.027-.1.067-.2.087-.3.006-.027,0-.054.01-.082.029-.158.04-.315.054-.473.009-.1.032-.2.035-.308,0-.044,0-.088,0-.132h0Z" transform="translate(-1674.644 -697.887)" fill="#fdb502"/>
              <g id="Group_1339" data-name="Group 1339" transform="translate(0.016)">
                <path id="Path_907" data-name="Path 907" d="M1700.271,698.259c5.887,3.4,5.919,8.909.07,12.308s-15.362,3.4-21.249,0-5.91-8.9-.061-12.3S1694.393,694.865,1700.271,698.259Z" transform="translate(-1674.664 -695.714)" fill="#ffbf82"/>
              </g>
              <g id="Group_1340" data-name="Group 1340" transform="translate(0.016)">
                <path id="Path_908" data-name="Path 908" d="M1700.271,698.259c5.887,3.4,5.919,8.909.07,12.308s-15.362,3.4-21.249,0-5.91-8.9-.061-12.3S1694.393,694.865,1700.271,698.259Z" transform="translate(-1674.664 -695.714)" fill="#fcd203"/>
              </g>
            </g>
          </g>
          <g id="Group_1345" data-name="Group 1345" transform="translate(2.302 0.888)">
            <g id="Group_1344" data-name="Group 1344" style="isolation: isolate">
              <g id="Group_1343" data-name="Group 1343" clip-path="url(#clip-path)">
                <path id="Path_909" data-name="Path 909" d="M1688.248,707.561l2.3-1.339c.461.562.632,1.027.051,1.365a2.77,2.77,0,0,1-2.356-.026m3.49-3.977c-.5-.563-.685-1.038-.1-1.375a2.891,2.891,0,0,1,2.47,0l-2.366,1.375m8.12-2.771-1.682-.971-1.847,1.073c-2.955-1.359-5.769-1.222-7.538-.194-2.383,1.385-.918,2.955.493,4.288l-2.789,1.62a5.161,5.161,0,0,1-2.071-2.571l-2.953.649a6.247,6.247,0,0,0,2.842,3.19l-1.82,1.058,1.682.971,1.873-1.089c2.955,1.339,5.725,1.206,7.466.194,2.348-1.365.91-2.909-.509-4.237l2.832-1.646a5.227,5.227,0,0,1,1.7,1.988l2.9-.71a6.357,6.357,0,0,0-2.388-2.561l1.812-1.053" transform="translate(-1678.315 -697.43)" fill="#fff" opacity="0.5"/>
              </g>
            </g>
          </g>
        </g>
      </g>
      <g id="Group_1361" data-name="Group 1361" transform="translate(49.44 266.94)">
        <g id="Group_1348" data-name="Group 1348" transform="translate(0 21.228)" style="mix-blend-mode: multiply;isolation: isolate">
          <path id="Path_911" data-name="Path 911" d="M1632.553,744.84c-8.773-3.787-22.98-3.787-31.7,0-8.733,3.8-8.669,9.942.1,13.729s22.963,3.794,31.7,0c8.715-3.787,8.669-9.942-.1-13.729" transform="translate(-1594.345 -741.999)" fill="#d9e4f4"/>
        </g>
        <g id="Group_1360" data-name="Group 1360" transform="translate(14.369)">
          <g id="Group_1356" data-name="Group 1356">
            <g id="Group_1350" data-name="Group 1350" transform="translate(0 15.775)">
              <path id="Path_912" data-name="Path 912" d="M1642.377,746.094c0,.146-.024.293-.038.439s-.025.317-.054.474c-.024.129-.063.256-.1.384-.039.15-.076.3-.129.449-.044.123-.1.245-.155.367-.068.156-.135.312-.218.466-.061.113-.134.224-.2.335-.109.177-.224.352-.353.524-.077.1-.159.2-.243.3a8.7,8.7,0,0,1-.636.684c-.084.082-.161.165-.25.245-.143.13-.3.254-.46.38-.139.111-.273.225-.422.333-.17.123-.357.241-.539.36s-.369.249-.572.367a15.661,15.661,0,0,1-1.417.717c-.141.064-.285.123-.429.183q-.576.241-1.181.448c-.144.049-.285.1-.431.148-.256.08-.517.15-.779.221-.194.054-.387.11-.585.158-.274.066-.555.122-.834.178-.189.038-.375.081-.565.114-.562.1-1.133.177-1.708.238-.177.018-.355.03-.533.044-.337.029-.676.053-1.015.068-.217.01-.435.014-.652.018-.274.006-.548.008-.822,0q-.344,0-.688-.018-.381-.016-.762-.042-.348-.024-.695-.058c-.25-.024-.5-.052-.749-.084-.225-.029-.449-.06-.672-.1-.267-.041-.531-.088-.8-.138-.209-.039-.417-.081-.624-.126-.314-.069-.624-.147-.932-.229-.172-.046-.345-.089-.515-.138q-.829-.241-1.613-.544c-.072-.028-.141-.061-.212-.09a16.361,16.361,0,0,1-2.038-.976,8.67,8.67,0,0,1-4.154-4.518,5.229,5.229,0,0,1-.274-1.672l-.016,5.651c-.006,2.24,1.471,4.483,4.427,6.19a16.222,16.222,0,0,0,2.036.975c.047.019.086.046.132.064.026.01.056.018.082.028.522.2,1.06.383,1.613.544.044.014.085.031.13.044.126.036.258.061.385.094.308.082.617.16.932.229.085.018.165.044.25.062.123.026.25.042.374.065.264.05.528.1.8.138.107.017.212.041.32.056s.235.025.353.039c.249.032.5.059.749.084.12.011.238.03.359.04s.224.01.336.018c.254.018.507.031.762.041.127.006.254.018.382.021.1,0,.2,0,.306,0,.274,0,.548,0,.822,0,.137,0,.273,0,.41,0,.081,0,.161-.013.242-.016.34-.015.678-.04,1.016-.068.136-.011.273-.014.408-.027.042,0,.083-.013.125-.017.576-.061,1.146-.139,1.708-.238l.083-.012c.164-.03.322-.07.485-.1.278-.057.556-.111.83-.177.2-.048.393-.106.59-.159.261-.07.521-.141.776-.221.054-.017.111-.03.165-.046.091-.03.174-.07.265-.1q.606-.206,1.182-.448c.143-.061.287-.119.428-.183a15.345,15.345,0,0,0,1.417-.717c.062-.035.123-.072.184-.108.138-.083.256-.173.387-.259.184-.119.371-.237.541-.361.148-.108.281-.221.42-.332.157-.125.317-.251.462-.381.029-.026.064-.05.093-.077.058-.054.1-.113.156-.167a8.564,8.564,0,0,0,.636-.684c.042-.051.1-.1.14-.15s.066-.1.1-.154c.13-.173.244-.348.353-.524.046-.074.106-.146.149-.221.021-.038.033-.076.054-.114.083-.154.15-.31.218-.467.04-.092.094-.182.128-.273.012-.031.016-.063.027-.094.053-.149.089-.3.129-.448.026-.1.067-.2.087-.3.006-.027,0-.054.01-.081.029-.158.04-.316.054-.474.01-.1.033-.2.035-.307,0-.044,0-.088,0-.132h0Z" transform="translate(-1612.318 -737.352)" fill="#fdb502"/>
              <g id="Group_1349" data-name="Group 1349" transform="translate(0.016)">
                <path id="Path_913" data-name="Path 913" d="M1637.945,737.724c5.886,3.4,5.918,8.909.069,12.308s-15.361,3.4-21.249,0-5.909-8.9-.06-12.3S1632.067,734.33,1637.945,737.724Z" transform="translate(-1612.338 -735.179)" fill="#fcd203"/>
              </g>
            </g>
            <g id="Group_1352" data-name="Group 1352" transform="translate(0 7.888)">
              <path id="Path_914" data-name="Path 914" d="M1642.377,736.227c0,.147-.024.293-.038.44s-.025.316-.054.473c-.024.129-.063.257-.1.385-.039.15-.076.3-.129.449-.044.123-.1.245-.155.368-.068.156-.135.312-.218.466-.061.113-.134.224-.2.335-.109.176-.224.351-.353.524-.077.1-.159.2-.243.3a8.7,8.7,0,0,1-.636.684c-.084.081-.161.165-.25.245-.143.129-.3.253-.46.379-.139.112-.273.225-.422.333-.17.124-.357.241-.539.36s-.369.249-.572.368a15.662,15.662,0,0,1-1.417.717c-.141.063-.285.122-.429.183q-.576.241-1.181.447c-.144.05-.285.1-.431.148-.256.081-.517.151-.779.222-.194.053-.387.11-.585.158-.274.066-.555.122-.834.178-.189.038-.375.082-.565.115-.562.1-1.133.177-1.708.237-.177.018-.355.03-.533.045-.337.028-.676.053-1.015.068-.217.009-.435.014-.652.018-.274,0-.548.007-.822,0q-.344,0-.688-.019-.381-.014-.762-.041-.348-.024-.695-.058c-.25-.025-.5-.053-.749-.084q-.338-.043-.672-.1c-.267-.042-.531-.088-.8-.138-.209-.04-.417-.081-.624-.126-.314-.069-.624-.147-.932-.229-.172-.046-.345-.089-.515-.138-.552-.161-1.091-.341-1.613-.544-.072-.028-.141-.062-.212-.09a16.347,16.347,0,0,1-2.038-.977,8.667,8.667,0,0,1-4.154-4.518,5.225,5.225,0,0,1-.274-1.672l-.016,5.652c-.006,2.24,1.471,4.483,4.427,6.19a16.234,16.234,0,0,0,2.036.976c.047.019.086.045.132.063.026.01.056.018.082.028.522.2,1.06.383,1.613.544.044.013.085.031.13.044.126.036.258.061.385.094.308.082.617.16.932.229.085.018.165.044.25.061.123.026.25.042.374.066.264.05.528.1.8.138.107.017.212.04.32.055s.235.025.353.04q.373.047.749.084c.12.011.238.03.359.04s.224.01.336.018c.254.018.507.031.762.041.127.006.254.018.382.021.1,0,.2,0,.306,0,.274,0,.548,0,.822,0,.137,0,.273,0,.41,0,.081,0,.161-.013.242-.016.34-.015.678-.04,1.016-.068.136-.011.273-.014.408-.027.042,0,.083-.013.125-.018.576-.06,1.146-.138,1.708-.237.028-.006.056-.007.083-.012.164-.03.322-.07.485-.1.278-.057.556-.112.83-.177.2-.049.393-.106.59-.159.261-.071.521-.141.776-.221.054-.017.111-.03.165-.047.091-.03.174-.07.265-.1q.606-.206,1.182-.448c.143-.06.287-.119.428-.182a15.545,15.545,0,0,0,1.417-.717l.184-.109c.138-.082.256-.173.387-.258.184-.119.371-.237.541-.361.148-.108.281-.221.42-.332.157-.126.317-.251.462-.381.029-.026.064-.05.093-.077.058-.054.1-.113.156-.168a8.575,8.575,0,0,0,.636-.684c.042-.05.1-.1.14-.149s.066-.1.1-.154c.13-.173.244-.348.353-.524.046-.074.106-.146.149-.22.021-.038.033-.077.054-.114.083-.154.15-.31.218-.466.04-.092.094-.182.128-.274.012-.03.016-.062.027-.094.053-.149.089-.3.129-.448.026-.1.067-.2.087-.3.006-.027,0-.054.01-.082.029-.157.04-.315.054-.473.01-.1.033-.2.035-.308,0-.044,0-.088,0-.132h0Z" transform="translate(-1612.318 -727.486)" fill="#fdb502"/>
              <g id="Group_1351" data-name="Group 1351" transform="translate(0.016)">
                <path id="Path_915" data-name="Path 915" d="M1637.945,727.858c5.886,3.4,5.918,8.909.069,12.308s-15.361,3.4-21.249,0-5.909-8.9-.06-12.3S1632.067,724.464,1637.945,727.858Z" transform="translate(-1612.338 -725.313)" fill="#fcd203"/>
              </g>
            </g>
            <g id="Group_1355" data-name="Group 1355">
              <path id="Path_916" data-name="Path 916" d="M1642.377,726.361c0,.146-.024.293-.038.44s-.025.316-.054.473c-.024.129-.063.257-.1.385-.039.15-.076.3-.129.448-.044.123-.1.245-.155.367-.068.157-.135.313-.218.467-.061.113-.134.223-.2.335-.109.176-.224.351-.353.524-.077.1-.159.2-.243.3a8.824,8.824,0,0,1-.636.684c-.084.082-.161.166-.25.245-.143.13-.3.254-.46.38-.139.112-.273.225-.422.333-.17.123-.357.241-.539.36s-.369.249-.572.368a15.484,15.484,0,0,1-1.417.716c-.141.064-.285.123-.429.183q-.576.242-1.181.448c-.144.049-.285.1-.431.148-.256.08-.517.151-.779.222-.194.053-.387.11-.585.158-.274.066-.555.121-.834.178-.189.038-.375.081-.565.114-.562.1-1.133.178-1.708.238-.177.018-.355.03-.533.045-.337.028-.676.053-1.015.067-.217.01-.435.014-.652.018-.274,0-.548.007-.822,0-.229,0-.459-.01-.688-.019-.254-.01-.509-.023-.762-.041-.232-.016-.464-.036-.695-.058-.25-.024-.5-.052-.749-.084-.225-.028-.449-.06-.672-.094-.267-.042-.531-.089-.8-.138-.209-.04-.417-.082-.624-.126-.314-.069-.624-.147-.932-.229-.172-.046-.345-.089-.515-.138-.552-.161-1.091-.341-1.613-.544-.072-.029-.141-.062-.212-.09a16.365,16.365,0,0,1-2.038-.977,8.671,8.671,0,0,1-4.154-4.518,5.226,5.226,0,0,1-.274-1.673l-.016,5.652c-.006,2.239,1.471,4.483,4.427,6.19a16.346,16.346,0,0,0,2.036.976c.047.018.086.045.132.063.026.01.056.018.082.028.522.2,1.06.383,1.613.544.044.013.085.031.13.044.126.035.258.06.385.094.308.081.617.159.932.229.085.018.165.043.25.061.123.026.25.042.374.066.264.05.528.1.8.138.107.016.212.04.32.055s.235.025.353.039q.373.048.749.084c.12.012.238.03.359.04s.224.01.336.018c.254.018.507.03.762.041.127,0,.254.017.382.02.1,0,.2,0,.306,0,.274,0,.548,0,.822,0,.137,0,.273,0,.41,0,.081,0,.161-.012.242-.016.34-.014.678-.039,1.016-.067.136-.012.273-.014.408-.027.042,0,.083-.014.125-.018.576-.061,1.146-.139,1.708-.238.028,0,.056-.006.083-.011.164-.03.322-.071.485-.1.278-.056.556-.111.83-.177.2-.048.393-.1.59-.158.261-.071.521-.141.776-.221.054-.018.111-.03.165-.047.091-.03.174-.07.265-.1q.606-.206,1.182-.448c.143-.06.287-.119.428-.182a15.561,15.561,0,0,0,1.417-.717l.184-.109c.138-.083.256-.173.387-.258.184-.12.371-.237.541-.361.148-.109.281-.221.42-.332.157-.126.317-.252.462-.381.029-.026.064-.05.093-.077.058-.054.1-.113.156-.168a8.574,8.574,0,0,0,.636-.684c.042-.051.1-.1.14-.15s.066-.1.1-.154c.13-.173.244-.348.353-.524.046-.074.106-.146.149-.221.021-.037.033-.076.054-.113.083-.154.15-.31.218-.467.04-.091.094-.182.128-.273.012-.031.016-.062.027-.094.053-.149.089-.3.129-.448.026-.1.067-.2.087-.3.006-.026,0-.054.01-.081.029-.157.04-.316.054-.474.01-.1.033-.2.035-.307,0-.044,0-.088,0-.132h0Z" transform="translate(-1612.318 -717.62)" fill="#fdb502"/>
              <g id="Group_1353" data-name="Group 1353" transform="translate(0.016)">
                <path id="Path_917" data-name="Path 917" d="M1637.945,717.992c5.886,3.4,5.918,8.909.069,12.308s-15.361,3.4-21.249,0-5.909-8.9-.06-12.3S1632.067,714.6,1637.945,717.992Z" transform="translate(-1612.338 -715.447)" fill="#ffbf82"/>
              </g>
              <g id="Group_1354" data-name="Group 1354" transform="translate(0.016)">
                <path id="Path_918" data-name="Path 918" d="M1637.945,717.992c5.886,3.4,5.918,8.909.069,12.308s-15.361,3.4-21.249,0-5.909-8.9-.06-12.3S1632.067,714.6,1637.945,717.992Z" transform="translate(-1612.338 -715.447)" fill="#fcd203"/>
              </g>
            </g>
          </g>
          <g id="Group_1359" data-name="Group 1359" transform="translate(2.301 0.888)">
            <g id="Group_1358" data-name="Group 1358" style="isolation: isolate">
              <g id="Group_1357" data-name="Group 1357" clip-path="url(#clip-path-2)">
                <path id="Path_919" data-name="Path 919" d="M1625.922,727.293l2.3-1.339c.462.563.632,1.027.052,1.365a2.77,2.77,0,0,1-2.356-.026m3.49-3.977c-.5-.562-.686-1.038-.1-1.374a2.891,2.891,0,0,1,2.47,0l-2.366,1.374m8.12-2.77-1.682-.971L1634,720.649c-2.955-1.36-5.769-1.222-7.537-.194-2.383,1.385-.919,2.954.492,4.288l-2.788,1.621a5.163,5.163,0,0,1-2.071-2.571l-2.953.649a6.244,6.244,0,0,0,2.841,3.189l-1.82,1.059,1.682.971,1.873-1.088c2.955,1.339,5.725,1.206,7.466.194,2.349-1.365.911-2.909-.509-4.237l2.833-1.646a5.217,5.217,0,0,1,1.7,1.988l2.9-.711a6.345,6.345,0,0,0-2.388-2.561l1.812-1.053" transform="translate(-1615.989 -717.163)" fill="#fff" opacity="0.5"/>
              </g>
            </g>
          </g>
        </g>
      </g>
      <g id="Group_1374" data-name="Group 1374" transform="translate(0 274.828)">
        <g id="Group_1362" data-name="Group 1362" transform="translate(0 13.34)" style="mix-blend-mode: multiply;isolation: isolate">
          <path id="Path_921" data-name="Path 921" d="M1570.713,744.84c-8.772-3.787-22.98-3.787-31.7,0-8.733,3.8-8.669,9.942.1,13.729s22.963,3.794,31.7,0c8.715-3.787,8.669-9.942-.1-13.729" transform="translate(-1532.505 -741.999)" fill="#d9e4f4"/>
        </g>
        <g id="Group_1373" data-name="Group 1373" transform="translate(14.759)">
          <g id="Group_1369" data-name="Group 1369">
            <g id="Group_1364" data-name="Group 1364" transform="translate(0 7.888)">
              <path id="Path_922" data-name="Path 922" d="M1581.024,746.094c0,.146-.024.293-.038.439s-.025.317-.054.474c-.024.129-.063.256-.1.384-.039.15-.076.3-.129.449-.044.123-.1.245-.155.367-.068.156-.135.312-.218.466-.061.113-.134.224-.2.335-.109.177-.224.352-.353.524-.077.1-.159.2-.243.3a8.676,8.676,0,0,1-.636.684c-.085.082-.161.165-.25.245-.143.13-.3.254-.46.38-.139.111-.273.225-.422.333-.169.123-.356.241-.54.36s-.369.249-.572.367a15.627,15.627,0,0,1-1.417.717c-.141.064-.285.123-.429.183q-.576.241-1.181.448c-.144.049-.285.1-.431.148-.256.08-.517.15-.779.221-.194.054-.387.11-.585.158-.274.066-.555.122-.834.178-.189.038-.375.081-.565.114-.562.1-1.133.177-1.708.238-.177.018-.355.03-.533.044-.337.029-.676.053-1.015.068-.217.01-.435.014-.652.018-.274.006-.548.008-.822,0q-.344,0-.688-.018c-.255-.01-.509-.024-.762-.042q-.348-.024-.695-.058c-.251-.024-.5-.052-.75-.084-.225-.029-.448-.06-.672-.1-.267-.041-.532-.088-.8-.138-.21-.039-.417-.081-.624-.126-.315-.069-.625-.147-.932-.229-.172-.046-.345-.089-.515-.138-.552-.161-1.092-.341-1.613-.544-.072-.028-.141-.061-.213-.09a16.343,16.343,0,0,1-2.037-.976,8.671,8.671,0,0,1-4.154-4.518,5.232,5.232,0,0,1-.273-1.672l-.016,5.651c-.006,2.24,1.471,4.483,4.428,6.19a16.214,16.214,0,0,0,2.036.975c.046.019.085.046.132.064.026.01.056.018.082.028.521.2,1.06.383,1.613.544.044.014.085.031.13.044.126.036.258.061.385.094.308.082.617.16.932.229.084.018.165.044.25.062.124.026.251.042.375.065q.4.076.8.138c.107.017.212.041.32.056s.235.025.353.039c.249.032.5.059.749.084.12.011.238.03.359.04s.224.01.336.018c.253.018.507.031.762.041.127.006.254.018.382.021.1,0,.2,0,.306,0,.274,0,.548,0,.822,0,.137,0,.273,0,.41,0,.081,0,.161-.013.241-.016.341-.015.679-.04,1.017-.068.135-.011.273-.014.408-.027.042,0,.083-.013.125-.017q.864-.091,1.709-.238l.083-.012c.164-.03.322-.07.484-.1.278-.057.557-.111.83-.177.2-.048.393-.106.59-.159.261-.07.521-.141.776-.221.054-.017.111-.03.165-.046.091-.03.174-.07.265-.1.4-.138.8-.287,1.183-.448.143-.061.287-.119.428-.183a15.472,15.472,0,0,0,1.417-.717l.184-.108c.138-.083.256-.173.387-.259.184-.119.371-.237.54-.361.149-.108.282-.221.421-.332.157-.125.318-.251.461-.381.03-.026.065-.05.094-.077.058-.054.1-.113.156-.167a8.68,8.68,0,0,0,.636-.684c.042-.051.1-.1.14-.15s.066-.1.1-.154c.129-.173.244-.348.353-.524.046-.074.106-.146.149-.221.021-.038.033-.076.053-.114.084-.154.151-.31.219-.467.04-.092.094-.182.128-.273.012-.031.016-.063.027-.094.053-.149.09-.3.129-.448.026-.1.066-.2.087-.3.005-.027,0-.054.009-.081.03-.158.04-.316.054-.474.01-.1.032-.2.035-.307q0-.066,0-.132h0Z" transform="translate(-1550.965 -737.352)" fill="#fdb502"/>
              <g id="Group_1363" data-name="Group 1363" transform="translate(0.016)">
                <path id="Path_923" data-name="Path 923" d="M1576.592,737.724c5.886,3.4,5.918,8.909.069,12.308s-15.361,3.4-21.249,0-5.909-8.9-.06-12.3S1570.714,734.33,1576.592,737.724Z" transform="translate(-1550.984 -735.179)" fill="#fcd203"/>
              </g>
            </g>
            <g id="Group_1368" data-name="Group 1368">
              <path id="Path_924" data-name="Path 924" d="M1581.024,736.227c0,.147-.024.293-.038.44s-.025.316-.054.473c-.024.129-.063.257-.1.385-.039.15-.076.3-.129.449-.044.123-.1.245-.155.368-.068.156-.135.312-.218.466-.061.113-.134.224-.2.335-.109.176-.224.351-.353.524-.077.1-.159.2-.243.3a8.677,8.677,0,0,1-.636.684c-.085.081-.161.165-.25.245-.143.129-.3.253-.46.379-.139.112-.273.225-.422.333-.169.124-.356.241-.54.36s-.369.249-.572.368a15.627,15.627,0,0,1-1.417.717c-.141.063-.285.122-.429.183q-.576.241-1.181.447c-.144.05-.285.1-.431.148-.256.081-.517.151-.779.222-.194.053-.387.11-.585.158-.274.066-.555.122-.834.178-.189.038-.375.082-.565.115-.562.1-1.133.177-1.708.237-.177.018-.355.03-.533.045-.337.028-.676.053-1.015.068-.217.009-.435.014-.652.018-.274,0-.548.007-.822,0q-.344,0-.688-.019c-.255-.01-.509-.023-.762-.041q-.348-.024-.695-.058c-.251-.025-.5-.053-.75-.084q-.337-.043-.672-.1-.4-.062-.8-.138c-.21-.04-.417-.081-.624-.126-.315-.069-.625-.147-.932-.229-.172-.046-.345-.089-.515-.138-.552-.161-1.092-.341-1.613-.544-.072-.028-.141-.062-.213-.09a16.329,16.329,0,0,1-2.037-.977,8.668,8.668,0,0,1-4.154-4.518,5.228,5.228,0,0,1-.273-1.672l-.016,5.652c-.006,2.24,1.471,4.483,4.428,6.19a16.226,16.226,0,0,0,2.036.976c.046.019.085.045.132.063.026.01.056.018.082.028.521.2,1.06.383,1.613.544.044.013.085.031.13.044.126.036.258.061.385.094.308.082.617.16.932.229.084.018.165.044.25.061.124.026.251.042.375.066q.4.076.8.138c.107.017.212.04.32.055s.235.025.353.04q.373.047.749.084c.12.011.238.03.359.04s.224.01.336.018c.253.018.507.031.762.041.127.006.254.018.382.021.1,0,.2,0,.306,0,.274,0,.548,0,.822,0,.137,0,.273,0,.41,0,.081,0,.161-.013.241-.016.341-.015.679-.04,1.017-.068.135-.011.273-.014.408-.027.042,0,.083-.013.125-.018q.864-.09,1.709-.237c.027-.006.056-.007.083-.012.164-.03.322-.07.484-.1.278-.057.557-.112.83-.177.2-.049.393-.106.59-.159.261-.071.521-.141.776-.221.054-.017.111-.03.165-.047.091-.03.174-.07.265-.1.4-.138.8-.287,1.183-.448.143-.06.287-.119.428-.182a15.675,15.675,0,0,0,1.417-.717l.184-.109c.138-.082.256-.173.387-.258.184-.119.371-.237.54-.361.149-.108.282-.221.421-.332.157-.126.318-.251.461-.381.03-.026.065-.05.094-.077.058-.054.1-.113.156-.168a8.691,8.691,0,0,0,.636-.684c.042-.05.1-.1.14-.149s.066-.1.1-.154c.129-.173.244-.348.353-.524.046-.074.106-.146.149-.22.021-.038.033-.077.053-.114.084-.154.151-.31.219-.466.04-.092.094-.182.128-.274.012-.03.016-.062.027-.094.053-.149.09-.3.129-.448.026-.1.066-.2.087-.3.005-.027,0-.054.009-.082.03-.157.04-.315.054-.473.01-.1.032-.2.035-.308q0-.066,0-.132h0Z" transform="translate(-1550.965 -727.486)" fill="#fdb502"/>
              <g id="Group_1365" data-name="Group 1365" transform="translate(0.016)">
                <g id="Path_925" data-name="Path 925" transform="translate(-1550.984 -725.313)" fill="none" stroke-miterlimit="10">
                  <path d="M1576.592,727.858c5.886,3.4,5.918,8.909.069,12.308s-15.361,3.4-21.249,0-5.909-8.9-.06-12.3S1570.714,724.464,1576.592,727.858Z" stroke="none"/>
                  <path d="M 1565.966064453125 727.1896362304688 C 1562.277587890625 727.1896362304688 1558.843139648438 728.005126953125 1556.295166015625 729.4859008789063 C 1554.078491210938 730.7739868164063 1552.85888671875 732.3753662109375 1552.861083984375 733.9950561523438 C 1552.862182617188 734.7352294921875 1553.120727539063 735.4777221679688 1553.629638671875 736.2017822265625 C 1554.232299804688 737.0592041015625 1555.147705078125 737.8460693359375 1556.350708007813 738.5405883789063 C 1558.917358398438 740.0225219726563 1562.3623046875 740.8386840820313 1566.051025390625 740.8386840820313 C 1569.738037109375 740.8386840820313 1573.171142578125 740.0234985351563 1575.718139648438 738.5431518554688 C 1577.933959960938 737.2556762695313 1579.153076171875 735.6550903320313 1579.15087890625 734.0362548828125 C 1579.14990234375 733.2952880859375 1578.890869140625 732.5518798828125 1578.380981445313 731.8265991210938 C 1577.776977539063 730.9676513671875 1576.859497070313 730.1790771484375 1575.654052734375 729.48291015625 C 1573.092407226563 728.0040893554688 1569.65185546875 727.1896362304688 1565.966064453125 727.1896362304688 M 1565.966064453125 725.3130493164063 C 1569.80859375 725.3130493164063 1573.654052734375 726.1614379882813 1576.59228515625 727.8577270507813 C 1582.478759765625 731.2571411132813 1582.510009765625 736.7671508789063 1576.660888671875 740.1657104492188 C 1573.736450195313 741.8654174804688 1569.896118164063 742.7152709960938 1566.051025390625 742.7152709960938 C 1562.2060546875 742.7152709960938 1558.356079101563 741.8654174804688 1555.412353515625 740.1657104492188 C 1549.533935546875 736.7719116210938 1549.50341796875 731.261962890625 1555.352416992188 727.8633422851563 C 1558.278076171875 726.1630249023438 1562.12060546875 725.3130493164063 1565.966064453125 725.3130493164063 Z" stroke="none" fill="#ffbf82"/>
                </g>
              </g>
              <g id="Group_1366" data-name="Group 1366" transform="translate(0.016)">
                <g id="Path_926" data-name="Path 926" transform="translate(-1550.984 -725.313)" fill="#ffbf82" stroke-miterlimit="10">
                  <path d="M 1566.051025390625 741.7769775390625 C 1562.2001953125 741.7769775390625 1558.588500976563 740.9161987304688 1555.881591796875 739.3531494140625 C 1553.331420898438 737.8809204101563 1551.925537109375 735.978515625 1551.9228515625 733.996337890625 C 1551.920043945313 732.0278930664063 1553.305419921875 730.137939453125 1555.823852539063 728.6746215820313 C 1558.512573242188 727.1119384765625 1562.114501953125 726.2513427734375 1565.966064453125 726.2513427734375 C 1569.81396484375 726.2513427734375 1573.421142578125 727.1104125976563 1576.123168945313 728.6703491210938 C 1578.678100585938 730.145751953125 1580.086547851563 732.0509643554688 1580.089233398438 734.0349731445313 C 1580.091796875 736.0025634765625 1578.706909179688 737.8917236328125 1576.189453125 739.3544311523438 C 1573.501586914063 740.9166259765625 1569.901123046875 741.7769775390625 1566.051025390625 741.7769775390625 Z" stroke="none"/>
                  <path d="M 1565.966064453125 727.1896362304688 C 1562.277587890625 727.1896362304688 1558.843139648438 728.005126953125 1556.295166015625 729.4859008789063 C 1554.078491210938 730.7739868164063 1552.85888671875 732.3753662109375 1552.861083984375 733.9950561523438 C 1552.862182617188 734.7352294921875 1553.120727539063 735.4777221679688 1553.629638671875 736.2017822265625 C 1554.232299804688 737.0592041015625 1555.147705078125 737.8460693359375 1556.350708007813 738.5405883789063 C 1558.917358398438 740.0225219726563 1562.3623046875 740.8386840820313 1566.051025390625 740.8386840820313 C 1569.738037109375 740.8386840820313 1573.171142578125 740.0234985351563 1575.718139648438 738.5431518554688 C 1577.933959960938 737.2556762695313 1579.153076171875 735.6550903320313 1579.15087890625 734.0362548828125 C 1579.14990234375 733.2952880859375 1578.890869140625 732.5518798828125 1578.380981445313 731.8265991210938 C 1577.776977539063 730.9676513671875 1576.859497070313 730.1790771484375 1575.654052734375 729.48291015625 C 1573.092407226563 728.0040893554688 1569.65185546875 727.1896362304688 1565.966064453125 727.1896362304688 M 1565.966064453125 725.3130493164063 C 1569.80859375 725.3130493164063 1573.654052734375 726.1614379882813 1576.59228515625 727.8577270507813 C 1582.478759765625 731.2571411132813 1582.510009765625 736.7671508789063 1576.660888671875 740.1657104492188 C 1573.736450195313 741.8654174804688 1569.896118164063 742.7152709960938 1566.051025390625 742.7152709960938 C 1562.2060546875 742.7152709960938 1558.356079101563 741.8654174804688 1555.412353515625 740.1657104492188 C 1549.533935546875 736.7719116210938 1549.50341796875 731.261962890625 1555.352416992188 727.8633422851563 C 1558.278076171875 726.1630249023438 1562.12060546875 725.3130493164063 1565.966064453125 725.3130493164063 Z" stroke="none" fill="#ffd9b5"/>
                </g>
              </g>
              <g id="Group_1367" data-name="Group 1367" transform="translate(0.016)">
                <path id="Path_927" data-name="Path 927" d="M1576.592,727.858c5.886,3.4,5.918,8.909.069,12.308s-15.361,3.4-21.249,0-5.909-8.9-.06-12.3S1570.714,724.464,1576.592,727.858Z" transform="translate(-1550.984 -725.313)" fill="#fcd203"/>
              </g>
            </g>
          </g>
          <g id="Group_1372" data-name="Group 1372" transform="translate(2.301 0.888)">
            <g id="Group_1371" data-name="Group 1371" style="isolation: isolate">
              <g id="Group_1370" data-name="Group 1370" clip-path="url(#clip-path-3)">
                <path id="Path_928" data-name="Path 928" d="M1564.568,737.16l2.3-1.339c.462.562.632,1.027.052,1.365a2.77,2.77,0,0,1-2.356-.026m3.489-3.977c-.5-.563-.685-1.038-.1-1.375a2.894,2.894,0,0,1,2.471,0l-2.366,1.375m8.12-2.771-1.681-.971-1.848,1.073c-2.955-1.359-5.769-1.222-7.537-.194-2.383,1.385-.919,2.955.492,4.288l-2.788,1.62a5.162,5.162,0,0,1-2.071-2.571l-2.953.649a6.245,6.245,0,0,0,2.841,3.19l-1.821,1.058,1.682.971,1.873-1.089c2.955,1.339,5.725,1.206,7.466.194,2.349-1.365.911-2.909-.509-4.237l2.833-1.646a5.217,5.217,0,0,1,1.7,1.988l2.9-.711a6.35,6.35,0,0,0-2.388-2.561l1.812-1.053" transform="translate(-1554.635 -727.029)" fill="#fff" opacity="0.5"/>
              </g>
            </g>
          </g>
        </g>
      </g>
      <g id="Group_1376" data-name="Group 1376" transform="translate(48.609 209.285)" opacity="0.4" style="mix-blend-mode: multiply;isolation: isolate">
        <g id="Group_1375" data-name="Group 1375">
          <path id="Path_930" data-name="Path 930" d="M1602.721,647.378c12.5-5.4,32.74-5.4,45.156,0,12.441,5.407,12.35,14.164-.148,19.559s-32.714,5.406-45.156,0c-12.416-5.395-12.349-14.163.147-19.558" transform="translate(-1593.306 -643.331)" fill="#d9e4f4" style="mix-blend-mode: multiply;isolation: isolate"/>
        </g>
      </g>
      <g id="Group_1377" data-name="Group 1377" transform="translate(61.742 143.505)">
        <path id="Path_931" data-name="Path 931" d="M1641.28,663.435a1.133,1.133,0,0,0,.547.326,4.368,4.368,0,0,0,.555.1c.277.041.572.074.857.1a7.042,7.042,0,0,0,1.379.025.679.679,0,0,0,.131-.025,2.6,2.6,0,0,0,1.166-.506c.164-.122.36-.277.564-.448a13.569,13.569,0,0,0,1.624-1.478c.335-.392.792-.669,1.1-1.077a3.566,3.566,0,0,0,.719-1.8,1.77,1.77,0,0,0-.457-1.5,1.5,1.5,0,0,0-.849-.335,3.019,3.019,0,0,0-2.562,1.191,8.315,8.315,0,0,1-1.6,1.951,2.131,2.131,0,0,1-.359.188c-.522.237-1.11.318-1.624.58a2.677,2.677,0,0,0-1.3,1.428c-.017.041-.025.073-.041.114a.046.046,0,0,1-.009.033A1.2,1.2,0,0,0,1641.28,663.435Z" transform="translate(-1616.013 -580.251)" fill="#006ac0"/>
        <path id="Path_932" data-name="Path 932" d="M1615.507,663.314a1.14,1.14,0,0,0,.547.326,4.519,4.519,0,0,0,.555.1c.278.041.572.073.857.1a7.12,7.12,0,0,0,1.379.025.833.833,0,0,0,.131-.025,2.621,2.621,0,0,0,1.167-.506c.163-.122.359-.277.563-.449a13.728,13.728,0,0,0,1.624-1.477c.335-.392.792-.669,1.1-1.078a3.561,3.561,0,0,0,.719-1.8,1.772,1.772,0,0,0-.457-1.5,1.5,1.5,0,0,0-.849-.334,3.02,3.02,0,0,0-2.562,1.191,8.317,8.317,0,0,1-1.6,1.951,2.194,2.194,0,0,1-.359.188c-.522.237-1.11.318-1.624.579a2.682,2.682,0,0,0-1.3,1.429c-.017.041-.025.074-.041.114a.048.048,0,0,1-.009.033A1.2,1.2,0,0,0,1615.507,663.314Z" transform="translate(-1610.844 -580.227)" fill="#006ac0"/>
        <path id="Path_933" data-name="Path 933" d="M1639.6,640.942h4.112c4.274-23.007,4.009-34.062,3.048-39.281a31.333,31.333,0,0,1,.145-11.807,117.244,117.244,0,0,0,1.7-27.9c-.213.177-2.92-.221-5.252-.6-.61-.1-1.191-.206-1.7-.294-.508.089-1.082.192-1.692.294-2.3.376-8.751.205-9.026.349C1629.841,562.265,1636.854,626.163,1639.6,640.942Z" transform="translate(-1613.961 -561.053)" fill="#066ee5"/>
        <path id="Path_934" data-name="Path 934" d="M1618.936,640.942h-4.112c-4.426-23.828-3.985-34.836-2.941-39.818a24.089,24.089,0,0,0,0-10.04c-2.97-13.72-2.031-28.014-1.955-29.133.213.177,2.92-.221,5.252-.6.61-.1,1.191-.206,1.7-.294.508.089,1.082.192,1.692.294,2.3.376,8.631.3,8.906.445C1628.575,562.362,1621.681,626.163,1618.936,640.942Z" transform="translate(-1609.732 -561.053)" fill="#066ee5"/>
        <path id="Path_935" data-name="Path 935" d="M1641.84,664.6a1.383,1.383,0,0,0,.71.2h2.212a2.6,2.6,0,0,0,1.166-.506c.164-.122.36-.277.564-.448l-.718-2.865h-4.105l-.506,2.048c-.008.025-.008.049-.016.074a.046.046,0,0,1-.009.033A1.423,1.423,0,0,0,1641.84,664.6Z" transform="translate(-1616.026 -581.09)" fill="#006ac0"/>
        <path id="Path_936" data-name="Path 936" d="M1620.075,660.862h-4.112l-.413,1.676a1.728,1.728,0,0,0,1.677,2.141h1.591a1.728,1.728,0,0,0,1.676-2.147Z" transform="translate(-1610.889 -581.067)" fill="#006ac0"/>
      </g>
      <g id="Group_1381" data-name="Group 1381" transform="translate(84.483 0)">
        <g id="Group_1379" data-name="Group 1379">
          <rect id="Rectangle_146" data-name="Rectangle 146" width="73.646" height="100.877" fill="#fff"/>
          <rect id="Rectangle_147" data-name="Rectangle 147" width="73.646" height="12.378" fill="#739de1"/>
          <g id="Group_1378" data-name="Group 1378" transform="translate(53.017 5.072)">
            <path id="Path_937" data-name="Path 937" d="M1707.586,389.445a1.547,1.547,0,1,1-1.547-1.547A1.547,1.547,0,0,1,1707.586,389.445Z" transform="translate(-1704.491 -387.898)" fill="#b1ccf1"/>
            <path id="Path_938" data-name="Path 938" d="M1715.617,389.445a1.547,1.547,0,1,1-1.547-1.547A1.547,1.547,0,0,1,1715.617,389.445Z" transform="translate(-1706.102 -387.898)" fill="#b1ccf1"/>
            <path id="Path_939" data-name="Path 939" d="M1723.648,389.445a1.547,1.547,0,1,1-1.547-1.547A1.547,1.547,0,0,1,1723.648,389.445Z" transform="translate(-1707.712 -387.898)" fill="#f16173"/>
          </g>
        </g>
        <g id="Group_1380" data-name="Group 1380" transform="translate(9.39 16.222)">
          <path id="Path_940" data-name="Path 940" d="M1681.636,446.766a13.207,13.207,0,1,1,13.207-13.207A13.223,13.223,0,0,1,1681.636,446.766Z" transform="translate(-1653.633 -405.556)" fill="#b1ccf1"/>
          <text id="_12_" data-name="12%" transform="translate(21.376 28.644)" fill="#fff" font-size="6" font-family="Montserrat-Black, Montserrat" font-weight="800"><tspan x="0" y="0">12%</tspan></text>
          <circle id="Ellipse_54" data-name="Ellipse 54" cx="21.372" cy="21.372" r="21.372" transform="translate(0 16.628) rotate(-22.892)" fill="none" stroke="#dfd8ea" stroke-miterlimit="10" stroke-width="1.601"/>
          <path id="Path_941" data-name="Path 941" d="M1680.612,449.824a17.29,17.29,0,1,1,17.289-17.289A17.309,17.309,0,0,1,1680.612,449.824Z" transform="translate(-1652.609 -404.532)" fill="none" stroke="#dfd8ea" stroke-miterlimit="10" stroke-width="1.601"/>
          <path id="Path_942" data-name="Path 942" d="M1684.949,410.138a21.372,21.372,0,0,1,0,42.745" transform="translate(-1656.946 -403.508)" fill="none" stroke="#739ee2" stroke-miterlimit="10" stroke-width="1.601"/>
          <path id="Path_943" data-name="Path 943" d="M1667.286,422.559a17.29,17.29,0,0,1,28.242,19.953" transform="translate(-1653.404 -404.533)" fill="none" stroke="#ff8fa6" stroke-miterlimit="10" stroke-width="1.601"/>
        </g>
        <text id="Lorem_ipsum_dolor_sit_amet_consectetuer_adipiscing_elit_sed_diam_nonummy_nibh_euismod_tincidunt_ut_laoreet_dolore_magna_aliquam_erat_volutpat._" data-name="Lorem ipsum dolor sit amet, consectetuer adipiscing elit, sed diam nonummy nibh euismod tincidunt ut laoreet dolore magna aliquam erat volutpat. " transform="translate(7.472 79.908)" fill="#b1ccf1" font-size="2.931" font-family="Montserrat-Regular, Montserrat"><tspan x="9.455" y="3">Lorem ipsum dolor sit amet, </tspan><tspan x="2.407" y="7.396">consectetuer adipiscing elit, sed diam </tspan><tspan x="2.745" y="11.792">nonummy nibh euismod tincidunt ut </tspan><tspan x="4.533" y="16.189">laoreet dolore magna aliquam erat </tspan><tspan x="23.509" y="20.585">volutpat. </tspan></text>
        <text id="LOREM_IPSUM_" data-name="LOREM IPSUM " transform="translate(20.844 75.029)" fill="#7daef3" font-size="3" font-family="Montserrat-Medium, Montserrat" font-weight="500"><tspan x="0" y="0">LOREM IPSUM </tspan></text>
      </g>
      <g id="Group_1382" data-name="Group 1382" transform="translate(79.782 72.208)">
        <path id="Path_944" data-name="Path 944" d="M1681.176,481.321a13.4,13.4,0,0,0,.977-1.589,11.411,11.411,0,0,0,.708-1.968,7.344,7.344,0,0,0,.358-3.245,4.075,4.075,0,0,0-1.231-2.253,1.06,1.06,0,0,0-1-.358c-.428.149-.536.692-.591,1.143a21.119,21.119,0,0,1-.481,2.6.993.993,0,0,1-.228.489.351.351,0,0,1-.489.023.5.5,0,0,1-.093-.273q-.133-.951-.265-1.9a.855.855,0,0,0-1.041.41,2.39,2.39,0,0,0-.236,1.193q-.041,2.081.117,4.158a4.429,4.429,0,0,1-.109,1.861,1.241,1.241,0,0,0-.146.644c.054.278.333.446.586.573.512.256,1.314.855,1.831.446A9.215,9.215,0,0,0,1681.176,481.321Z" transform="translate(-1641.345 -471.874)" fill="#fbcfa8"/>
        <path id="Path_945" data-name="Path 945" d="M1632.431,512.2c.668-3.349,1.431-6.9,3.786-9.379,2.686-2.825,6.793-3.612,10.587-4.515,6.259-1.5,12.561-3.809,17.11-8.36a26.442,26.442,0,0,0,4.7-6.571l3.412.672c-.454,1.107-1.113,2.2-1.368,2.758a71.127,71.127,0,0,1-3.743,7.04,57.257,57.257,0,0,1-9.781,12.159c-4.978,4.647-14.426,8.335-18.991,9.933a4.984,4.984,0,0,1-4.946-.883,2.518,2.518,0,0,1-.85-1.294A3.789,3.789,0,0,1,1632.431,512.2Z" transform="translate(-1632.297 -474.18)" fill="#fa513c"/>
      </g>
      <g id="Group_1383" data-name="Group 1383" transform="translate(69.988 66.101)">
        <path id="Path_946" data-name="Path 946" d="M1634.627,492.307l.405-1.8s-8.271-2.2-8.263-1.984-.233,5.468-.233,5.468l5.157.883Z" transform="translate(-1621.348 -469.102)" fill="#e1ae9c"/>
        <path id="Path_947" data-name="Path 947" d="M1643.022,475.164a18.579,18.579,0,0,1-.393,9.144c-1.478,5.119-9.716,3.716-9.716,3.716l1.474-9.547Z" transform="translate(-1622.627 -466.426)" fill="#fbcfa8"/>
        <path id="Path_948" data-name="Path 948" d="M1622.426,485.063a13.558,13.558,0,0,0,8.69,2.029,20.608,20.608,0,0,0,.864-6.426s6.94.06,8.74-5.776a7.275,7.275,0,0,0-1.454-6.623c-2.2-2.741-6.478-5.853-13.594-2.72a9.236,9.236,0,0,0-5.543,7.428C1619.842,475.77,1620.238,479.72,1622.426,485.063Z" transform="translate(-1620.047 -464.235)" fill="#0270e3"/>
      </g>
      <path id="Path_949" data-name="Path 949" d="M1610.414,554.324h30.564a5.135,5.135,0,0,0,5.131-5.246c-.547-24.586-4.886-38.03-8.095-44.688a10.214,10.214,0,0,0-9.346-5.652c-1.2.012-2.347.027-3.149.038h-.088c-.751-.011-1.7-.024-2.691-.034a10.219,10.219,0,0,0-9.364,5.652c-3.209,6.658-7.548,20.1-8.094,44.684A5.135,5.135,0,0,0,1610.414,554.324Z" transform="translate(-1547.098 -405.052)" fill="#fa513c"/>
      <g id="Group_1384" data-name="Group 1384" transform="translate(45.939 59.546)">
        <path id="Path_950" data-name="Path 950" d="M1591.34,465.439a13.471,13.471,0,0,1-.767-1.706,11.453,11.453,0,0,1-.452-2.048,7.358,7.358,0,0,1,.059-3.273,4.085,4.085,0,0,1,1.513-2.083,1.062,1.062,0,0,1,1.039-.228c.407.2.445.757.441,1.212a20.954,20.954,0,0,0,.146,2.649.983.983,0,0,0,.164.516.351.351,0,0,0,.482.086.512.512,0,0,0,.128-.259l.506-1.859a.86.86,0,0,1,.983.541,2.414,2.414,0,0,1,.082,1.217q-.227,2.075-.649,4.121a4.454,4.454,0,0,0-.129,1.865,1.252,1.252,0,0,1,.063.659c-.09.27-.389.4-.656.495-.541.189-1.417.682-1.878.209A9.224,9.224,0,0,1,1591.34,465.439Z" transform="translate(-1589.966 -456.035)" fill="#fbcfa8"/>
        <path id="Path_951" data-name="Path 951" d="M1622.2,502.879a9.4,9.4,0,0,1-7.645,6.393,13.374,13.374,0,0,1-9.869-2.791,23.66,23.66,0,0,1-6.511-8.168c-4.8-9.248-5.659-19.963-6.432-30.351a9.941,9.941,0,0,1,3.5-.115,54.523,54.523,0,0,0,2.286,11.9c1.088,3.5,2.6,6.993,5.235,9.54,2.494,2.409,5.781,3.775,8.848,5.394a15.229,15.229,0,0,1,5.176,3.934,15.461,15.461,0,0,1,2.167,4.484,12.533,12.533,0,0,1,.9,4.908,4.92,4.92,0,0,1-2.471,4.113" transform="translate(-1590.323 -458.383)" fill="#fa513c"/>
      </g>
      <path id="Path_952" data-name="Path 952" d="M1631.47,486.175c.059,3.409.864,7.045-.7,10.075-.936,1.815-2.634,3.179-3.412,5.067a28.2,28.2,0,0,0-.858,3.318,3.182,3.182,0,0,1-.826,1.562,3.549,3.549,0,0,1-1.437.679,18.108,18.108,0,0,1-8.961.558,10.2,10.2,0,0,1-7.026-5.248c-1.549-3.263-.792-7.163.584-10.5s3.339-6.457,4.249-9.952c.456-1.749.638-3.561,1.086-5.312a14.132,14.132,0,0,1,6.084-8.693,9.871,9.871,0,0,1,10.316-.065C1637.335,472.169,1631.366,480.075,1631.47,486.175Z" transform="translate(-1547.521 -398.535)" fill="#0270e3"/>
    </g>
  </g>
</svg>
