<svg xmlns="http://www.w3.org/2000/svg" xmlns:xlink="http://www.w3.org/1999/xlink" width="268" height="370.024" viewBox="0 0 268 370.024">
  <defs>
    <clipPath id="clip-path">
      <rect id="Rectangle_133" data-name="Rectangle 133" width="36.358" height="45.007" fill="none" opacity="0.5"/>
    </clipPath>
    <clipPath id="clip-path-2">
      <rect id="Rectangle_132" data-name="Rectangle 132" width="42.003" height="57.41" fill="none" opacity="0.5"/>
    </clipPath>
  </defs>
  <g id="Group_1408" data-name="Group 1408" transform="translate(-1137.498 -553.466)">
    <circle id="Ellipse_59" data-name="Ellipse 59" cx="134" cy="134" r="134" transform="translate(1137.498 553.466)" fill="#f9f8f1"/>
    <g id="Group_1407" data-name="Group 1407" transform="translate(1216.796 585.011)">
      <g id="Group_1198" data-name="Group 1198" transform="translate(0 72.623)">
        <rect id="Rectangle_70" data-name="Rectangle 70" width="125.118" height="85.951" fill="#fff"/>
        <rect id="Rectangle_71" data-name="Rectangle 71" width="125.118" height="9.792" fill="#739ee2"/>
        <g id="Group_1196" data-name="Group 1196" transform="translate(8.647 18.285)">
          <text id="LOREM_IPSUM" data-name="LOREM IPSUM" transform="translate(80.113 2.475)" fill="#7daef3" font-size="2" font-family="Montserrat-Medium, Montserrat" font-weight="500"><tspan x="0" y="0">LOREM IPSUM</tspan></text>
          <g id="Group_1195" data-name="Group 1195">
            <g id="Group_1169" data-name="Group 1169" transform="translate(2.485 29.262)">
              <g id="Group_1161" data-name="Group 1161">
                <g id="Group_1160" data-name="Group 1160">
                  <g id="Group_1155" data-name="Group 1155">
                    <rect id="Rectangle_72" data-name="Rectangle 72" width="2.592" height="2.395" fill="#7daef3"/>
                    <rect id="Rectangle_73" data-name="Rectangle 73" width="2.592" height="2.395" transform="translate(0 5.09)" fill="#7daef3"/>
                    <rect id="Rectangle_74" data-name="Rectangle 74" width="2.592" height="2.395" transform="translate(0 10.179)" fill="#ff8fa6"/>
                    <rect id="Rectangle_75" data-name="Rectangle 75" width="2.592" height="2.395" transform="translate(0 15.269)" fill="#ff8fa6"/>
                    <rect id="Rectangle_76" data-name="Rectangle 76" width="2.592" height="2.395" transform="translate(0 20.358)" fill="#ff8fa6"/>
                    <rect id="Rectangle_77" data-name="Rectangle 77" width="2.592" height="2.395" transform="translate(0 25.448)" fill="#ff8fa6"/>
                  </g>
                  <g id="Group_1156" data-name="Group 1156" transform="translate(3.969)">
                    <rect id="Rectangle_78" data-name="Rectangle 78" width="2.592" height="2.395" fill="#7daef3"/>
                    <rect id="Rectangle_79" data-name="Rectangle 79" width="2.592" height="2.395" transform="translate(0 5.09)" fill="#f16173"/>
                    <rect id="Rectangle_80" data-name="Rectangle 80" width="2.592" height="2.395" transform="translate(0 10.179)" fill="#f16173"/>
                    <rect id="Rectangle_81" data-name="Rectangle 81" width="2.592" height="2.395" transform="translate(0 15.269)" fill="#f16173"/>
                    <rect id="Rectangle_82" data-name="Rectangle 82" width="2.592" height="2.395" transform="translate(0 20.358)" fill="#f16173"/>
                    <rect id="Rectangle_83" data-name="Rectangle 83" width="2.592" height="2.395" transform="translate(0 25.448)" fill="#f16173"/>
                  </g>
                  <g id="Group_1157" data-name="Group 1157" transform="translate(7.939)">
                    <rect id="Rectangle_84" data-name="Rectangle 84" width="2.592" height="2.395" fill="#7daef3"/>
                    <rect id="Rectangle_85" data-name="Rectangle 85" width="2.592" height="2.395" transform="translate(0 5.09)" fill="#7daef3"/>
                    <rect id="Rectangle_86" data-name="Rectangle 86" width="2.592" height="2.395" transform="translate(0 10.179)" fill="#7daef3"/>
                    <rect id="Rectangle_87" data-name="Rectangle 87" width="2.592" height="2.395" transform="translate(0 15.269)" fill="#fcd203"/>
                    <rect id="Rectangle_88" data-name="Rectangle 88" width="2.592" height="2.395" transform="translate(0 20.358)" fill="#fcd203"/>
                    <rect id="Rectangle_89" data-name="Rectangle 89" width="2.592" height="2.395" transform="translate(0 25.448)" fill="#fcd203"/>
                  </g>
                  <g id="Group_1158" data-name="Group 1158" transform="translate(11.909)">
                    <rect id="Rectangle_90" data-name="Rectangle 90" width="2.592" height="2.395" fill="#7daef3"/>
                    <rect id="Rectangle_91" data-name="Rectangle 91" width="2.592" height="2.395" transform="translate(0 5.09)" fill="#7daef3"/>
                    <rect id="Rectangle_92" data-name="Rectangle 92" width="2.592" height="2.395" transform="translate(0 10.179)" fill="#ff8fa6"/>
                    <rect id="Rectangle_93" data-name="Rectangle 93" width="2.592" height="2.395" transform="translate(0 15.269)" fill="#ff8fa6"/>
                    <rect id="Rectangle_94" data-name="Rectangle 94" width="2.592" height="2.395" transform="translate(0 20.358)" fill="#ff8fa6"/>
                    <rect id="Rectangle_95" data-name="Rectangle 95" width="2.592" height="2.395" transform="translate(0 25.448)" fill="#ff8fa6"/>
                  </g>
                  <g id="Group_1159" data-name="Group 1159" transform="translate(15.878)">
                    <rect id="Rectangle_96" data-name="Rectangle 96" width="2.592" height="2.395" fill="#7daef3"/>
                    <rect id="Rectangle_97" data-name="Rectangle 97" width="2.592" height="2.395" transform="translate(0 5.09)" fill="#7daef3"/>
                    <rect id="Rectangle_98" data-name="Rectangle 98" width="2.592" height="2.395" transform="translate(0 10.179)" fill="#7daef3"/>
                    <rect id="Rectangle_99" data-name="Rectangle 99" width="2.592" height="2.395" transform="translate(0 15.269)" fill="#7daef3"/>
                    <rect id="Rectangle_100" data-name="Rectangle 100" width="2.592" height="2.395" transform="translate(0 20.358)" fill="#f16173"/>
                    <rect id="Rectangle_101" data-name="Rectangle 101" width="2.592" height="2.395" transform="translate(0 25.448)" fill="#f16173"/>
                  </g>
                </g>
              </g>
              <g id="Group_1168" data-name="Group 1168" transform="translate(20.143)">
                <g id="Group_1167" data-name="Group 1167">
                  <g id="Group_1162" data-name="Group 1162">
                    <rect id="Rectangle_102" data-name="Rectangle 102" width="2.592" height="2.395" fill="#7daef3"/>
                    <rect id="Rectangle_103" data-name="Rectangle 103" width="2.592" height="2.395" transform="translate(0 5.09)" fill="#7daef3"/>
                    <rect id="Rectangle_104" data-name="Rectangle 104" width="2.592" height="2.395" transform="translate(0 10.179)" fill="#fcd203"/>
                    <rect id="Rectangle_105" data-name="Rectangle 105" width="2.592" height="2.395" transform="translate(0 15.269)" fill="#fcd203"/>
                    <rect id="Rectangle_106" data-name="Rectangle 106" width="2.592" height="2.395" transform="translate(0 20.358)" fill="#fcd203"/>
                    <rect id="Rectangle_107" data-name="Rectangle 107" width="2.592" height="2.395" transform="translate(0 25.448)" fill="#fcd203"/>
                  </g>
                  <g id="Group_1163" data-name="Group 1163" transform="translate(3.97)">
                    <rect id="Rectangle_108" data-name="Rectangle 108" width="2.592" height="2.395" fill="#7daef3"/>
                    <rect id="Rectangle_109" data-name="Rectangle 109" width="2.592" height="2.395" transform="translate(0 5.09)" fill="#ff8fa6"/>
                    <rect id="Rectangle_110" data-name="Rectangle 110" width="2.592" height="2.395" transform="translate(0 10.179)" fill="#ff8fa6"/>
                    <rect id="Rectangle_111" data-name="Rectangle 111" width="2.592" height="2.395" transform="translate(0 15.269)" fill="#ff8fa6"/>
                    <rect id="Rectangle_112" data-name="Rectangle 112" width="2.592" height="2.395" transform="translate(0 20.358)" fill="#ff8fa6"/>
                    <rect id="Rectangle_113" data-name="Rectangle 113" width="2.592" height="2.395" transform="translate(0 25.448)" fill="#ff8fa6"/>
                  </g>
                  <g id="Group_1164" data-name="Group 1164" transform="translate(7.939)">
                    <rect id="Rectangle_114" data-name="Rectangle 114" width="2.592" height="2.395" fill="#7daef3"/>
                    <rect id="Rectangle_115" data-name="Rectangle 115" width="2.592" height="2.395" transform="translate(0 5.09)" fill="#7daef3"/>
                    <rect id="Rectangle_116" data-name="Rectangle 116" width="2.592" height="2.395" transform="translate(0 10.179)" fill="#7daef3"/>
                    <rect id="Rectangle_117" data-name="Rectangle 117" width="2.592" height="2.395" transform="translate(0 15.269)" fill="#f16173"/>
                    <rect id="Rectangle_118" data-name="Rectangle 118" width="2.592" height="2.395" transform="translate(0 20.358)" fill="#f16173"/>
                    <rect id="Rectangle_119" data-name="Rectangle 119" width="2.592" height="2.395" transform="translate(0 25.448)" fill="#f16173"/>
                  </g>
                  <g id="Group_1165" data-name="Group 1165" transform="translate(11.909)">
                    <rect id="Rectangle_120" data-name="Rectangle 120" width="2.592" height="2.395" fill="#7daef3"/>
                    <rect id="Rectangle_121" data-name="Rectangle 121" width="2.592" height="2.395" transform="translate(0 5.09)" fill="#7daef3"/>
                    <rect id="Rectangle_122" data-name="Rectangle 122" width="2.592" height="2.395" transform="translate(0 10.179)" fill="#ff8fa6"/>
                    <rect id="Rectangle_123" data-name="Rectangle 123" width="2.592" height="2.395" transform="translate(0 15.269)" fill="#ff8fa6"/>
                    <rect id="Rectangle_124" data-name="Rectangle 124" width="2.592" height="2.395" transform="translate(0 20.358)" fill="#ff8fa6"/>
                    <rect id="Rectangle_125" data-name="Rectangle 125" width="2.592" height="2.395" transform="translate(0 25.448)" fill="#ff8fa6"/>
                  </g>
                  <g id="Group_1166" data-name="Group 1166" transform="translate(15.878)">
                    <rect id="Rectangle_126" data-name="Rectangle 126" width="2.592" height="2.395" fill="#7daef3"/>
                    <rect id="Rectangle_127" data-name="Rectangle 127" width="2.592" height="2.395" transform="translate(0 5.09)" fill="#7daef3"/>
                    <rect id="Rectangle_128" data-name="Rectangle 128" width="2.592" height="2.395" transform="translate(0 10.179)" fill="#7daef3"/>
                    <rect id="Rectangle_129" data-name="Rectangle 129" width="2.592" height="2.395" transform="translate(0 15.269)" fill="#7daef3"/>
                    <rect id="Rectangle_130" data-name="Rectangle 130" width="2.592" height="2.395" transform="translate(0 20.358)" fill="#fcd203"/>
                    <rect id="Rectangle_131" data-name="Rectangle 131" width="2.592" height="2.395" transform="translate(0 25.448)" fill="#fcd203"/>
                  </g>
                </g>
              </g>
            </g>
            <g id="Group_1178" data-name="Group 1178" transform="translate(51.721 11.888)">
              <g id="Group_1172" data-name="Group 1172" transform="translate(5.948 0.347)">
                <g id="Group_1171" data-name="Group 1171">
                  <g id="Group_1170" data-name="Group 1170" transform="translate(0 5.985)">
                    <line id="Line_79" data-name="Line 79" x2="49.508" transform="translate(0 33.228)" fill="none" stroke="#739ee2" stroke-miterlimit="10" stroke-width="0.378"/>
                    <line id="Line_80" data-name="Line 80" x2="49.508" transform="translate(0 29.536)" fill="none" stroke="#739ee2" stroke-miterlimit="10" stroke-width="0.378"/>
                    <line id="Line_81" data-name="Line 81" x2="49.508" transform="translate(0 25.844)" fill="none" stroke="#739ee2" stroke-miterlimit="10" stroke-width="0.378"/>
                    <line id="Line_82" data-name="Line 82" x2="49.508" transform="translate(0 22.152)" fill="none" stroke="#739ee2" stroke-miterlimit="10" stroke-width="0.378"/>
                    <line id="Line_83" data-name="Line 83" x2="49.508" transform="translate(0 18.46)" fill="none" stroke="#739ee2" stroke-miterlimit="10" stroke-width="0.378"/>
                    <line id="Line_84" data-name="Line 84" x2="49.508" transform="translate(0 14.768)" fill="none" stroke="#739ee2" stroke-miterlimit="10" stroke-width="0.378"/>
                    <line id="Line_85" data-name="Line 85" x2="49.508" transform="translate(0 11.076)" fill="none" stroke="#739ee2" stroke-miterlimit="10" stroke-width="0.378"/>
                    <line id="Line_86" data-name="Line 86" x2="49.508" transform="translate(0 7.384)" fill="none" stroke="#739ee2" stroke-miterlimit="10" stroke-width="0.378"/>
                    <line id="Line_87" data-name="Line 87" x2="49.508" transform="translate(0 3.692)" fill="none" stroke="#739ee2" stroke-miterlimit="10" stroke-width="0.378"/>
                    <line id="Line_88" data-name="Line 88" x2="49.508" fill="none" stroke="#739ee2" stroke-miterlimit="10" stroke-width="0.378"/>
                  </g>
                  <path id="Path_703" data-name="Path 703" d="M1227.367,509.819h-49.584V465.292" transform="translate(-1177.783 -465.292)" fill="none" stroke="#739ee2" stroke-miterlimit="10" stroke-width="0.378"/>
                </g>
              </g>
              <g id="Group_1173" data-name="Group 1173" transform="translate(0 1.834)">
                <text id="_0" data-name="0" transform="translate(1.546 41.486)" fill="#739ee2" font-size="1" font-family="Montserrat-Bold, Montserrat" font-weight="700"><tspan x="0" y="0">0</tspan></text>
                <text id="_20" data-name="20" transform="translate(0.227 31.343)" fill="#739ee2" font-size="1" font-family="Montserrat-Bold, Montserrat" font-weight="700"><tspan x="0" y="0">20</tspan></text>
                <text id="_40" data-name="40" transform="translate(0 21.201)" fill="#739ee2" font-size="1" font-family="Montserrat-Bold, Montserrat" font-weight="700"><tspan x="0" y="0">40</tspan></text>
                <text id="_60" data-name="60" transform="translate(0.121 11.057)" fill="#739ee2" font-size="1" font-family="Montserrat-Bold, Montserrat" font-weight="700"><tspan x="0" y="0">60</tspan></text>
                <text id="_" data-name="%" transform="translate(0.896 1)" fill="#739ee2" font-size="1" font-family="Montserrat-Bold, Montserrat" font-weight="700"><tspan x="0" y="0">%</tspan></text>
              </g>
              <g id="Group_1177" data-name="Group 1177" transform="translate(11.834)">
                <g id="Group_1176" data-name="Group 1176" clip-path="url(#clip-path)">
                  <g id="Group_1175" data-name="Group 1175" transform="translate(-4.896 -1.662)">
                    <g id="Group_1174" data-name="Group 1174" clip-path="url(#clip-path-2)">
                      <path id="Path_704" data-name="Path 704" d="M1214.99,503.321c-.3-.229-.594-.458-.889-.691a12.917,12.917,0,0,1-4.676-7.568c-.954-3.674-1.195-8.465-1.812-12.7s-1.952-8.386-3.517-7.711c-2.84,1.225-3.094,15.9-5.952,16.67-2.1.563-3.5-7.265-5.6-7.6-2.036-.32-3.271,6.143-4.289,11.288-2.813,14.232-7.7,24.86-13.187,28.681,3.68-2.52,7.357-2.527,11.1-3.526a49.162,49.162,0,0,1,11.848-1.686,48.5,48.5,0,0,1,11.566,1.2c2.905.655,6.482,5.965,9.388,5.16,3.13-.868,2.988,0,2.988,0S1219.207,506.567,1214.99,503.321Z" transform="translate(-1178.129 -465.482)" fill="#fcd203"/>
                      <path id="Path_705" data-name="Path 705" d="M1183,517.234c1.024-.087,1.92-.375,2.858-3.238.88-2.688,1.468-6.108,2.372-8.728,1.989-5.76,5.48-6.36,7.688-1.322.658,1.5,1.2,3.408,1.894,4.774s1.619,2.123,2.363,1.014c1.006-1.5,1.171-5.368,1.63-8.373.624-4.083,2.021-7.075,3.547-7.588,2.076-.7,3.535,2.556,4.4,7.535.845,4.863,2.448,8.617,4.281,9.806,1.18.766,2.507.635,3.448,2.842,1.637,3.836,1.187,11.585,3.491,13.611a90.806,90.806,0,0,0-38.122-1.417c-2.308.4-10.251,3.669-6-4.272a8.531,8.531,0,0,1,4.654-4.425A5.881,5.881,0,0,1,1183,517.234Z" transform="translate(-1178.259 -470.008)" fill="#ff8fa6"/>
                      <path id="Path_706" data-name="Path 706" d="M1187.444,526.107a8.214,8.214,0,0,0,1.4-2.8c.867-2.843,1.029-6.726,2.572-8.348,4.054-4.26,5.591,7.8,8.1,10.125a2.989,2.989,0,0,0,4.412-.119c.884-.877,1.6-2.247,2.482-3.122,2.5-2.475,5.64-.383,7.977,2.589,2.047,2.6,4.455,5.145,6.377,7.923,2.231,3.225-.705,2.2-2.34,2.2-2.511-.033-5.023-.112-7.535-.045l-19.662.529c-5.24.141-10.481.292-15.724.423-3.114.078-3.215-2.746-.985-6.235,2.533-3.963,4.81-3.808,7.668-2.172A3.878,3.878,0,0,0,1187.444,526.107Z" transform="translate(-1177.636 -474.835)" fill="#f16173"/>
                    </g>
                  </g>
                </g>
              </g>
            </g>
            <g id="Group_1194" data-name="Group 1194">
              <g id="Group_1180" data-name="Group 1180" transform="translate(0 12.007)">
                <g id="Group_1179" data-name="Group 1179">
                  <rect id="Rectangle_134" data-name="Rectangle 134" width="43.583" height="1.754" fill="#7daef3"/>
                  <rect id="Rectangle_135" data-name="Rectangle 135" width="14.519" height="1.754" fill="#fa513c"/>
                </g>
              </g>
              <g id="Group_1191" data-name="Group 1191">
                <g id="Group_1181" data-name="Group 1181" transform="translate(0 3.909)">
                  <rect id="Rectangle_136" data-name="Rectangle 136" width="43.583" height="1.754" fill="#7daef3"/>
                  <rect id="Rectangle_137" data-name="Rectangle 137" width="7.38" height="1.754" fill="#fcd203"/>
                </g>
                <g id="Group_1184" data-name="Group 1184" transform="translate(5.387)">
                  <g id="Group_1183" data-name="Group 1183">
                    <g id="Group_1182" data-name="Group 1182">
                      <path id="Path_707" data-name="Path 707" d="M1113.161,449.258h-3.891v2.191h1.576l.369.64.369-.64h1.576Z" transform="translate(-1109.27 -449.258)" fill="#7daef3"/>
                    </g>
                  </g>
                </g>
                <g id="Group_1187" data-name="Group 1187" transform="translate(12.573 8.29)">
                  <g id="Group_1186" data-name="Group 1186">
                    <g id="Group_1185" data-name="Group 1185">
                      <path id="Path_708" data-name="Path 708" d="M1122.578,460.121h-3.891v2.191h1.576l.369.64.369-.64h1.576Z" transform="translate(-1118.688 -460.121)" fill="#7daef3"/>
                    </g>
                  </g>
                </g>
                <g id="Group_1190" data-name="Group 1190" transform="translate(27.53 16.512)">
                  <g id="Group_1189" data-name="Group 1189">
                    <g id="Group_1188" data-name="Group 1188">
                      <path id="Path_709" data-name="Path 709" d="M1142.178,470.9h-3.891v2.191h1.576l.369.639.369-.639h1.576Z" transform="translate(-1138.287 -470.896)" fill="#7daef3"/>
                    </g>
                  </g>
                </g>
              </g>
              <g id="Group_1193" data-name="Group 1193" transform="translate(0 20.106)">
                <g id="Group_1192" data-name="Group 1192">
                  <rect id="Rectangle_138" data-name="Rectangle 138" width="43.583" height="1.754" fill="#7daef3"/>
                  <rect id="Rectangle_139" data-name="Rectangle 139" width="29.475" height="1.754" fill="#fa513c"/>
                </g>
              </g>
            </g>
          </g>
        </g>
        <g id="Group_1197" data-name="Group 1197" transform="translate(101.326 3.74)">
          <path id="Path_710" data-name="Path 710" d="M1226.382,431.558a1.36,1.36,0,1,1-1.36-1.36A1.36,1.36,0,0,1,1226.382,431.558Z" transform="translate(-1223.662 -430.198)" fill="#b1ccf1"/>
          <path id="Path_711" data-name="Path 711" d="M1233.778,431.558a1.36,1.36,0,1,1-1.36-1.36A1.36,1.36,0,0,1,1233.778,431.558Z" transform="translate(-1225.414 -430.198)" fill="#b1ccf1"/>
          <path id="Path_712" data-name="Path 712" d="M1241.174,431.558a1.36,1.36,0,1,1-1.36-1.36A1.36,1.36,0,0,1,1241.174,431.558Z" transform="translate(-1227.166 -430.198)" fill="#f16173"/>
        </g>
      </g>
      <g id="Group_1210" data-name="Group 1210" transform="translate(0 186.045)">
        <rect id="Rectangle_140" data-name="Rectangle 140" width="125.118" height="85.951" fill="#fff"/>
        <rect id="Rectangle_141" data-name="Rectangle 141" width="125.118" height="9.792" fill="#739de1"/>
        <g id="Group_1199" data-name="Group 1199" transform="translate(101.326 3.74)">
          <path id="Path_713" data-name="Path 713" d="M1226.382,580.192a1.36,1.36,0,1,1-1.36-1.361A1.36,1.36,0,0,1,1226.382,580.192Z" transform="translate(-1223.662 -578.831)" fill="#b1ccf1"/>
          <circle id="Ellipse_48" data-name="Ellipse 48" cx="1.36" cy="1.36" r="1.36" transform="translate(5.644 0)" fill="#b1ccf1"/>
          <circle id="Ellipse_49" data-name="Ellipse 49" cx="1.36" cy="1.36" r="1.36" transform="translate(11.287 0)" fill="#f16173"/>
        </g>
        <g id="Group_1209" data-name="Group 1209" transform="translate(10.258 24.76)">
          <g id="Group_1208" data-name="Group 1208">
            <path id="Path_714" data-name="Path 714" d="M1112.882,650.838l15.519-7.295,12,4.673,18.711-3.191,8.145,3.989,44.237-6.041" transform="translate(-1106.35 -615.047)" fill="none" stroke="#ffada1" stroke-miterlimit="10" stroke-width="1"/>
            <path id="Path_715" data-name="Path 715" d="M1112.882,633.717l12.767-3.419,9.686,6.079,12.253-13.07,8.512,11.854,7.851-5.015,46.291.456" transform="translate(-1106.35 -610.388)" fill="none" stroke="#ffbf82" stroke-miterlimit="10" stroke-width="1"/>
            <g id="Group_1200" data-name="Group 1200" transform="translate(6.752 6.155)">
              <path id="Path_716" data-name="Path 716" d="M1113.17,623.79l6.934-4.1,7.044,3.99,25.754-9.233,17.61,7.181,41.155-1.14" transform="translate(-1113.17 -614.443)" fill="none" stroke="#0270e3" stroke-miterlimit="10" stroke-width="1" opacity="0.5"/>
            </g>
            <g id="Group_1207" data-name="Group 1207" transform="translate(0 0.123)">
              <g id="Group_1206" data-name="Group 1206">
                <g id="Group_1201" data-name="Group 1201" transform="translate(2.073 41.737)">
                  <text id="_0-2" data-name="0" transform="translate(0 1)" fill="#739ee2" font-size="1" font-family="Montserrat-Bold, Montserrat" font-weight="700"><tspan x="0" y="0">0</tspan></text>
                </g>
                <g id="Group_1202" data-name="Group 1202" transform="translate(0 31.27)">
                  <text id="_20-2" data-name="20" transform="translate(0 1)" fill="#739ee2" font-size="1" font-family="Montserrat-Bold, Montserrat" font-weight="700"><tspan x="0" y="0">20</tspan></text>
                </g>
                <g id="Group_1203" data-name="Group 1203" transform="translate(0 20.802)">
                  <text id="_40-2" data-name="40" transform="translate(0 1)" fill="#739ee2" font-size="1" font-family="Montserrat-Bold, Montserrat" font-weight="700"><tspan x="0" y="0">40</tspan></text>
                </g>
                <g id="Group_1204" data-name="Group 1204" transform="translate(0 10.335)">
                  <text id="_60-2" data-name="60" transform="translate(0 1)" fill="#739ee2" font-size="1" font-family="Montserrat-Bold, Montserrat" font-weight="700"><tspan x="0" y="0">60</tspan></text>
                </g>
                <g id="Group_1205" data-name="Group 1205" transform="translate(1.133)">
                  <text id="_2" data-name="%" transform="translate(0 1)" fill="#739ee2" font-size="1" font-family="Montserrat-Bold, Montserrat" font-weight="700"><tspan x="0" y="0">%</tspan></text>
                </g>
              </g>
            </g>
            <path id="Path_717" data-name="Path 717" d="M1112.882,606.378v44.53h98.566" transform="translate(-1106.35 -606.378)" fill="none" stroke="#7daef3" stroke-miterlimit="10" stroke-width="1"/>
          </g>
        </g>
        <text id="LOREM_IPSUM-2" data-name="LOREM IPSUM" transform="translate(91.255 20.76)" fill="#7daef3" font-size="2" font-family="Montserrat-Medium, Montserrat" font-weight="500"><tspan x="0" y="0">LOREM IPSUM</tspan></text>
      </g>
      <g id="Group_1211" data-name="Group 1211" transform="translate(101.326 76.363)">
        <path id="Path_718" data-name="Path 718" d="M1226.382,431.558a1.36,1.36,0,1,1-1.36-1.36A1.36,1.36,0,0,1,1226.382,431.558Z" transform="translate(-1223.662 -430.198)" fill="#b1ccf1"/>
        <path id="Path_719" data-name="Path 719" d="M1233.778,431.558a1.36,1.36,0,1,1-1.36-1.36A1.36,1.36,0,0,1,1233.778,431.558Z" transform="translate(-1225.414 -430.198)" fill="#b1ccf1"/>
        <path id="Path_720" data-name="Path 720" d="M1241.174,431.558a1.36,1.36,0,1,1-1.36-1.36A1.36,1.36,0,0,1,1241.174,431.558Z" transform="translate(-1227.166 -430.198)" fill="#f16173"/>
      </g>
      <path id="Path_721" data-name="Path 721" d="M1172.066,758.687a1.059,1.059,0,0,1-.511.305,4.108,4.108,0,0,1-.519.092c-.26.038-.534.069-.8.092a6.631,6.631,0,0,1-1.29.023.685.685,0,0,1-.122-.023,2.45,2.45,0,0,1-1.091-.473c-.153-.114-.336-.259-.526-.42a12.731,12.731,0,0,1-1.519-1.381c-.313-.366-.74-.626-1.03-1.007a3.332,3.332,0,0,1-.672-1.686,1.653,1.653,0,0,1,.427-1.4,1.4,1.4,0,0,1,.794-.313,2.824,2.824,0,0,1,2.4,1.114,7.769,7.769,0,0,0,1.5,1.824,2.016,2.016,0,0,0,.336.175c.488.221,1.038.3,1.519.542a2.5,2.5,0,0,1,1.213,1.335c.015.038.023.069.038.107a.046.046,0,0,0,.008.03A1.125,1.125,0,0,1,1172.066,758.687Z" transform="translate(-1108.195 -430.183)" fill="#006ac0"/>
      <path id="Path_722" data-name="Path 722" d="M1197.313,758.568a1.059,1.059,0,0,1-.511.305,4.125,4.125,0,0,1-.519.092c-.26.038-.534.069-.8.092a6.626,6.626,0,0,1-1.29.023.681.681,0,0,1-.122-.023,2.449,2.449,0,0,1-1.091-.473c-.153-.115-.336-.259-.527-.42a12.732,12.732,0,0,1-1.519-1.381c-.313-.366-.74-.626-1.03-1.007a3.336,3.336,0,0,1-.672-1.686,1.655,1.655,0,0,1,.427-1.4,1.4,1.4,0,0,1,.793-.313,2.824,2.824,0,0,1,2.4,1.114,7.765,7.765,0,0,0,1.5,1.824,2,2,0,0,0,.336.176c.488.221,1.038.3,1.519.542a2.506,2.506,0,0,1,1.213,1.335c.015.038.023.069.038.107a.046.046,0,0,0,.008.031A1.125,1.125,0,0,1,1197.313,758.568Z" transform="translate(-1114.176 -430.155)" fill="#006ac0"/>
      <path id="Path_723" data-name="Path 723" d="M1171.452,733.387h-3.845c-4-21.513-3.748-31.849-2.849-36.73a29.324,29.324,0,0,0-.136-11.04,109.654,109.654,0,0,1-1.589-26.09,25.273,25.273,0,0,0,4.911-.564c.571-.1,1.114-.193,1.589-.275.475.082,1.011.179,1.582.275,2.152.35,8.182.191,8.44.325C1180.577,659.821,1174.018,719.568,1171.452,733.387Z" transform="translate(-1107.928 -407.964)" fill="#4b84da"/>
      <path id="Path_724" data-name="Path 724" d="M1191.747,733.387h3.844c4.138-22.281,3.725-32.574,2.75-37.232a22.525,22.525,0,0,1,0-9.388,108.442,108.442,0,0,0,1.828-27.24,25.272,25.272,0,0,1-4.911-.564c-.571-.1-1.114-.193-1.589-.275-.475.082-1.011.179-1.582.275-2.153.35-8.07.282-8.328.416C1182.734,659.912,1189.18,719.568,1191.747,733.387Z" transform="translate(-1112.856 -407.964)" fill="#4b84da"/>
      <path id="Path_725" data-name="Path 725" d="M1172.558,759.962a1.292,1.292,0,0,1-.664.183h-2.068a2.452,2.452,0,0,1-1.091-.473c-.152-.115-.336-.259-.526-.42l.672-2.679h3.838l.473,1.915c.008.023.008.046.015.069a.046.046,0,0,0,.008.031A1.33,1.33,0,0,1,1172.558,759.962Z" transform="translate(-1109.198 -431.154)" fill="#006ac0"/>
      <path id="Path_726" data-name="Path 726" d="M1194.145,756.462h3.844l.387,1.568a1.616,1.616,0,0,1-1.569,2h-1.487a1.615,1.615,0,0,1-1.567-2.009Z" transform="translate(-1115.238 -431.127)" fill="#006ac0"/>
      <g id="Group_1212" data-name="Group 1212" transform="translate(57.264 172.127)">
        <path id="Path_727" data-name="Path 727" d="M1193.418,559.14a12.543,12.543,0,0,1,1.211-1.256,10.7,10.7,0,0,1,1.617-1.1,6.857,6.857,0,0,1,2.855-1.082,3.812,3.812,0,0,1,2.327.588.991.991,0,0,1,.557.822c-.034.423-.5.647-.9.8a19.739,19.739,0,0,0-2.243,1.044.925.925,0,0,0-.39.32.329.329,0,0,0,.093.447.478.478,0,0,0,.269.021l1.785-.205a.8.8,0,0,1-.128,1.039,2.251,2.251,0,0,1-1.026.493q-1.874.521-3.792.864a4.152,4.152,0,0,0-1.66.534,1.163,1.163,0,0,1-.549.283.89.89,0,0,1-.656-.4c-.351-.4-1.081-.99-.831-1.553A8.566,8.566,0,0,1,1193.418,559.14Z" transform="translate(-1172.078 -555.691)" fill="#fbcfa8"/>
        <path id="Path_728" data-name="Path 728" d="M1170.657,602.882c2.876-1.387,5.911-2.906,7.608-5.618,1.931-3.092,1.684-6.994,1.615-10.641-.106-6.016.517-12.261,3.576-17.443a24.746,24.746,0,0,1,4.851-5.791l-1.405-2.933c-.9.669-1.733,1.522-2.178,1.883a66.68,66.68,0,0,0-5.5,5.033,53.551,53.551,0,0,0-8.726,11.7c-3.046,5.591-4.178,15.007-4.56,19.513a4.659,4.659,0,0,0,1.954,4.272,2.348,2.348,0,0,0,1.37.467A3.544,3.544,0,0,0,1170.657,602.882Z" transform="translate(-1165.921 -556.82)" fill="#fa513c"/>
      </g>
      <path id="Path_729" data-name="Path 729" d="M1193.248,649.618h-28.579a4.8,4.8,0,0,1-4.8-4.905c.511-22.989,4.569-35.56,7.569-41.785a9.55,9.55,0,0,1,8.739-5.285c1.125.011,2.194.025,2.944.035h.083c.7-.01,1.59-.022,2.517-.033a9.557,9.557,0,0,1,8.755,5.285c3,6.226,7.057,18.8,7.568,41.783A4.8,4.8,0,0,1,1193.248,649.618Z" transform="translate(-1107.223 -393.503)" fill="#fa513c"/>
      <g id="Group_1213" data-name="Group 1213" transform="translate(37.336 312.082)" style="mix-blend-mode: multiply;isolation: isolate">
        <path id="Path_730" data-name="Path 730" d="M1191.763,742.956c-11.928-5.149-31.25-5.149-43.1,0-11.875,5.16-11.788,13.518.14,18.669s31.226,5.16,43.1,0c11.851-5.15,11.788-13.519-.141-18.669" transform="translate(-1139.807 -739.094)" fill="#d9e4f4"/>
      </g>
      <g id="Group_1214" data-name="Group 1214" transform="translate(63.954 127.497)">
        <path id="Path_731" data-name="Path 731" d="M1186.976,497.982a17.406,17.406,0,1,0,21.758,11.511A17.4,17.4,0,0,0,1186.976,497.982Zm8.966,29.113a13.057,13.057,0,1,1,8.635-16.321A13.055,13.055,0,0,1,1195.943,527.1Z" transform="translate(-1174.688 -497.206)" fill="#739ee2"/>
        <rect id="Rectangle_142" data-name="Rectangle 142" width="4.895" height="3.717" transform="matrix(0.956, -0.294, 0.294, 0.956, 19.77, 33.384)" fill="#739ee2"/>
        <path id="Rectangle_143" data-name="Rectangle 143" d="M2.708,0H4.364A2.707,2.707,0,0,1,7.072,2.707V34.556a2.708,2.708,0,0,1-2.708,2.708H2.708A2.708,2.708,0,0,1,0,34.556V2.708A2.708,2.708,0,0,1,2.708,0Z" transform="matrix(0.956, -0.294, 0.294, 0.956, 19.383, 35.827)" fill="#b1ccf1"/>
      </g>
      <g id="Group_1215" data-name="Group 1215" transform="translate(75.811 170.302)">
        <path id="Path_732" data-name="Path 732" d="M1217.434,561.763a12.574,12.574,0,0,0,.41-1.7,10.689,10.689,0,0,0,.06-1.96,6.872,6.872,0,0,0-.621-3,3.818,3.818,0,0,0-1.75-1.653.994.994,0,0,0-.994-.029c-.339.257-.278.773-.2,1.19a19.757,19.757,0,0,1,.325,2.459.921.921,0,0,1-.062.5.329.329,0,0,1-.429.163.48.48,0,0,1-.162-.216l-.787-1.621a.8.8,0,0,0-.81.668,2.261,2.261,0,0,0,.135,1.132q.568,1.867,1.31,3.674a4.164,4.164,0,0,1,.441,1.692,1.171,1.171,0,0,0,.056.617.894.894,0,0,0,.689.34c.53.08,1.42.382,1.762-.132A8.628,8.628,0,0,0,1217.434,561.763Z" transform="translate(-1195.476 -553.3)" fill="#fbcfa8"/>
        <path id="Path_733" data-name="Path 733" d="M1190.226,601.968a8.791,8.791,0,0,0,8.13,4.551,12.509,12.509,0,0,0,8.586-4.273,22.109,22.109,0,0,0,4.569-8.633c2.806-9.327,1.745-19.322.657-29a9.313,9.313,0,0,0-3.233.5,50.987,50.987,0,0,1-.041,11.33c-.394,3.406-1.177,6.876-3.159,9.672-1.875,2.646-4.659,4.469-7.2,6.489a14.238,14.238,0,0,0-4.075,4.51,14.449,14.449,0,0,0-1.215,4.5,11.715,11.715,0,0,0,.026,4.665,4.6,4.6,0,0,0,2.983,3.352" transform="translate(-1190.226 -555.979)" fill="#fa513c"/>
      </g>
      <path id="Path_734" data-name="Path 734" d="M1174.529,580.013c-.709,3.584-.711,7.332-1.971,10.762a30.492,30.492,0,0,0-1.7,4.635,12.114,12.114,0,0,0,.106,4.31,15.993,15.993,0,0,0,1.17,4.038,11.955,11.955,0,0,0,10.223,6.669,13.4,13.4,0,0,0,11.062-5.465,15.253,15.253,0,0,0,2.44-12.214c-.662-2.971-2.146-5.7-2.95-8.635-.958-3.5-1-7.406-3.129-10.345-1.893-2.61-6.494-4.634-9.608-3.007C1177,572.419,1175.178,576.729,1174.529,580.013Z" transform="translate(-1109.791 -386.996)" fill="#0270e3"/>
      <g id="Group_1251" data-name="Group 1251" transform="translate(0 0)">
        <rect id="Rectangle_144" data-name="Rectangle 144" width="123.305" height="55.85" fill="#fff"/>
        <g id="Group_1249" data-name="Group 1249" transform="translate(11.141 13.454)">
          <g id="Group_1247" data-name="Group 1247" transform="translate(0 9.071)">
            <g id="Group_1224" data-name="Group 1224">
              <g id="Group_1216" data-name="Group 1216" transform="translate(10.636 10.636)">
                <path id="Path_735" data-name="Path 735" d="M1119.417,373.585" transform="translate(-1119.417 -373.585)" fill="none" stroke="#707070" stroke-miterlimit="10" stroke-width="1.023"/>
              </g>
              <g id="Group_1218" data-name="Group 1218" transform="translate(3.115 5.682)">
                <g id="Group_1217" data-name="Group 1217">
                  <path id="Path_736" data-name="Path 736" d="M1109.561,372.047a7.513,7.513,0,0,1,1.862-4.954l.8.7a6.453,6.453,0,1,0,9.983,8.168l.848.649a7.521,7.521,0,0,1-13.5-4.568Z" transform="translate(-1109.561 -367.093)" fill="#b1ccf1"/>
                </g>
              </g>
              <g id="Group_1220" data-name="Group 1220" transform="translate(4.844 3.115)">
                <g id="Group_1219" data-name="Group 1219">
                  <path id="Path_737" data-name="Path 737" d="M1111.827,366.648a.534.534,0,0,1,.133-.352,7.521,7.521,0,0,1,11.634,9.522.534.534,0,0,1-.848-.649,6.4,6.4,0,0,0,1.325-3.919,6.452,6.452,0,0,0-11.308-4.25.534.534,0,0,1-.936-.353Z" transform="translate(-1111.827 -363.729)" fill="#f16173"/>
                </g>
              </g>
              <path id="Path_738" data-name="Path 738" d="M1112.924,372.047a4.954,4.954,0,1,1,7.977,3.926l-.652-.846a3.886,3.886,0,1,0-4.606.1l-.616.873A4.964,4.964,0,0,1,1112.924,372.047Z" transform="translate(-1107.243 -361.411)" fill="#b1ccf1"/>
              <g id="Group_1222" data-name="Group 1222" transform="translate(7.558 13.606)">
                <g id="Group_1221" data-name="Group 1221">
                  <path id="Path_739" data-name="Path 739" d="M1115.383,378.122a.529.529,0,0,1,.1-.307.534.534,0,0,1,.744-.129,3.888,3.888,0,0,0,4.606-.1.534.534,0,1,1,.652.846,4.955,4.955,0,0,1-5.874.126A.533.533,0,0,1,1115.383,378.122Z" transform="translate(-1115.383 -377.476)" fill="#ff8fa6"/>
                </g>
              </g>
              <path id="Path_740" data-name="Path 740" d="M1105.479,370.283a10.648,10.648,0,0,1,10.636-10.636,10.538,10.538,0,0,1,6.464,2.19l-.649.847a9.481,9.481,0,0,0-5.815-1.969,9.569,9.569,0,0,0-5.194,17.605l-.58.9A10.606,10.606,0,0,1,1105.479,370.283Z" transform="translate(-1105.479 -359.647)" fill="#b1ccf1"/>
              <g id="Group_1223" data-name="Group 1223" transform="translate(4.618 2.079)">
                <path id="Path_741" data-name="Path 741" d="M1111.531,379.414a.535.535,0,0,1,.824-.448,9.569,9.569,0,0,0,11.008-15.637.534.534,0,1,1,.649-.847,10.637,10.637,0,0,1-12.238,17.38A.534.534,0,0,1,1111.531,379.414Z" transform="translate(-1111.531 -362.372)" fill="#fcd203"/>
              </g>
            </g>
            <g id="Group_1235" data-name="Group 1235" transform="translate(48.799)">
              <g id="Group_1225" data-name="Group 1225" transform="translate(10.636 10.636)">
                <path id="Path_742" data-name="Path 742" d="M1183.366,373.585" transform="translate(-1183.366 -373.585)" fill="none" stroke="#707070" stroke-miterlimit="10" stroke-width="1.023"/>
              </g>
              <g id="Group_1227" data-name="Group 1227" transform="translate(3.115 3.116)">
                <g id="Group_1226" data-name="Group 1226">
                  <path id="Path_743" data-name="Path 743" d="M1181.031,363.73a7.521,7.521,0,0,1,7.521,7.52h-1.068a6.453,6.453,0,1,0-10.371,5.127l-.649.849a7.521,7.521,0,0,1,4.567-13.5Z" transform="translate(-1173.51 -363.73)" fill="#b1ccf1"/>
                </g>
              </g>
              <g id="Group_1229" data-name="Group 1229" transform="translate(5.681 5.681)">
                <g id="Group_1228" data-name="Group 1228">
                  <path id="Path_744" data-name="Path 744" d="M1181.828,367.092v1.068a3.886,3.886,0,1,0,2.323,7l.639.856a4.955,4.955,0,1,1-2.961-8.927Z" transform="translate(-1176.873 -367.092)" fill="#b1ccf1"/>
                </g>
              </g>
              <path id="Path_745" data-name="Path 745" d="M1180.064,359.647a10.628,10.628,0,0,1,3.464.577l-.348,1.01a9.571,9.571,0,0,0-6.738,17.908l-.4.989a10.638,10.638,0,0,1,4.026-20.484Z" transform="translate(-1169.428 -359.647)" fill="#b1ccf1"/>
              <g id="Group_1231" data-name="Group 1231" transform="translate(5.859 10.102)">
                <g id="Group_1230" data-name="Group 1230">
                  <path id="Path_746" data-name="Path 746" d="M1188.87,372.885a.535.535,0,0,1,.534.534,7.53,7.53,0,0,1-7.521,7.521,7.449,7.449,0,0,1-4.567-1.545.534.534,0,0,1,.649-.849,6.391,6.391,0,0,0,3.919,1.326,6.46,6.46,0,0,0,6.453-6.453A.534.534,0,0,1,1188.87,372.885Z" transform="translate(-1177.106 -372.885)" fill="#f16173"/>
                </g>
              </g>
              <g id="Group_1233" data-name="Group 1233" transform="translate(10.102 5.681)">
                <g id="Group_1232" data-name="Group 1232">
                  <path id="Path_747" data-name="Path 747" d="M1183.2,367.092a4.955,4.955,0,0,1,2.962,8.927.534.534,0,0,1-.639-.856,3.887,3.887,0,0,0-2.323-7,.534.534,0,1,1,0-1.068Z" transform="translate(-1182.666 -367.092)" fill="#ff8fa6"/>
                </g>
              </g>
              <g id="Group_1234" data-name="Group 1234" transform="translate(6.278 0.548)">
                <path id="Path_748" data-name="Path 748" d="M1185.3,360.365a.535.535,0,0,1,.174.029,10.639,10.639,0,1,1-7.491,19.907.534.534,0,0,1,.4-.989,9.57,9.57,0,1,0,6.738-17.908.534.534,0,0,1,.174-1.039Z" transform="translate(-1177.655 -360.365)" fill="#fcd203"/>
              </g>
            </g>
            <g id="Group_1246" data-name="Group 1246" transform="translate(24.399)">
              <g id="Group_1236" data-name="Group 1236" transform="translate(10.636 10.636)">
                <path id="Path_749" data-name="Path 749" d="M1151.391,373.585" transform="translate(-1151.391 -373.585)" fill="none" stroke="#707070" stroke-miterlimit="10" stroke-width="1.023"/>
              </g>
              <g id="Group_1238" data-name="Group 1238" transform="translate(3.115 5.682)">
                <g id="Group_1237" data-name="Group 1237">
                  <path id="Path_750" data-name="Path 750" d="M1141.535,372.047a7.514,7.514,0,0,1,1.863-4.954l.8.7a6.453,6.453,0,1,0,9.983,8.168l.849.649a7.52,7.52,0,0,1-13.5-4.568Z" transform="translate(-1141.535 -367.093)" fill="#b1ccf1"/>
                </g>
              </g>
              <g id="Group_1240" data-name="Group 1240" transform="translate(4.845 3.115)">
                <g id="Group_1239" data-name="Group 1239">
                  <path id="Path_751" data-name="Path 751" d="M1143.8,366.648a.53.53,0,0,1,.133-.352,7.521,7.521,0,0,1,11.634,9.522.534.534,0,0,1-.849-.649,6.392,6.392,0,0,0,1.325-3.919,6.453,6.453,0,0,0-11.308-4.25.534.534,0,0,1-.936-.353Z" transform="translate(-1143.802 -363.729)" fill="#f16173"/>
                </g>
              </g>
              <path id="Path_752" data-name="Path 752" d="M1145.031,371.049a4.955,4.955,0,1,1,7.876,4.924l-.653-.846a3.887,3.887,0,1,0-6.177-3.864Z" transform="translate(-1139.248 -361.411)" fill="#b1ccf1"/>
              <g id="Group_1242" data-name="Group 1242" transform="translate(5.681 9.211)">
                <g id="Group_1241" data-name="Group 1241">
                  <path id="Path_753" data-name="Path 753" d="M1144.9,373.143a4.967,4.967,0,0,1,.1-1,.534.534,0,0,1,1.046.214,3.891,3.891,0,0,0,1.571,3.963,3.888,3.888,0,0,0,4.606-.1.534.534,0,1,1,.653.846,4.956,4.956,0,0,1-5.874.126A4.965,4.965,0,0,1,1144.9,373.143Z" transform="translate(-1144.898 -371.718)" fill="#ff8fa6"/>
                </g>
              </g>
              <g id="Group_1244" data-name="Group 1244">
                <g id="Group_1243" data-name="Group 1243">
                  <path id="Path_754" data-name="Path 754" d="M1137.453,370.283a10.649,10.649,0,0,1,10.636-10.636,10.539,10.539,0,0,1,6.465,2.19l-.65.847a9.477,9.477,0,0,0-5.815-1.969,9.568,9.568,0,1,0,4.44,18.046l.5.946a10.637,10.637,0,0,1-15.572-9.424Z" transform="translate(-1137.453 -359.647)" fill="#b1ccf1"/>
                </g>
              </g>
              <g id="Group_1245" data-name="Group 1245" transform="translate(14.79 2.079)">
                <path id="Path_755" data-name="Path 755" d="M1156.834,379.88a.534.534,0,0,1,.286-.473,9.571,9.571,0,0,0,1.375-16.077.534.534,0,0,1,.65-.847,10.639,10.639,0,0,1-1.529,17.87.534.534,0,0,1-.782-.473Z" transform="translate(-1156.834 -362.372)" fill="#fcd203"/>
              </g>
            </g>
          </g>
          <g id="Group_1248" data-name="Group 1248" transform="translate(1.904)">
            <text id="Lorem_ipsum_dolor_sit_amet_consectetuer_adipiscing_elit_sed_diam_nonummy_nibh_euismod_tincidunt_ut_laoreet_dolore_magna_aliquam_erat_volutpat._" data-name="Lorem ipsum dolor sit amet, consectetuer adipiscing elit, sed diam nonummy nibh euismod tincidunt ut laoreet dolore magna aliquam erat volutpat. " transform="translate(75.615 10.022)" fill="#b1ccf1" font-size="2.586" font-family="Montserrat-Regular, Montserrat"><tspan x="0" y="3">Lorem ipsum </tspan><tspan x="0" y="6.88">dolor sit amet, </tspan><tspan x="0" y="10.759">consectetuer </tspan><tspan x="0" y="14.639">adipiscing elit, </tspan><tspan x="0" y="18.519">sed diam </tspan><tspan x="0" y="22.399">nonummy nibh </tspan></text>
            <text id="LOREM_IPSUM_" data-name="LOREM IPSUM " transform="translate(0 2)" fill="#7daef3" font-size="2" font-family="Montserrat-Medium, Montserrat" font-weight="500"><tspan x="0" y="0">LOREM IPSUM </tspan></text>
          </g>
        </g>
        <g id="Group_1250" data-name="Group 1250" transform="translate(103.194 4.488)">
          <path id="Path_756" data-name="Path 756" d="M1228.829,337.37a1.36,1.36,0,1,1-1.36-1.36A1.36,1.36,0,0,1,1228.829,337.37Z" transform="translate(-1226.109 -336.01)" fill="#b1ccf1"/>
          <circle id="Ellipse_50" data-name="Ellipse 50" cx="1.36" cy="1.36" r="1.36" transform="translate(5.644)" fill="#b1ccf1"/>
          <path id="Path_757" data-name="Path 757" d="M1243.622,337.37a1.36,1.36,0,1,1-1.36-1.36A1.36,1.36,0,0,1,1243.622,337.37Z" transform="translate(-1229.614 -336.01)" fill="#f16173"/>
        </g>
      </g>
    </g>
  </g>
</svg>
