<svg xmlns="http://www.w3.org/2000/svg" xmlns:xlink="http://www.w3.org/1999/xlink" width="295" height="349.511" viewBox="0 0 295 349.511">
  <defs>
    <clipPath id="clip-path">
      <path id="Path_763" data-name="Path 763" d="M1302.2,631.509l.25-88.252c-.035,12.535,8.236,25.089,24.8,34.653l-.25,88.252C1310.437,656.6,1302.166,644.044,1302.2,631.509Z" transform="translate(-1302.201 -543.257)" fill="none"/>
    </clipPath>
    <clipPath id="clip-path-2">
      <path id="Path_766" data-name="Path 766" d="M1488.631,616.927l-.107,37.654a14.307,14.307,0,0,0-.872-4.924l.107-37.654A14.319,14.319,0,0,1,1488.631,616.927Z" transform="translate(-1487.652 -612.003)" fill="none"/>
    </clipPath>
    <clipPath id="clip-path-3">
      <path id="Path_777" data-name="Path 777" d="M1421.743,468.864l.069-24.24,29.048,16.771-.069,24.24Z" transform="translate(-1421.743 -444.624)" fill="none"/>
    </clipPath>
    <clipPath id="clip-path-4">
      <path id="Path_780" data-name="Path 780" d="M1474.578,459.987l.045-15.864,19.011,10.976-.045,15.864Z" transform="translate(-1474.578 -444.123)" fill="none"/>
    </clipPath>
    <clipPath id="clip-path-5">
      <path id="Path_783" data-name="Path 783" d="M1515.017,451.711l.025-8.835,10.587,6.113-.025,8.835Z" transform="translate(-1515.017 -442.876)" fill="none"/>
    </clipPath>
    <clipPath id="clip-path-6">
      <path id="Path_786" data-name="Path 786" d="M1540.691,445.243l.016-5.762,6.9,3.986-.016,5.762Z" transform="translate(-1540.691 -439.481)" fill="none"/>
    </clipPath>
    <clipPath id="clip-path-7">
      <path id="Path_875" data-name="Path 875" d="M1350.195,510.434l16.667-9.686,23.149,13.365-16.667,9.686Z" transform="translate(-1350.195 -500.748)" fill="none"/>
    </clipPath>
    <clipPath id="clip-path-8">
      <path id="Path_884" data-name="Path 884" d="M1384.855,491.234l.039-13.9,12.107,6.99-.04,13.9Z" transform="translate(-1384.855 -477.33)" fill="none"/>
    </clipPath>
  </defs>
  <g id="Group_1406" data-name="Group 1406" transform="translate(-316.443 -323)">
    <g id="Group_1405" data-name="Group 1405" transform="translate(316.393 323)">
      <ellipse id="Ellipse_51" data-name="Ellipse 51" cx="147.5" cy="148" rx="147.5" ry="148" transform="translate(0.05 0)" fill="#f9f8f1"/>
      <g id="Group_1254" data-name="Group 1254" transform="translate(13.744 66.222)">
        <g id="Group_1254-2" data-name="Group 1254" transform="translate(0 196.846)" style="mix-blend-mode: multiply;isolation: isolate">
          <path id="Path_758" data-name="Path 758" d="M1419.909,637.057c-39.061-16.864-102.331-16.864-141.139,0-38.887,16.9-38.6,44.27.46,61.134s102.253,16.9,141.139,0c38.809-16.864,38.6-44.27-.46-61.134" transform="translate(-1249.768 -624.409)" fill="#d9e4f4"/>
        </g>
        <g id="Group_1286" data-name="Group 1286" transform="translate(35.072 94.116)">
          <g id="Group_1264" data-name="Group 1264">
            <g id="Group_1263" data-name="Group 1263" style="isolation: isolate">
              <g id="Group_1255" data-name="Group 1255" transform="translate(124.062 40.005)">
                <path id="Path_759" data-name="Path 759" d="M1530.542,530.636l-.25,88.252-42.621,3.874.25-88.252Z" transform="translate(-1487.67 -530.636)" fill="#f1f6ff"/>
              </g>
              <path id="Path_760" data-name="Path 760" d="M1436.669,515.13c-.964-.557-1.967-1.076-3-1.565-.344-.163-.708-.3-1.058-.461-.61-.271-1.21-.552-1.839-.8-.073-.029-.153-.048-.226-.076-1.419-.552-2.886-1.043-4.389-1.482-.12-.035-.23-.084-.35-.118-.342-.1-.7-.165-1.046-.256-.841-.223-1.685-.436-2.545-.624-.227-.05-.446-.118-.674-.165-.337-.07-.684-.114-1.023-.178-.717-.136-1.436-.264-2.163-.377-.292-.045-.577-.11-.87-.151-.319-.045-.645-.067-.965-.108-.678-.086-1.357-.162-2.041-.228-.325-.031-.646-.082-.971-.108-.305-.025-.613-.028-.918-.049-.691-.047-1.381-.084-2.074-.111-.347-.013-.692-.047-1.04-.056-.278-.007-.557.008-.836,0-.748-.009-1.494,0-2.241.011-.371.007-.743-.008-1.114,0-.221.008-.439.035-.66.044-.924.04-1.844.108-2.762.184-.371.031-.747.037-1.117.075-.115.011-.227.035-.343.047q-2.35.246-4.65.648c-.074.013-.153.018-.227.031-.445.08-.876.193-1.318.282-.758.154-1.517.3-2.262.484-.542.132-1.07.287-1.6.432-.709.193-1.417.385-2.11.6-.149.046-.3.081-.452.128-.249.081-.477.191-.724.274q-1.646.561-3.215,1.218c-.391.164-.783.325-1.167.5a42.379,42.379,0,0,0-3.858,1.951q-.286.166-.564.334c-.383.231-.71.481-1.073.718-.479.314-.97.624-1.417.949-.418.3-.793.621-1.182.935-.414.335-.839.666-1.219,1.009-.079.072-.175.138-.253.209-.528.489-1.015.989-1.476,1.494-.1.108-.182.217-.278.325-.265.3-.536.6-.778.909-.112.143-.187.293-.294.437-.342.459-.647.923-.936,1.391-.125.2-.29.4-.4.6-.063.112-.1.228-.159.341-.221.412-.4.828-.583,1.245-.106.246-.252.488-.345.735-.037.1-.05.2-.085.3-.139.395-.238.793-.342,1.191-.071.271-.178.538-.233.811-.018.09-.015.181-.031.272-.075.415-.106.829-.142,1.245-.025.276-.087.551-.095.828q-.007.24-.006.48l-.25,88.252c0-.437.062-.874.1-1.31.037-.415.068-.829.142-1.242.065-.362.169-.722.264-1.082.1-.4.2-.8.342-1.191.122-.347.28-.689.429-1.033.181-.417.363-.833.583-1.245.17-.317.37-.629.564-.942.289-.468.595-.933.937-1.392s.682-.9,1.069-1.343c.1-.109.182-.219.281-.328.528-.579,1.111-1.145,1.728-1.7.38-.344.805-.676,1.22-1.01.388-.312.763-.629,1.18-.933.447-.326.939-.636,1.419-.95.539-.353,1.054-.714,1.635-1.052a42.538,42.538,0,0,1,3.859-1.952c.383-.173.775-.334,1.166-.5q1.568-.658,3.216-1.219c.392-.134.777-.278,1.175-.4.692-.218,1.4-.409,2.11-.6.534-.145,1.062-.3,1.6-.432.748-.181,1.512-.332,2.274-.486.51-.1,1.014-.219,1.531-.31,1.531-.271,3.086-.484,4.654-.648.484-.051.972-.082,1.458-.122.918-.076,1.838-.144,2.762-.184.59-.026,1.181-.038,1.772-.049.749-.014,1.5-.021,2.247-.011.623.008,1.245.027,1.867.052q1.042.041,2.079.111.946.066,1.887.158,1.027.1,2.046.228.918.117,1.828.258c.727.113,1.449.241,2.167.377.568.108,1.134.22,1.7.343.859.188,1.7.4,2.545.623.466.124.936.241,1.4.375,1.5.439,2.969.93,4.387,1.482.706.275,1.39.577,2.072.88.349.155.71.3,1.051.457,1.031.49,2.036,1.009,3,1.565,5.889,3.4,9.624,7.583,11.192,11.957l.251-88.252C1446.292,522.712,1442.558,518.53,1436.669,515.13Z" transform="translate(-1323.549 -483.207)" fill="#b1ccf1"/>
              <g id="Group_1257" data-name="Group 1257" transform="translate(24.803 65.435)">
                <g id="Group_1256" data-name="Group 1256">
                  <path id="Path_761" data-name="Path 761" d="M1369.931,568.653l-.25,88.252-30.4,17.666.25-88.252Z" transform="translate(-1339.282 -568.653)" fill="#d9e4f5"/>
                </g>
              </g>
              <g id="Group_1260" data-name="Group 1260" transform="translate(0 48.447)" style="isolation: isolate">
                <g id="Group_1259" data-name="Group 1259" clip-path="url(#clip-path)">
                  <g id="Group_1258" data-name="Group 1258">
                    <path id="Path_762" data-name="Path 762" d="M1327.255,577.91l-.25,88.252c-16.568-9.565-24.839-22.119-24.8-34.653l.25-88.252c-.035,12.535,8.236,25.089,24.8,34.653" transform="translate(-1302.201 -543.257)" fill="#f1f6ff"/>
                  </g>
                </g>
              </g>
              <g id="Group_1262" data-name="Group 1262" transform="translate(0.25)">
                <g id="Group_1261" data-name="Group 1261">
                  <path id="Path_764" data-name="Path 764" d="M1445.844,485.086c12.626,7.29,20.421,16.32,23.414,25.749l-42.621,3.874c-1.569-4.374-5.3-8.556-11.192-11.956-16.018-9.248-41.924-9.248-57.846.005-7.966,4.63-11.929,10.69-11.894,16.756s4.055,12.121,12.073,16.751l-30.4,17.666c-32.93-19.012-33.085-49.832-.379-68.838S1412.914,466.074,1445.844,485.086Z" transform="translate(-1302.575 -470.83)" fill="#fff"/>
                </g>
              </g>
            </g>
          </g>
          <g id="Group_1285" data-name="Group 1285" transform="translate(24.804 87.718)">
            <g id="Group_1273" data-name="Group 1273" transform="translate(85.55 2.845)">
              <g id="Group_1272" data-name="Group 1272" style="isolation: isolate">
                <g id="Group_1267" data-name="Group 1267" transform="translate(13.696 3.869)" style="isolation: isolate">
                  <g id="Group_1266" data-name="Group 1266" clip-path="url(#clip-path-2)">
                    <g id="Group_1265" data-name="Group 1265" style="isolation: isolate">
                      <path id="Path_765" data-name="Path 765" d="M1488.631,616.927l-.107,37.654a14.307,14.307,0,0,0-.872-4.924l.107-37.654a14.319,14.319,0,0,1,.872,4.924" transform="translate(-1487.652 -612.003)" fill="#f2ab66"/>
                    </g>
                  </g>
                </g>
                <g id="Group_1269" data-name="Group 1269" transform="translate(0 26.861)">
                  <g id="Group_1268" data-name="Group 1268">
                    <path id="Path_767" data-name="Path 767" d="M1494.566,665.777l-.107,37.654-27.282-19.4.106-37.654Z" transform="translate(-1467.177 -646.376)" fill="#fdb502"/>
                  </g>
                </g>
                <path id="Path_768" data-name="Path 768" d="M1538.422,621.05c-.024.423-.049.845-.091,1.268-.037.368-.088.735-.139,1.1-.058.419-.12.839-.2,1.258-.068.371-.149.741-.232,1.111-.092.408-.188.817-.3,1.224-.1.371-.211.74-.325,1.11-.126.405-.258.81-.4,1.214-.129.363-.268.725-.411,1.087q-.253.635-.534,1.268c-.159.356-.323.71-.5,1.065-.205.419-.423.838-.647,1.255-.185.342-.372.683-.569,1.022-.286.491-.592.979-.906,1.465-.2.306-.388.612-.6.916-.361.528-.75,1.05-1.145,1.572-.2.27-.394.542-.607.81-.1.123-.2.245-.3.369q-.653.8-1.362,1.6c-.126.142-.25.284-.379.425q-.841.921-1.754,1.825c-.116.116-.24.229-.358.344-.457.442-.934.88-1.417,1.315-.389.351-.789.7-1.2,1.046-.383.326-.77.651-1.167.973-.423.342-.859.681-1.3,1.018-.413.317-.83.632-1.259.944-.456.332-.926.66-1.4.987-.445.307-.893.613-1.353.915-.491.322-1,.639-1.5.955-.661.411-1.316.825-2.006,1.226-1.932,1.123-3.938,2.182-6,3.166l-.106,37.655c2.062-.985,4.067-2.043,6-3.167q.568-.33,1.122-.665c.3-.183.583-.374.881-.559.51-.317,1.016-.635,1.508-.958.459-.3.905-.607,1.349-.912.476-.328.946-.657,1.4-.99.427-.312.844-.626,1.256-.943.441-.338.877-.676,1.3-1.019.4-.321.784-.646,1.166-.971q.611-.521,1.2-1.047c.168-.152.351-.3.517-.452.308-.285.6-.575.9-.862.118-.115.241-.229.358-.344q.914-.9,1.754-1.824c.129-.142.253-.284.38-.427q.706-.792,1.358-1.594c.1-.124.206-.247.305-.371.049-.062.1-.122.15-.183.162-.206.3-.417.455-.623.4-.523.785-1.046,1.147-1.575.207-.3.4-.609.6-.914.314-.487.62-.975.906-1.467.08-.138.176-.272.253-.411.114-.2.205-.407.314-.609.226-.418.444-.838.649-1.258q.259-.53.5-1.062.283-.633.535-1.27c.075-.19.168-.379.24-.569.064-.172.11-.344.171-.516.144-.4.276-.808.4-1.214.115-.369.226-.739.325-1.11.11-.407.207-.815.3-1.224.049-.221.116-.44.161-.661.03-.15.043-.3.071-.45.077-.418.139-.836.2-1.256.051-.369.1-.736.139-1.106.042-.422.067-.844.09-1.266.014-.246.046-.492.053-.739s.011-.5.012-.746l.107-37.654C1538.486,620.061,1538.449,620.556,1538.422,621.05Z" transform="translate(-1480.681 -610.638)" fill="#fdb502"/>
                <g id="Group_1271" data-name="Group 1271" transform="translate(0.107)">
                  <g id="Group_1270" data-name="Group 1270">
                    <path id="Path_769" data-name="Path 769" d="M1523.645,606.219c4.807,15.165-2.845,31.368-23.026,43.1-1.932,1.123-3.938,2.182-6,3.167l-27.282-19.4c.925-.463,1.823-.931,2.684-1.432,10.081-5.858,13.737-14.016,11.012-21.561Z" transform="translate(-1467.337 -606.219)" fill="#fcd203"/>
                  </g>
                </g>
              </g>
            </g>
            <g id="Group_1279" data-name="Group 1279" transform="translate(70.224 48.511)">
              <g id="Group_1278" data-name="Group 1278" style="isolation: isolate">
                <path id="Path_770" data-name="Path 770" d="M1489.334,705.01c-.364.157-.736.305-1.1.458-.772.322-1.547.64-2.333.944-.441.171-.887.334-1.332.5q-1.1.409-2.215.8-.7.243-1.407.476c-.692.229-1.39.449-2.09.666-.613.189-1.227.377-1.846.557q-1.009.293-2.031.567c-.625.17-1.251.338-1.883.5-.686.174-1.377.339-2.069.5-.637.15-1.275.3-1.917.44-.7.153-1.4.3-2.1.438-.646.13-1.292.261-1.942.381-1.146.213-2.3.42-3.453.6l-.053,18.827q1.378-.219,2.745-.465c.237-.043.471-.095.708-.139.651-.12,1.3-.251,1.943-.381.7-.142,1.406-.285,2.1-.438.643-.14,1.28-.29,1.918-.44.692-.163,1.383-.328,2.069-.5.631-.161,1.258-.328,1.883-.5.68-.184,1.359-.371,2.031-.567.619-.18,1.234-.367,1.848-.557.375-.116.758-.221,1.13-.341.322-.1.635-.217.956-.323q.71-.235,1.414-.479,1.113-.384,2.206-.794c.448-.166.9-.33,1.34-.5.783-.3,1.554-.619,2.322-.94.371-.155.747-.3,1.115-.462q1.677-.723,3.307-1.5l.023-.011.053-18.827C1491.575,704.024,1490.461,704.525,1489.334,705.01Z" transform="translate(-1449.989 -684.094)" fill="#4b84da"/>
                <g id="Group_1274" data-name="Group 1274" transform="translate(0 4.661)">
                  <path id="Path_771" data-name="Path 771" d="M1455.882,705.541l-.053,18.827-11.563-24.083.053-18.827Z" transform="translate(-1444.265 -681.457)" fill="#12427f"/>
                </g>
                <g id="Group_1277" data-name="Group 1277" transform="translate(0.053)">
                  <g id="Group_1276" data-name="Group 1276">
                    <g id="Group_1275" data-name="Group 1275">
                      <path id="Path_772" data-name="Path 772" d="M1459.7,674.489l27.273,19.406a113.428,113.428,0,0,1-31.062,9.339l-11.563-24.083A55.17,55.17,0,0,0,1459.7,674.489Z" transform="translate(-1444.345 -674.489)" fill="#739de1"/>
                    </g>
                  </g>
                </g>
              </g>
            </g>
            <g id="Group_1284" data-name="Group 1284">
              <g id="Group_1283" data-name="Group 1283" style="isolation: isolate">
                <path id="Path_773" data-name="Path 773" d="M1421.26,640.891c-2.353.373-4.735.664-7.125.916-.809.086-1.617.17-2.429.241-.668.06-1.336.116-2.007.167-1.067.079-2.137.141-3.208.2-.632.033-1.261.071-1.893.095-.529.021-1.06.023-1.589.038q-3.42.094-6.846.031c-.411-.008-.823-.005-1.235-.017-2.417-.067-4.828-.2-7.229-.387-.552-.043-1.1-.1-1.654-.146q-3.2-.287-6.366-.711c-.358-.049-.718-.086-1.076-.137-2.446-.352-4.864-.781-7.26-1.262-.83-.167-1.657-.337-2.48-.52-.619-.136-1.239-.272-1.854-.418-1.06-.251-2.109-.523-3.154-.8-.537-.142-1.078-.276-1.611-.426-.757-.212-1.5-.45-2.247-.676-.957-.29-1.916-.575-2.857-.887-.739-.245-1.462-.512-2.191-.772-.91-.324-1.821-.645-2.714-.99-.532-.206-1.05-.43-1.576-.644q-2.2-.894-4.318-1.878c-.529-.246-1.06-.489-1.581-.743-1.81-.883-3.588-1.8-5.294-2.785l-.187,65.895c1.706.985,3.484,1.9,5.293,2.784.522.255,1.054.5,1.584.744q2.117.984,4.314,1.876c.332.135.643.293.977.425.2.078.4.143.6.22.891.344,1.8.665,2.708.988.731.26,1.455.528,2.2.774.942.313,1.9.6,2.861.888.6.181,1.183.383,1.787.555.148.042.3.078.45.119.539.151,1.086.287,1.629.431,1.039.276,2.08.546,3.134.8.62.147,1.245.284,1.87.422.567.126,1.127.265,1.7.383.253.052.515.082.769.133,2.4.481,4.815.91,7.263,1.262.092.013.181.034.272.047.266.037.538.054.8.09q3.165.429,6.368.712c.333.029.66.084.993.111.217.017.438.018.655.035q3.6.281,7.229.387c.128,0,.255.017.383.021.288.007.576-.009.864,0q3.42.065,6.837-.031c.3-.008.611.007.916,0,.226-.007.449-.025.674-.033.631-.025,1.261-.062,1.892-.1,1.072-.056,2.141-.118,3.209-.2.668-.049,1.333-.106,2-.165.517-.046,1.037-.078,1.552-.129.3-.029.589-.082.888-.114,2.389-.253,4.769-.543,7.12-.916Z" transform="translate(-1339.282 -610.71)" fill="#fa513c"/>
                <g id="Group_1282" data-name="Group 1282" transform="translate(0.187)">
                  <g id="Group_1281" data-name="Group 1281">
                    <g id="Group_1280" data-name="Group 1280">
                      <path id="Path_774" data-name="Path 774" d="M1409.781,608.058l11.572,24.089c-28.149,4.464-59.581.308-81.792-12.515l30.4-17.666C1380.78,608.213,1396.078,610.234,1409.781,608.058Z" transform="translate(-1339.561 -601.966)" fill="#ff7166"/>
                    </g>
                  </g>
                </g>
              </g>
            </g>
          </g>
        </g>
        <g id="Group_1304" data-name="Group 1304" transform="translate(115.035 73.147)">
          <g id="Group_1290" data-name="Group 1290" transform="translate(0 3.44)">
            <g id="Group_1289" data-name="Group 1289" style="isolation: isolate">
              <g id="Group_1288" data-name="Group 1288" clip-path="url(#clip-path-3)">
                <g id="Group_1287" data-name="Group 1287" transform="translate(0 0.166)">
                  <path id="Path_775" data-name="Path 775" d="M1450.749,461.311l-28.471-16.438,14.2,19.436,14.267-3" transform="translate(-1421.92 -444.873)" fill="#739de1"/>
                  <path id="Path_776" data-name="Path 776" d="M1450.853,465.982l-14.557,3.06L1421.8,450.819l-.062,20.1,29.048,16.771.062-21.7" transform="translate(-1421.743 -446.841)" fill="#739de1"/>
                </g>
              </g>
            </g>
          </g>
          <g id="Group_1295" data-name="Group 1295" transform="translate(35.341 3.105)">
            <g id="Group_1294" data-name="Group 1294" style="isolation: isolate">
              <g id="Group_1293" data-name="Group 1293" clip-path="url(#clip-path-4)">
                <g id="Group_1292" data-name="Group 1292" transform="translate(0 0.109)">
                  <g id="Group_1291" data-name="Group 1291">
                    <path id="Path_778" data-name="Path 778" d="M1493.561,455.044l-18.634-10.758,9.3,12.721,9.338-1.962" transform="translate(-1474.693 -444.285)" fill="#fa513c"/>
                    <path id="Path_779" data-name="Path 779" d="M1493.629,458.1l-9.527,2-9.484-11.927-.04,13.152,19.011,10.976.04-14.2" transform="translate(-1474.578 -445.574)" fill="#fa513c"/>
                  </g>
                </g>
              </g>
            </g>
          </g>
          <g id="Group_1299" data-name="Group 1299" transform="translate(62.391 2.271)">
            <g id="Group_1298" data-name="Group 1298" style="isolation: isolate">
              <g id="Group_1297" data-name="Group 1297" clip-path="url(#clip-path-5)">
                <g id="Group_1296" data-name="Group 1296" transform="translate(0 0.061)">
                  <path id="Path_781" data-name="Path 781" d="M1525.589,448.958l-10.377-5.991,5.177,7.084,5.2-1.093" transform="translate(-1515.081 -442.967)" fill="#739de1"/>
                  <path id="Path_782" data-name="Path 782" d="M1525.626,450.661l-5.306,1.115-5.282-6.642-.022,7.325,10.587,6.113.022-7.911" transform="translate(-1515.017 -443.685)" fill="#739de1"/>
                </g>
              </g>
            </g>
          </g>
          <g id="Group_1303" data-name="Group 1303" transform="translate(79.565)">
            <g id="Group_1302" data-name="Group 1302" style="isolation: isolate">
              <g id="Group_1301" data-name="Group 1301" clip-path="url(#clip-path-6)">
                <g id="Group_1300" data-name="Group 1300" transform="translate(0 0.04)">
                  <path id="Path_784" data-name="Path 784" d="M1547.585,443.447l-6.768-3.907,3.376,4.62,3.391-.713" transform="translate(-1540.733 -439.54)" fill="#fa513c"/>
                  <path id="Path_785" data-name="Path 785" d="M1547.61,444.558l-3.46.727-3.445-4.332-.015,4.777,6.9,3.986.015-5.159" transform="translate(-1540.691 -440.008)" fill="#fa513c"/>
                </g>
              </g>
            </g>
          </g>
        </g>
        <path id="Path_787" data-name="Path 787" d="M1351.342,517.508s16.71-6.684,24.305-3.646c0,0,2.836,1.621,1.317,11.748l-22.078,10.229s-5.874.1-5.874-.709S1351.342,517.508,1351.342,517.508Z" transform="translate(-1282.627 -390.699)" fill="#0a59bd"/>
        <path id="Path_788" data-name="Path 788" d="M1400.76,588.9s-1.062,2.05.4,2.912l10.527-1.827s.949-2.2-2.244-2.129-4.434,2.181-5.582-.577Z" transform="translate(-1299.638 -415.27)" fill="#4282e9"/>
        <path id="Path_789" data-name="Path 789" d="M1343.783,535.172s21.741-11.478,33.758-7.292c0,0,5.258,8.993-2.3,40.186l-3.5.864-5.4-27.142s-6.617,9.993-25.116,15.124-32-13.233-27.682-23.5Z" transform="translate(-1270.613 -395.299)" fill="#066ee5"/>
        <path id="Path_790" data-name="Path 790" d="M1349.682,449.674a20.194,20.194,0,0,1-.851,5.359,6.328,6.328,0,0,1-2.345,3.353c-2.125,1.386-4.92.682-7.444.931l-.106,2.515a1.021,1.021,0,0,1-.265.785,1.007,1.007,0,0,1-.66.143,10.3,10.3,0,0,1-5.264-1.107c-1.546-.95-3.356-2.128-2.6-3.778.318-.694,1.682-2.09,2.023-2.772.577-1.149.4-2.522.692-3.774a6.976,6.976,0,0,1,2.81-3.857,27.714,27.714,0,0,1,4.268-2.335,54.688,54.688,0,0,0,5.872-3.353c1.365-.9,3.871-2.179,4,.225A69.449,69.449,0,0,1,1349.682,449.674Z" transform="translate(-1276.323 -366.714)" fill="#fbcfa8"/>
        <path id="Path_791" data-name="Path 791" d="M1351.432,439.569c-.162,2.272-.954,4.466-1.081,6.767-.041.749-.233,1.7-.981,1.826-.989.185-1.421-1.277-2.348-1.647a1.812,1.812,0,0,0-2.08.981,18.628,18.628,0,0,0-.845,2.389,5.9,5.9,0,0,1-3.8,3.3,8.967,8.967,0,0,1-5.134-.137,4.441,4.441,0,0,1-1.86-.989,4.561,4.561,0,0,1-1.064-2.567c-.837-5,.408-11.649,5.29-14.187a17.2,17.2,0,0,1,5.207-1.545,13.055,13.055,0,0,1,4.175-.159,5.507,5.507,0,0,1,3.576,1.992,5.67,5.67,0,0,1,.967,3.619C1351.447,439.333,1351.44,439.452,1351.432,439.569Z" transform="translate(-1276.993 -364.352)" fill="#0270e3"/>
        <g id="Group_1313" data-name="Group 1313" transform="translate(63.796 88.887)">
          <path id="Path_792" data-name="Path 792" d="M1407.234,522.848c0,.01,0,.019,0,.029s0,.015-.006.023,0,.019-.008.027-.006.015-.009.023l-.013.029-.013.021c-.007.011-.013.021-.021.032l-.015.019a.543.543,0,0,1-.039.042l-.015.015-.029.023-.026.021-.033.022-.035.023-18.6,10.808a1,1,0,0,1-.129.062l-.036.013c-.028.01-.057.018-.086.027l-.093.023c-.037.007-.074.015-.112.019l-.027,0a1.5,1.5,0,0,1-.156.008h-.024a1.334,1.334,0,0,1-.644-.157l0,.814a1.311,1.311,0,0,0,.615.155v0h.095c.034,0,.069,0,.1-.007h.011l.027,0,.08-.011.033-.008c.031-.007.062-.015.092-.023s.033-.007.05-.013l.037-.014.036-.013a.938.938,0,0,0,.129-.062l18.6-10.808.011-.007.023-.016.033-.022.026-.021a.3.3,0,0,0,.028-.023l.006,0,.009-.01a.555.555,0,0,0,.039-.042l.009-.009.006-.009c.008-.011.016-.021.022-.032l.009-.013,0-.007a.209.209,0,0,0,.013-.029l.008-.017,0-.006c0-.009.005-.018.007-.027a.092.092,0,0,0,.005-.019v0a.223.223,0,0,0,0-.029c0-.007,0-.013,0-.019v-.008l0-.814C1407.236,522.83,1407.234,522.839,1407.234,522.848Z" transform="translate(-1359.02 -482.815)" fill="#7daef3"/>
          <g id="Group_1306" data-name="Group 1306" transform="translate(0 34.779)">
            <g id="Group_1305" data-name="Group 1305">
              <path id="Path_793" data-name="Path 793" d="M1373.8,531.575l0,.814-.091,0-.09-.01c-.031-.005-.062-.01-.091-.017s-.066-.015-.1-.023-.075-.024-.111-.037a1.066,1.066,0,0,1-.134-.064L1345.416,516.2a.462.462,0,0,1-.274-.381l0-.814a.464.464,0,0,0,.273.381l27.765,16.03a1.154,1.154,0,0,0,.132.064c.036.014.073.026.112.037s.064.017.1.024l.091.016.09.01C1373.736,531.572,1373.766,531.573,1373.8,531.575Z" transform="translate(-1345.142 -515.007)" fill="#7daef3"/>
            </g>
          </g>
          <g id="Group_1307" data-name="Group 1307" transform="translate(0.003 23.438)">
            <path id="Path_794" data-name="Path 794" d="M1393.086,514.239a.4.4,0,0,1,0,.757l-18.6,10.808a1.44,1.44,0,0,1-1.308,0l-27.765-16.03a.4.4,0,0,1,0-.758l18.6-10.808a1.441,1.441,0,0,1,1.308,0Z" transform="translate(-1345.146 -498.052)" fill="#d9e4f5"/>
          </g>
          <path id="Path_795" data-name="Path 795" d="M1416.681,487.521l.7-.409a1.441,1.441,0,0,1,.653,1.132l-.7.409A1.442,1.442,0,0,0,1416.681,487.521Z" transform="translate(-1368.828 -470.992)" fill="none"/>
          <path id="Path_796" data-name="Path 796" d="M1403.747,479.435l-.025-.031-.025-.029-.025-.028-.027-.028-.027-.027-.029-.027-.03-.025-.029-.024-.029-.021-.029-.021-.027-.018-.028-.017-.006,0-27.765-16.03-.021-.011-.027-.014-.017-.008,0,0-.005,0-.026-.011-.026-.01h-.009l-.017-.006-.027-.007-.013,0h-.005l-.008,0-.029,0-.017,0h-.077a.23.23,0,0,0-.037.005h0l-.008,0a.227.227,0,0,0-.037.01h0a.34.34,0,0,0-.051.023l-.7.409a.336.336,0,0,1,.05-.023l.04-.011.008,0a.4.4,0,0,1,.05-.007h.01a.4.4,0,0,1,.049,0h.006a.4.4,0,0,1,.055.008h.005c.019,0,.038.009.057.016h0c.021.007.041.015.062.025l0,0a.656.656,0,0,1,.065.033l27.765,16.03.006,0,.028.017.027.019.029.02.029.022.029.023.03.025.029.027.027.027.027.028.025.029.025.029.026.031c.01.012.019.025.029.038l.7-.409Z" transform="translate(-1354.854 -463.013)" fill="#7daef3"/>
          <path id="Path_797" data-name="Path 797" d="M1418.219,488.383v-.031l0-.032h0l0-.032,0-.033-.005-.033-.007-.034-.008-.034-.009-.035-.01-.035-.011-.034-.011-.033-.012-.032-.013-.031-.013-.031-.015-.032-.017-.035-.02-.039-.033-.058c-.016-.026-.032-.052-.049-.078s-.027-.039-.042-.059l-.7.409c.015.019.028.039.042.059s.033.051.049.078.022.038.032.057l.021.039.017.035.014.031.014.031.013.032.012.032.012.033.01.034.011.034.009.035.008.035.007.034.005.033,0,.033,0,.031,0,.032v.031c0,.01,0,.02,0,.029l-.061,21.511c0,.025,0,.049,0,.072v.006c0,.021-.005.042-.009.062v.008c0,.019-.009.037-.014.054l0,.009a.471.471,0,0,1-.018.047l0,.005a.453.453,0,0,1-.026.047.368.368,0,0,1-.046.056l-.012.011a.305.305,0,0,1-.056.042l.7-.409a.3.3,0,0,0,.056-.042l.012-.012a.3.3,0,0,0,.046-.056h0a.409.409,0,0,0,.025-.045v0l0,0a.268.268,0,0,0,.013-.031l.006-.016,0-.009,0-.009c0-.011.006-.022.009-.033l0-.013,0-.008,0-.011,0-.031,0-.018v-.014l0-.031v-.033l.061-21.511Z" transform="translate(-1369.009 -471.16)" fill="#7daef3"/>
          <g id="Group_1308" data-name="Group 1308" transform="translate(19.369 0.409)">
            <path id="Path_798" data-name="Path 798" d="M1402.582,479.744a1.442,1.442,0,0,1,.654,1.132l-.061,21.511c0,.417-.3.584-.658.375l-27.765-16.03a1.439,1.439,0,0,1-.653-1.132l.061-21.512c0-.415.3-.583.658-.375Z" transform="translate(-1374.098 -463.625)" fill="#daeeff"/>
            <path id="Path_799" data-name="Path 799" d="M1375.88,486.585a.442.442,0,0,1-.1-.177l.058-20.311,26.73,15.432a.445.445,0,0,1,.1.178l-.058,20.311Z" transform="translate(-1374.654 -464.443)" fill="#fff"/>
          </g>
          <g id="Group_1312" data-name="Group 1312" transform="translate(3.38 25.241)">
            <g id="Group_1311" data-name="Group 1311" style="isolation: isolate">
              <g id="Group_1310" data-name="Group 1310" clip-path="url(#clip-path-7)">
                <g id="Group_1309" data-name="Group 1309" transform="translate(6.384 0.041)">
                  <path id="Path_800" data-name="Path 800" d="M1381.848,517.409l.7-.4,1.4.809-.7.4-1.4-.809M1362.079,506l1.393-.81,1.4.81-1.393.809-1.4-.809m1.546.892,1.393-.809,1.4.809-1.393.809-1.4-.809m1.575.91,1.393-.809,1.4.809-1.393.809-1.4-.809m1.606.927,1.393-.809,1.831,1.057-1.393.809-1.831-1.057m1.967,1.136,1.393-.809,7.763,4.482-1.393.809-7.763-4.482m7.928,4.577,1.393-.809,1.771,1.022-1.393.809-1.771-1.022m1.918,1.107,1.393-.809,1.4.809-1.393.809-1.4-.809m1.624.938,1.393-.809,1.4.809-1.393.809-1.4-.809m2.373.481.625-.364,1.4.809-.625.364-1.4-.809m.827,1.366,1.393-.809,1.4.809-1.393.809-1.4-.809m-19.792-13.246,1.393-.809,1.7.983-1.393.809-1.7-.983m1.95,1.126,1.393-.809,1.4.809-1.393.809-1.4-.809m3.17,1.829,1.393-.809,1.4.809-1.393.809-1.4-.809m1.585.915,1.393-.809,1.4.809-1.393.809-1.4-.809m1.584.915,1.393-.809,1.4.809-1.393.809-1.4-.809m1.585.914,1.393-.809,1.4.809-1.393.809-1.4-.809m1.585.915,1.393-.809,1.4.809-1.393.809-1.4-.809m1.585.915,1.393-.809,1.4.809-1.393.809-1.4-.809m1.585.915,1.393-.81,1.4.81-1.393.809-1.4-.809m1.585.914,1.393-.809,1.4.809-1.393.809-1.4-.809m1.585.915,1.393-.809,1.4.809-1.393.809-1.4-.809m1.612.93,1.393-.809,3.362,1.941-1.393.809-3.362-1.941m-15.87-9.166,1.393-.81,1.4.809-1.393.81-1.4-.809m-2.019-2.922,1.393-.809,2.583,1.492-1.393.809-2.584-1.492m2.759,1.577,1.393-.809,1.4.809-1.393.809-1.4-.809m1.585.915,1.393-.809,1.4.809-1.393.809-1.4-.809m1.585.915,1.393-.81,1.4.81-1.393.809-1.4-.809m1.584.914,1.393-.809,1.4.809-1.393.809-1.4-.809m1.585.915,1.393-.809,1.4.809-1.393.809-1.4-.809m1.585.915,1.393-.809,1.4.809-1.393.809-1.4-.809m1.584.914,1.393-.809,1.4.809-1.393.809-1.4-.809m1.585.915,1.393-.809,1.4.809-1.393.809-1.4-.809m1.585.915,1.393-.809,1.4.809-1.393.809-1.4-.809m1.584.914,1.393-.809,1.4.809-1.393.809-1.4-.809m1.585.915,1.393-.809,1.4.809-1.393.809-1.4-.809m1.571.907,1.393-.809,1.4.809-1.393.809-1.4-.809m-18.632-12.53,1.393-.809,2.2,1.27-1.393.809-2.2-1.27m2.383,1.376,1.393-.809,1.4.809-1.393.809-1.4-.809m1.585.915,1.393-.809,1.4.809-1.393.809-1.4-.809m1.585.914,1.393-.809,1.4.809-1.393.81-1.4-.81m1.585.916,1.393-.809,1.4.809-1.393.809-1.4-.809m1.584.914,1.393-.809,1.4.809-1.393.809-1.4-.809m1.585.915,1.393-.809,1.4.809-1.393.809-1.4-.809m1.585.914,1.393-.809,1.4.809-1.393.809-1.4-.809m1.584.915,1.393-.809,1.4.809-1.393.809-1.4-.809m1.585.915,1.393-.81,1.4.81-1.393.809-1.4-.809m1.585.915,1.393-.809,1.4.809-1.393.809-1.4-.809m1.585.914,1.393-.809,1.4.809-1.393.809-1.4-.809m1.571.907,1.393-.809,1.4.809-1.393.809-1.4-.809m1.568.9,1.393-.809,1.4.809-2.922,1.7-1.036-.6,1.53-.889-.366-.211m-19.839-13.226,1.393-.809,1.4.809-1.393.809-1.4-.809m1.583.914,1.393-.809,1.4.809-1.393.809-1.4-.809m1.585.915,1.393-.81,1.4.809-1.393.81-1.4-.809m1.585.915,1.393-.809,1.4.809-1.393.809-1.4-.809m1.584.914,1.393-.809,1.4.809-1.393.809-1.4-.809m1.585.915,1.393-.809,1.4.809-1.393.809-1.4-.809m1.585.914,1.393-.809,1.4.809-1.393.809-1.4-.809m1.584.915,1.393-.809,1.4.809-1.393.809-1.4-.809m1.585.915,1.393-.809,1.4.809-1.393.809-1.4-.809m1.585.915,1.393-.809,1.4.809-1.393.809-1.4-.809m1.584.914,1.393-.809,1.4.809-1.393.809-1.4-.809m1.584.915,1.393-.809,1.4.809-1.393.809-1.4-.809m1.547.893,1.393-.809,1.4.809-1.393.809-1.4-.809m1.612.931,1.393-.809,2.183,1.26-1.393.809-2.183-1.26M1370.865,502l.555-.322,1.244.718-.555.322-1.244-.718m1.561.9.554-.322,1.244.718-.554.322-1.244-.718m1.56.9.555-.322,1.243.718-.554.322-1.243-.718m1.56.9.554-.322,1.244.718-.554.322-1.244-.718m10.337,5.968.554-.322,1.244.718-.554.322-1.244-.718m1.56.9.554-.322,1.243.718-.554.322-1.243-.718m1.561.9.554-.322,1.243.718-.554.322-1.244-.718m1.56.9.554-.322,1.243.718-.554.322-1.243-.718m3.13.694-22.906-13.225a.269.269,0,0,0-.242,0l-8.81,5.12a.074.074,0,0,0,0,.14l22.905,13.225a.268.268,0,0,0,.243,0l8.811-5.12c.068-.039.066-.1,0-.14" transform="translate(-1360.383 -500.809)" fill="#b1ccf1"/>
                  <path id="Path_801" data-name="Path 801" d="M1375.07,511.216l-1.4-.809-1.393.809,1.4.809,1.393-.809" transform="translate(-1363.89 -503.987)" fill="#fff"/>
                  <path id="Path_802" data-name="Path 802" d="M1372.705,509.846l-1.4-.809-1.393.809,1.4.809,1.393-.809" transform="translate(-1363.107 -503.533)" fill="#fff"/>
                  <path id="Path_803" data-name="Path 803" d="M1370.332,508.481l-1.4-.809-1.393.809,1.4.809,1.393-.809" transform="translate(-1362.321 -503.081)" fill="#fff"/>
                  <path id="Path_804" data-name="Path 804" d="M1382.177,515.32l-1.4-.809-1.393.809,1.4.809,1.393-.809" transform="translate(-1366.243 -505.346)" fill="#fff"/>
                  <path id="Path_805" data-name="Path 805" d="M1379.808,513.952l-1.4-.809-1.393.809,1.4.809,1.393-.809" transform="translate(-1365.458 -504.893)" fill="#fff"/>
                  <path id="Path_806" data-name="Path 806" d="M1377.439,512.584l-1.4-.809-1.393.809,1.4.809,1.393-.809" transform="translate(-1364.674 -504.44)" fill="#fff"/>
                  <path id="Path_807" data-name="Path 807" d="M1389.284,519.423l-1.4-.809-1.393.809,1.4.809,1.393-.809" transform="translate(-1368.596 -506.704)" fill="#fff"/>
                  <path id="Path_808" data-name="Path 808" d="M1386.914,518.055l-1.4-.809-1.393.809,1.4.809,1.393-.809" transform="translate(-1367.812 -506.251)" fill="#fff"/>
                  <path id="Path_809" data-name="Path 809" d="M1384.545,516.687l-1.4-.809-1.393.809,1.4.809,1.393-.809" transform="translate(-1367.027 -505.798)" fill="#fff"/>
                  <path id="Path_810" data-name="Path 810" d="M1394.021,522.158l-1.4-.809-1.393.809,1.4.809,1.393-.809" transform="translate(-1370.164 -507.61)" fill="#fff"/>
                  <path id="Path_811" data-name="Path 811" d="M1395,525.225l-1.4-.809-.625.363,1.4.81.626-.364" transform="translate(-1370.743 -508.625)" fill="#fff"/>
                  <path id="Path_812" data-name="Path 812" d="M1393.927,525.829l-1.4-.809-.7.4,1.4.809.7-.4" transform="translate(-1370.364 -508.825)" fill="#fff"/>
                  <path id="Path_813" data-name="Path 813" d="M1381.436,517.611l-7.763-4.482-1.393.809,7.763,4.482,1.393-.809" transform="translate(-1363.891 -504.889)" fill="#fff"/>
                  <path id="Path_814" data-name="Path 814" d="M1372.563,512.489l-1.831-1.057-1.393.809,1.831,1.057,1.393-.809" transform="translate(-1362.918 -504.326)" fill="#fff"/>
                  <path id="Path_815" data-name="Path 815" d="M1369.734,510.855l-1.4-.809-1.393.809,1.4.809,1.393-.809" transform="translate(-1362.123 -503.867)" fill="#fff"/>
                  <path id="Path_816" data-name="Path 816" d="M1367.379,509.5l-1.4-.809-1.393.809,1.4.809,1.393-.809" transform="translate(-1361.343 -503.417)" fill="#fff"/>
                  <path id="Path_817" data-name="Path 817" d="M1365.069,508.162l-1.4-.809-1.393.809,1.4.809,1.393-.809" transform="translate(-1360.578 -502.976)" fill="#fff"/>
                  <path id="Path_818" data-name="Path 818" d="M1392.223,523.839l-1.4-.809-1.393.809,1.4.809,1.393-.809" transform="translate(-1369.569 -508.166)" fill="#fff"/>
                  <path id="Path_819" data-name="Path 819" d="M1389.795,522.437l-1.4-.809-1.393.809,1.4.809,1.393-.809" transform="translate(-1368.765 -507.702)" fill="#fff"/>
                  <path id="Path_820" data-name="Path 820" d="M1387.3,521l-1.771-1.022-1.393.809,1.771,1.022L1387.3,521" transform="translate(-1367.816 -507.154)" fill="#fff"/>
                  <path id="Path_821" data-name="Path 821" d="M1397.006,526.6l-1.4-.809-1.393.809,1.4.809,1.393-.809" transform="translate(-1371.152 -509.081)" fill="#fff"/>
                  <path id="Path_822" data-name="Path 822" d="M1398.391,524.681l-3.362-1.941-1.393.809,3.362,1.941,1.393-.809" transform="translate(-1370.963 -508.071)" fill="#fff"/>
                  <path id="Path_823" data-name="Path 823" d="M1391.652,520.79l-1.4-.809-1.393.809,1.4.809,1.393-.809" transform="translate(-1369.38 -507.157)" fill="#fff"/>
                  <path id="Path_824" data-name="Path 824" d="M1378.55,510.571l-1.4-.809-1.393.809,1.4.809,1.393-.809" transform="translate(-1365.042 -503.773)" fill="#fff"/>
                  <path id="Path_825" data-name="Path 825" d="M1376.181,509.2l-1.4-.809-1.393.809,1.4.809,1.393-.809" transform="translate(-1364.258 -503.321)" fill="#fff"/>
                  <path id="Path_826" data-name="Path 826" d="M1373.813,507.836l-1.4-.809-1.393.809,1.4.809,1.393-.809" transform="translate(-1363.473 -502.868)" fill="#fff"/>
                  <path id="Path_827" data-name="Path 827" d="M1385.657,514.674l-1.4-.809-1.393.809,1.4.809,1.393-.809" transform="translate(-1367.395 -505.132)" fill="#fff"/>
                  <path id="Path_828" data-name="Path 828" d="M1383.289,513.307l-1.4-.809-1.393.809,1.4.809,1.393-.809" transform="translate(-1366.611 -504.679)" fill="#fff"/>
                  <path id="Path_829" data-name="Path 829" d="M1380.919,511.938l-1.4-.809-1.393.809,1.4.809,1.393-.809" transform="translate(-1365.826 -504.226)" fill="#fff"/>
                  <path id="Path_830" data-name="Path 830" d="M1392.764,518.777l-1.4-.809-1.393.809,1.4.809,1.393-.809" transform="translate(-1369.748 -506.49)" fill="#fff"/>
                  <path id="Path_831" data-name="Path 831" d="M1390.395,517.409l-1.4-.809-1.393.809,1.4.809,1.393-.81" transform="translate(-1368.964 -506.038)" fill="#fff"/>
                  <path id="Path_832" data-name="Path 832" d="M1388.026,516.042l-1.4-.809-1.393.809,1.4.809,1.393-.809" transform="translate(-1368.179 -505.585)" fill="#fff"/>
                  <path id="Path_833" data-name="Path 833" d="M1397.5,521.513l-1.4-.809-1.393.809,1.4.81,1.393-.81" transform="translate(-1371.317 -507.396)" fill="#fff"/>
                  <path id="Path_834" data-name="Path 834" d="M1399.85,522.869l-1.4-.809-1.393.809,1.4.809,1.393-.809" transform="translate(-1372.094 -507.845)" fill="#fff"/>
                  <path id="Path_835" data-name="Path 835" d="M1401.6,521.227l-1.4-.809-1.393.809,1.4.809,1.393-.809" transform="translate(-1372.673 -507.301)" fill="#fff"/>
                  <path id="Path_836" data-name="Path 836" d="M1403.365,522.58l-1.4-.809-1.393.809.366.211-1.53.889,1.036.6,2.922-1.7" transform="translate(-1372.873 -507.749)" fill="#fff"/>
                  <path id="Path_837" data-name="Path 837" d="M1402.651,519.186l-1.4-.809-1.393.809,1.4.809,1.393-.809" transform="translate(-1373.022 -506.626)" fill="#fff"/>
                  <path id="Path_838" data-name="Path 838" d="M1405.842,521.028l-2.182-1.26-1.393.809,2.182,1.26,1.393-.809" transform="translate(-1373.82 -507.086)" fill="#fff"/>
                  <path id="Path_839" data-name="Path 839" d="M1395.132,520.145l-1.4-.809-1.393.809,1.4.809,1.393-.809" transform="translate(-1370.532 -506.943)" fill="#fff"/>
                  <path id="Path_840" data-name="Path 840" d="M1380.3,508.929l-1.4-.809-1.393.809,1.4.809,1.393-.809" transform="translate(-1365.62 -503.23)" fill="#fff"/>
                  <path id="Path_841" data-name="Path 841" d="M1377.929,507.561l-1.4-.809-1.393.809,1.4.809,1.393-.809" transform="translate(-1364.836 -502.777)" fill="#fff"/>
                  <path id="Path_842" data-name="Path 842" d="M1375.56,506.194l-1.4-.809-1.393.809,1.4.809,1.393-.809" transform="translate(-1364.052 -502.324)" fill="#fff"/>
                  <path id="Path_843" data-name="Path 843" d="M1387.4,513.032l-1.4-.809-1.393.809,1.4.809,1.393-.809" transform="translate(-1367.974 -504.588)" fill="#fff"/>
                  <path id="Path_844" data-name="Path 844" d="M1385.036,511.665l-1.4-.809-1.393.809,1.4.809,1.393-.809" transform="translate(-1367.189 -504.135)" fill="#fff"/>
                  <path id="Path_845" data-name="Path 845" d="M1382.667,510.3l-1.4-.809-1.393.809,1.4.809,1.393-.809" transform="translate(-1366.405 -503.683)" fill="#fff"/>
                  <path id="Path_846" data-name="Path 846" d="M1394.511,517.135l-1.4-.809-1.393.809,1.4.809,1.393-.809" transform="translate(-1370.326 -505.947)" fill="#fff"/>
                  <path id="Path_847" data-name="Path 847" d="M1392.142,515.767l-1.4-.809-1.393.809,1.4.809,1.393-.809" transform="translate(-1369.542 -505.494)" fill="#fff"/>
                  <path id="Path_848" data-name="Path 848" d="M1389.773,514.4l-1.4-.809-1.393.809,1.4.809,1.393-.809" transform="translate(-1368.758 -505.041)" fill="#fff"/>
                  <path id="Path_849" data-name="Path 849" d="M1399.249,519.871l-1.4-.809-1.393.809,1.4.809,1.393-.809" transform="translate(-1371.895 -506.852)" fill="#fff"/>
                  <path id="Path_850" data-name="Path 850" d="M1396.88,518.5l-1.4-.809-1.393.809,1.4.809,1.393-.809" transform="translate(-1371.111 -506.4)" fill="#fff"/>
                  <path id="Path_851" data-name="Path 851" d="M1381.388,506.909l-1.4-.809-1.393.809,1.4.809,1.393-.809" transform="translate(-1365.982 -502.561)" fill="#fff"/>
                  <path id="Path_852" data-name="Path 852" d="M1379.018,505.541l-1.4-.809-1.393.809,1.4.809,1.393-.809" transform="translate(-1365.197 -502.108)" fill="#fff"/>
                  <path id="Path_853" data-name="Path 853" d="M1376.65,504.173l-1.4-.809-1.393.809,1.4.809,1.393-.809" transform="translate(-1364.413 -501.655)" fill="#fff"/>
                  <path id="Path_854" data-name="Path 854" d="M1374.283,502.807l-1.4-.809-1.393.809,1.4.809,1.393-.809" transform="translate(-1363.629 -501.203)" fill="#fff"/>
                  <path id="Path_855" data-name="Path 855" d="M1372.793,504.6l-2.2-1.27-1.393.809,2.2,1.27,1.393-.809" transform="translate(-1362.872 -501.643)" fill="#fff"/>
                  <path id="Path_856" data-name="Path 856" d="M1370.87,506.16l-2.584-1.492-1.393.809,2.584,1.492,1.393-.809" transform="translate(-1362.108 -502.087)" fill="#fff"/>
                  <path id="Path_857" data-name="Path 857" d="M1367.716,506.971l-1.7-.982-1.393.809,1.7.982,1.393-.809" transform="translate(-1361.356 -502.524)" fill="#fff"/>
                  <path id="Path_858" data-name="Path 858" d="M1388.494,511.012l-1.4-.809-1.393.809,1.4.809,1.393-.809" transform="translate(-1368.334 -503.919)" fill="#fff"/>
                  <path id="Path_859" data-name="Path 859" d="M1386.125,509.644l-1.4-.809-1.393.809,1.4.809,1.393-.809" transform="translate(-1367.55 -503.467)" fill="#fff"/>
                  <path id="Path_860" data-name="Path 860" d="M1383.757,508.277l-1.4-.809-1.393.809,1.4.809,1.393-.809" transform="translate(-1366.766 -503.014)" fill="#fff"/>
                  <path id="Path_861" data-name="Path 861" d="M1395.6,515.115l-1.4-.809-1.393.809,1.4.809,1.393-.809" transform="translate(-1370.688 -505.278)" fill="#fff"/>
                  <path id="Path_862" data-name="Path 862" d="M1393.232,513.747l-1.4-.809-1.393.809,1.4.809,1.393-.809" transform="translate(-1369.903 -504.825)" fill="#fff"/>
                  <path id="Path_863" data-name="Path 863" d="M1390.863,512.379l-1.4-.809-1.393.809,1.4.809,1.393-.809" transform="translate(-1369.119 -504.372)" fill="#fff"/>
                  <path id="Path_864" data-name="Path 864" d="M1400.339,517.85l-1.4-.81-1.393.81,1.4.809,1.393-.809" transform="translate(-1372.256 -506.184)" fill="#fff"/>
                  <path id="Path_865" data-name="Path 865" d="M1397.97,516.483l-1.4-.809-1.393.809,1.4.809,1.393-.809" transform="translate(-1371.472 -505.731)" fill="#fff"/>
                  <path id="Path_866" data-name="Path 866" d="M1376.354,521.237l-10.213-5.9a.6.6,0,0,0-.542,0l-5.749,3.341a.166.166,0,0,0,0,.314l10.213,5.9a.6.6,0,0,0,.542,0l5.749-3.341a.166.166,0,0,0,0-.314" transform="translate(-1359.739 -505.599)" fill="#b1ccf1"/>
                  <path id="Path_867" data-name="Path 867" d="M1377.208,502.82l-1.243-.718-.554.322,1.243.718.554-.322" transform="translate(-1364.928 -501.237)" fill="#fff"/>
                  <path id="Path_868" data-name="Path 868" d="M1379.541,504.167l-1.243-.718-.554.322,1.243.718.554-.322" transform="translate(-1365.7 -501.683)" fill="#fff"/>
                  <path id="Path_869" data-name="Path 869" d="M1381.872,505.513l-1.243-.718-.554.322,1.243.718.554-.322" transform="translate(-1366.472 -502.129)" fill="#fff"/>
                  <path id="Path_870" data-name="Path 870" d="M1384.2,506.86l-1.244-.718-.554.322,1.244.718.554-.322" transform="translate(-1367.244 -502.575)" fill="#fff"/>
                  <path id="Path_871" data-name="Path 871" d="M1399.658,515.782l-1.243-.718-.554.322,1.243.718.554-.322" transform="translate(-1372.361 -505.529)" fill="#fff"/>
                  <path id="Path_872" data-name="Path 872" d="M1401.99,517.128l-1.243-.718-.554.322,1.243.718.554-.322" transform="translate(-1373.133 -505.975)" fill="#fff"/>
                  <path id="Path_873" data-name="Path 873" d="M1404.322,518.475l-1.243-.718-.554.322,1.243.718.554-.322" transform="translate(-1373.905 -506.421)" fill="#fff"/>
                  <path id="Path_874" data-name="Path 874" d="M1406.654,519.821l-1.243-.718-.554.322,1.243.718.554-.322" transform="translate(-1374.677 -506.866)" fill="#fff"/>
                </g>
              </g>
            </g>
          </g>
        </g>
        <path id="Path_876" data-name="Path 876" d="M1324.625,466.411s.405,4.886,8.811,3.367c0,0,6.887,2.1,7.494,10.71s3.038,34.636,3.038,34.636-16.573,8.532-30.684-.583q.593-14.116,1.38-28.224.244-4.336.72-8.656a19.212,19.212,0,0,1,1.711-6.93C1318.665,467.751,1321.411,466.631,1324.625,466.411Z" transform="translate(-1270.798 -375.251)" fill="#739ee2"/>
        <path id="Path_877" data-name="Path 877" d="M1388.046,514.888a14.965,14.965,0,0,0,2.085-.054,12.719,12.719,0,0,0,2.274-.536,8.2,8.2,0,0,0,3.258-1.641,4.549,4.549,0,0,0,1.361-2.526,1.183,1.183,0,0,0-.274-1.154c-.4-.311-.976-.081-1.431.142a23.55,23.55,0,0,1-2.73,1.134,1.1,1.1,0,0,1-.6.084.392.392,0,0,1-.319-.443.572.572,0,0,1,.2-.254l1.622-1.407a.957.957,0,0,0-1.019-.725,2.679,2.679,0,0,0-1.261.506q-1.973,1.229-3.823,2.643a4.954,4.954,0,0,1-1.811,1.03,1.4,1.4,0,0,0-.692.255,1.06,1.06,0,0,0-.179.9c.072.634,0,1.752.7,1.987A10.3,10.3,0,0,0,1388.046,514.888Z" transform="translate(-1294.439 -388.858)" fill="#fbcfa8"/>
        <g id="Group_1314" data-name="Group 1314" transform="translate(44.397 100.887)">
          <path id="Path_878" data-name="Path 878" d="M1366.044,498.658a13.949,13.949,0,0,1,1.627-1.049,11.848,11.848,0,0,1,2.026-.778,7.616,7.616,0,0,1,3.359-.444,4.227,4.227,0,0,1,2.366,1.226,1.1,1.1,0,0,1,.393,1.029c-.145.448-.706.573-1.173.639a21.942,21.942,0,0,0-2.689.558,1.031,1.031,0,0,0-.5.247.365.365,0,0,0-.013.507.524.524,0,0,0,.285.09l1.98.231a.889.889,0,0,1-.4,1.09,2.5,2.5,0,0,1-1.233.272q-2.157.088-4.317-.029a4.613,4.613,0,0,0-1.928.156,1.3,1.3,0,0,1-.665.167c-.29-.05-.469-.336-.607-.6-.276-.524-.916-1.344-.5-1.889A9.532,9.532,0,0,1,1366.044,498.658Z" transform="translate(-1331.958 -486.044)" fill="#fbcfa8"/>
          <path id="Path_879" data-name="Path 879" d="M1348.166,494.668a3.792,3.792,0,0,1,1.72,1.775,1.582,1.582,0,0,1-.995,2c-2,.716-7.313,1.907-14.719-1.774-9.535-4.74-18.594-3.78-18.005-9.4s4.076-7.032,7.734-6.018c3.623,1,6.4,15.369,23.3,13.238A1.56,1.56,0,0,1,1348.166,494.668Z" transform="translate(-1316.14 -480.952)" fill="#739de1"/>
        </g>
        <path id="Path_880" data-name="Path 880" d="M1369.353,502.977s3.207.947,1.527,4.765c0,0-9.974,6.677-18.379,2.086s-16.863-19.093-16.863-19.093,1.3-10.446,11.633-5.561c0,0,2.748,17.6,9.691,18.531A32.179,32.179,0,0,0,1369.353,502.977Z" transform="translate(-1278.199 -381.032)" fill="#739de1"/>
        <g id="Group_1317" data-name="Group 1317" transform="translate(90.36 98.464)">
          <g id="Group_1316" data-name="Group 1316" style="isolation: isolate">
            <g id="Group_1315" data-name="Group 1315" clip-path="url(#clip-path-8)">
              <path id="Path_881" data-name="Path 881" d="M1390.72,482c-3.058-1.621-5.544-.3-5.8,3.042l2.938,1.7c.231-1.492,1.4-2.083,2.852-1.376l.009-3.363" transform="translate(-1384.877 -478.647)" fill="#fa513c"/>
              <path id="Path_882" data-name="Path 882" d="M1387.808,489.4l-2.923-1.688a11.984,11.984,0,0,0,1.507,5.484l2.22-.913a6.217,6.217,0,0,1-.8-2.884" transform="translate(-1384.865 -480.769)" fill="#739de1"/>
              <path id="Path_883" data-name="Path 883" d="M1392.121,482.767l-.01,3.362a6.947,6.947,0,0,1,2.874,5.252c-.005,1.986-1.415,2.786-3.141,1.79a6.133,6.133,0,0,1-1.952-1.914l-2.236.918a12.248,12.248,0,0,0,4.179,4.355c3.335,1.925,6.062.375,6.073-3.461a13.376,13.376,0,0,0-5.788-10.3" transform="translate(-1385.783 -479.13)" fill="#fcd203"/>
            </g>
          </g>
        </g>
        <path id="Path_885" data-name="Path 885" d="M1353.192,442.35c.114-.562.221-1.13.294-1.706a6.552,6.552,0,0,0-.569-4.314c-1.117-1.873-3.532-2.6-5.713-2.482a44.245,44.245,0,0,0-6.4,1.331c-.549.114-1.11.207-1.666.334" transform="translate(-1279.358 -364.465)" fill="none"/>
        <g id="Group_1327" data-name="Group 1327" transform="translate(21.333 0)">
          <rect id="Rectangle_145" data-name="Rectangle 145" width="159.76" height="55.473" fill="#fff"/>
          <g id="Group_1325" data-name="Group 1325" transform="translate(10.33 7.809)">
            <g id="Group_1321" data-name="Group 1321">
              <g id="Group_1319" data-name="Group 1319" transform="translate(2.212 4.527)">
                <g id="Group_1318" data-name="Group 1318">
                  <path id="Path_886" data-name="Path 886" d="M1303.783,390.226h-3.372V372.87a1.686,1.686,0,0,1,1.686-1.686h0a1.686,1.686,0,0,1,1.686,1.686Z" transform="translate(-1300.411 -356.058)" fill="#b1ccf1"/>
                  <path id="Path_887" data-name="Path 887" d="M1314.508,395.479h-3.372v-6.744a1.686,1.686,0,0,1,1.686-1.686h0a1.687,1.687,0,0,1,1.686,1.686Z" transform="translate(-1303.962 -361.311)" fill="#739ee2"/>
                  <path id="Path_888" data-name="Path 888" d="M1325.233,387.449h-3.372V364.48a1.686,1.686,0,0,1,1.686-1.686h0a1.686,1.686,0,0,1,1.686,1.686Z" transform="translate(-1307.513 -353.28)" fill="#f16173"/>
                  <path id="Path_889" data-name="Path 889" d="M1335.958,382.739h-3.372V349.934a1.55,1.55,0,0,1,1.686-1.363h0a1.551,1.551,0,0,1,1.686,1.363Z" transform="translate(-1311.064 -348.571)" fill="#fcd203"/>
                  <path id="Path_890" data-name="Path 890" d="M1346.683,392.853h-3.372V380.8a1.686,1.686,0,0,1,1.686-1.686h0a1.686,1.686,0,0,1,1.686,1.686Z" transform="translate(-1314.615 -358.685)" fill="#739ee2"/>
                  <path id="Path_891" data-name="Path 891" d="M1357.408,386.078h-3.372V360.341a1.686,1.686,0,0,1,1.687-1.686h0a1.686,1.686,0,0,1,1.686,1.686Z" transform="translate(-1318.166 -351.91)" fill="#ff8fa6"/>
                  <path id="Path_892" data-name="Path 892" d="M1368.133,385.29h-3.372V357.639a1.551,1.551,0,0,1,1.686-1.364h0a1.551,1.551,0,0,1,1.686,1.364Z" transform="translate(-1321.717 -351.122)" fill="#b1ccf1"/>
                  <path id="Path_893" data-name="Path 893" d="M1378.858,388.14h-3.372V366.568a1.687,1.687,0,0,1,1.686-1.686h0a1.686,1.686,0,0,1,1.686,1.686Z" transform="translate(-1325.268 -353.971)" fill="#739ee2"/>
                </g>
              </g>
              <g id="Group_1320" data-name="Group 1320">
                <text id="_10_" data-name="10%" transform="translate(0 16.369)" fill="#739ee2" font-size="2" font-family="Montserrat-Bold, Montserrat" font-weight="700"><tspan x="0" y="0">10%</tspan></text>
                <text id="_5_" data-name="5%" transform="translate(9.224 28.667)" fill="#739ee2" font-size="2" font-family="Montserrat-Bold, Montserrat" font-weight="700"><tspan x="0" y="0">5%</tspan></text>
                <text id="_5_2" data-name="5%" transform="translate(30.647 23.212)" fill="#739ee2" font-size="2" font-family="Montserrat-Bold, Montserrat" font-weight="700"><tspan x="0" y="0">5%</tspan></text>
                <text id="_30_" data-name="30%" transform="translate(43.838 5.977)" fill="#739ee2" font-size="2" font-family="Montserrat-Bold, Montserrat" font-weight="700"><tspan x="0" y="0">30%</tspan></text>
                <text id="_30_2" data-name="30%" transform="translate(14.778 11.31)" fill="#739ee2" font-size="2" font-family="Montserrat-Bold, Montserrat" font-weight="700"><tspan x="0" y="0">30%</tspan></text>
                <text id="_30_3" data-name="30%" transform="translate(51.673 13.294)" fill="#739ee2" font-size="2" font-family="Montserrat-Bold, Montserrat" font-weight="700"><tspan x="0" y="0">30%</tspan></text>
                <text id="_20_" data-name="20%" transform="translate(22.018 2)" fill="#739ee2" font-size="2" font-family="Montserrat-Bold, Montserrat" font-weight="700"><tspan x="0" y="0">20%</tspan></text>
                <text id="_20_2" data-name="20%" transform="translate(36.201 9.922)" fill="#739ee2" font-size="2" font-family="Montserrat-Bold, Montserrat" font-weight="700"><tspan x="0" y="0">20%</tspan></text>
              </g>
            </g>
            <g id="Group_1324" data-name="Group 1324" transform="translate(72.16 11.428)">
              <g id="Group_1322" data-name="Group 1322">
                <text id="Lorem_ipsum_dolor_sit_amet_consectetuer_adipiscing_elit_sed_diam_nonummy_nibh_euismod_tincidunt_ut_laoreet_dolore_magna_aliquam_erat_volutpat._" data-name="Lorem ipsum dolor sit amet, consectetuer adipiscing elit, sed diam nonummy nibh euismod tincidunt ut laoreet dolore magna aliquam erat volutpat. " transform="translate(0.073 6.592)" fill="#b1ccf1" font-size="2.931" font-family="Montserrat-Regular, Montserrat"><tspan x="0" y="3">Lorem ipsum </tspan><tspan x="0" y="7.396">dolor sit amet, </tspan><tspan x="0" y="11.792">consectetuer </tspan><tspan x="0" y="16.189">adipiscing elit, </tspan><tspan x="0" y="20.585">sed diam </tspan></text>
                <text id="LOREM_IPSUM_" data-name="LOREM IPSUM " transform="translate(0 2)" fill="#7daef3" font-size="2" font-family="Montserrat-Medium, Montserrat" font-weight="500"><tspan x="0" y="0">LOREM IPSUM </tspan></text>
              </g>
              <g id="Group_1323" data-name="Group 1323" transform="translate(36.955 0)">
                <text id="Lorem_ipsum_dolor_sit_amet_consectetuer_adipiscing_elit_sed_diam_nonummy_nibh_euismod_tincidunt_ut_laoreet_dolore_magna_aliquam_erat_volutpat._2" data-name="Lorem ipsum dolor sit amet, consectetuer adipiscing elit, sed diam nonummy nibh euismod tincidunt ut laoreet dolore magna aliquam erat volutpat. " transform="translate(0.074 6.592)" fill="#b1ccf1" font-size="2.931" font-family="Montserrat-Regular, Montserrat"><tspan x="0" y="3">Lorem ipsum </tspan><tspan x="0" y="7.396">dolor sit amet, </tspan><tspan x="0" y="11.792">consectetuer </tspan><tspan x="0" y="16.189">adipiscing elit, </tspan><tspan x="0" y="20.585">sed diam </tspan></text>
                <text id="LOREM_IPSUM_2" data-name="LOREM IPSUM " transform="translate(0 2)" fill="#7daef3" font-size="2" font-family="Montserrat-Medium, Montserrat" font-weight="500"><tspan x="0" y="0">LOREM IPSUM </tspan></text>
              </g>
            </g>
          </g>
          <g id="Group_1326" data-name="Group 1326" transform="translate(141.166 5.166)">
            <path id="Path_894" data-name="Path 894" d="M1495.085,339.043a1.192,1.192,0,1,1-1.192-1.192A1.192,1.192,0,0,1,1495.085,339.043Z" transform="translate(-1492.701 -337.851)" fill="#b1ccf1"/>
            <circle id="Ellipse_52" data-name="Ellipse 52" cx="1.192" cy="1.192" r="1.192" transform="translate(4.947 0)" fill="#b1ccf1"/>
            <circle id="Ellipse_53" data-name="Ellipse 53" cx="1.192" cy="1.192" r="1.192" transform="translate(9.895 0)" fill="#f16173"/>
          </g>
        </g>
      </g>
    </g>
  </g>
</svg>
